<?xml version="1.0" encoding="utf-8"?>
<!-- Generator: Adobe Illustrator 27.0.0, SVG Export Plug-In . SVG Version: 6.00 Build 0)  -->
<svg version="1.1" id="Layer_1" xmlns="http://www.w3.org/2000/svg" xmlns:xlink="http://www.w3.org/1999/xlink" x="0px" y="0px"
	 viewBox="0 0 642.9 241.8" style="enable-background:new 0 0 642.9 241.8;" xml:space="preserve">
<style type="text/css">
	.st0{opacity:0.8;fill:url(#SVGID_1_);enable-background:new    ;}
	.st1{opacity:0.8;fill:url(#SVGID_00000075149417860824471770000003105394919109256863_);enable-background:new    ;}
	.st2{opacity:0.8;fill:url(#SVGID_00000120527638468308580110000008648599321328339587_);enable-background:new    ;}
	.st3{opacity:0.8;fill:url(#SVGID_00000024710230137210649310000015031356637451430290_);enable-background:new    ;}
	.st4{opacity:0.3;fill:url(#SVGID_00000163063348274900080260000016026398232510234513_);enable-background:new    ;}
	.st5{opacity:0.3;fill:url(#SVGID_00000096027081339517263660000013529790604140580269_);enable-background:new    ;}
	.st6{opacity:0.3;fill:url(#SVGID_00000101100857238567992290000013388038419688334250_);enable-background:new    ;}
	.st7{opacity:0.3;fill:url(#SVGID_00000027562499975037402460000013644115114740497567_);enable-background:new    ;}
	.st8{opacity:0.3;fill:url(#SVGID_00000087370638518815761970000009645742111926329020_);enable-background:new    ;}
	.st9{fill-rule:evenodd;clip-rule:evenodd;}
	.st10{opacity:0.8;fill:url(#SVGID_00000100358649348805602740000007820903638245529277_);enable-background:new    ;}
	.st11{opacity:0.8;fill:url(#SVGID_00000084497638386680466920000014605746655515345026_);enable-background:new    ;}
	.st12{opacity:0.8;fill:url(#SVGID_00000163751307679754364830000015187482387111109793_);enable-background:new    ;}
	.st13{opacity:0.8;fill:url(#SVGID_00000163040652415327352520000016340329713175509888_);enable-background:new    ;}
	.st14{opacity:0.3;fill:url(#SVGID_00000137815336348454278950000003884439251335722394_);enable-background:new    ;}
	.st15{opacity:0.3;fill:url(#SVGID_00000029758506687128298270000016084612174863680438_);enable-background:new    ;}
	.st16{opacity:0.3;fill:url(#SVGID_00000100362848066799922390000006748505133149451394_);enable-background:new    ;}
	.st17{opacity:0.3;fill:url(#SVGID_00000042719781592295765800000012170960406354654348_);enable-background:new    ;}
	.st18{opacity:0.3;fill:url(#SVGID_00000127025575925340314580000015760893990203193744_);enable-background:new    ;}
	.st19{opacity:0.8;fill:#FFFFFF;enable-background:new    ;}
	.st20{opacity:0.3;fill:#FFFFFF;enable-background:new    ;}
	.st21{fill-rule:evenodd;clip-rule:evenodd;fill:#FFFFFF;}
	.st22{fill:#FFFFFF;}
</style>
<linearGradient id="SVGID_1_" gradientUnits="userSpaceOnUse" x1="122.812" y1="719.1166" x2="206.888" y2="695.9829" gradientTransform="matrix(1 0 0 -1 0 776.4225)">
	<stop  offset="0.1297" style="stop-color:#000000"/>
	<stop  offset="0.3277" style="stop-color:#00334B"/>
	<stop  offset="0.5276" style="stop-color:#006190"/>
	<stop  offset="0.6723" style="stop-color:#007FBB"/>
	<stop  offset="0.7457" style="stop-color:#008ACC"/>
</linearGradient>
<path class="st0" d="M122.9,57.7c0-0.3,0.1-0.5,0-0.7C123,57.2,123,57.4,122.9,57.7z"/>
<linearGradient id="SVGID_00000056421567877672322760000015442031002398948511_" gradientUnits="userSpaceOnUse" x1="123.6269" y1="722.0784" x2="207.7029" y2="698.9446" gradientTransform="matrix(1 0 0 -1 0 776.4225)">
	<stop  offset="0.1297" style="stop-color:#000000"/>
	<stop  offset="0.3277" style="stop-color:#00334B"/>
	<stop  offset="0.5276" style="stop-color:#006190"/>
	<stop  offset="0.6723" style="stop-color:#007FBB"/>
	<stop  offset="0.7457" style="stop-color:#008ACC"/>
</linearGradient>
<path style="opacity:0.8;fill:url(#SVGID_00000056421567877672322760000015442031002398948511_);enable-background:new    ;" d="
	M130.1,56c-0.1-0.1-0.3-0.1-0.4-0.1c0.3,0.1,0.5,0.3,0.8,0.3C130.4,56.2,130.2,56.1,130.1,56z"/>
<linearGradient id="SVGID_00000019661064759822181230000010642144595631985828_" gradientUnits="userSpaceOnUse" x1="123.5376" y1="721.7567" x2="207.6146" y2="698.6231" gradientTransform="matrix(1 0 0 -1 0 776.4225)">
	<stop  offset="0.1297" style="stop-color:#000000"/>
	<stop  offset="0.3277" style="stop-color:#00334B"/>
	<stop  offset="0.5276" style="stop-color:#006190"/>
	<stop  offset="0.6723" style="stop-color:#007FBB"/>
	<stop  offset="0.7457" style="stop-color:#008ACC"/>
</linearGradient>
<path style="opacity:0.8;fill:url(#SVGID_00000019661064759822181230000010642144595631985828_);enable-background:new    ;" d="
	M132.7,57.2c-0.1,0-0.3-0.1-0.3-0.1c0.2,0.1,0.4,0.2,0.7,0.3C132.9,57.2,132.8,57.2,132.7,57.2z"/>
<linearGradient id="SVGID_00000018956629567805137860000010316985799956599726_" gradientUnits="userSpaceOnUse" x1="121.741" y1="715.2253" x2="205.817" y2="692.0917" gradientTransform="matrix(1 0 0 -1 0 776.4225)">
	<stop  offset="0.1297" style="stop-color:#000000"/>
	<stop  offset="0.3277" style="stop-color:#00334B"/>
	<stop  offset="0.5276" style="stop-color:#006190"/>
	<stop  offset="0.6723" style="stop-color:#007FBB"/>
	<stop  offset="0.7457" style="stop-color:#008ACC"/>
</linearGradient>
<path style="opacity:0.8;fill:url(#SVGID_00000018956629567805137860000010316985799956599726_);enable-background:new    ;" d="
	M124.2,62.6c-0.3-0.5-0.4-1.1-0.7-1.7C123.7,61.4,123.9,62,124.2,62.6z"/>
<linearGradient id="SVGID_00000016770475543805483790000006650448560897050285_" gradientUnits="userSpaceOnUse" x1="122.927" y1="718.5868" x2="122.9271" y2="718.5868" gradientTransform="matrix(1 0 0 -1 0 776.4225)">
	<stop  offset="0" style="stop-color:#682C90"/>
	<stop  offset="0.496" style="stop-color:#817CB9"/>
	<stop  offset="1" style="stop-color:#FFFFFF"/>
</linearGradient>
<path style="opacity:0.3;fill:url(#SVGID_00000016770475543805483790000006650448560897050285_);enable-background:new    ;" d="
	M122.9,57.9c0-0.1,0-0.1,0.1-0.2C123,57.8,123,57.8,122.9,57.9z"/>
<linearGradient id="SVGID_00000158710990918948316720000012829868516845489026_" gradientUnits="userSpaceOnUse" x1="195.196" y1="702.613" x2="152.61" y2="714.3304" gradientTransform="matrix(1 0 0 -1 0 776.4225)">
	<stop  offset="0" style="stop-color:#682C90"/>
	<stop  offset="0.496" style="stop-color:#817CB9"/>
	<stop  offset="1" style="stop-color:#FFFFFF"/>
</linearGradient>
<path style="opacity:0.3;fill:url(#SVGID_00000158710990918948316720000012829868516845489026_);enable-background:new    ;" d="
	M126.5,54.8c1.1,0.4,2.1,0.8,3.2,1.2C128.6,55.5,127.6,55.1,126.5,54.8z"/>
<linearGradient id="SVGID_00000176016755571045449700000006032114190393160877_" gradientUnits="userSpaceOnUse" x1="193.809" y1="697.5703" x2="151.223" y2="709.2877" gradientTransform="matrix(1 0 0 -1 0 776.4225)">
	<stop  offset="0" style="stop-color:#682C90"/>
	<stop  offset="0.496" style="stop-color:#817CB9"/>
	<stop  offset="1" style="stop-color:#FFFFFF"/>
</linearGradient>
<path style="opacity:0.3;fill:url(#SVGID_00000176016755571045449700000006032114190393160877_);enable-background:new    ;" d="
	M122.9,57.9c0,1,0.2,2,0.6,3C123.1,60,122.9,58.9,122.9,57.9z"/>
<linearGradient id="SVGID_00000093154046405649869770000008747672275151486092_" gradientUnits="userSpaceOnUse" x1="194.9801" y1="701.8292" x2="152.3941" y2="713.5466" gradientTransform="matrix(1 0 0 -1 0 776.4225)">
	<stop  offset="0" style="stop-color:#682C90"/>
	<stop  offset="0.496" style="stop-color:#817CB9"/>
	<stop  offset="1" style="stop-color:#FFFFFF"/>
</linearGradient>
<path style="opacity:0.3;fill:url(#SVGID_00000093154046405649869770000008747672275151486092_);enable-background:new    ;" d="
	M135.5,58.3l0.5,0.3c-0.9-0.4-2-0.9-3-1.3c0.3,0.2,0.6,0.3,0.9,0.4C134.5,57.9,135,58.1,135.5,58.3z"/>
<linearGradient id="SVGID_00000103956055839451681220000003697485882910017189_" gradientUnits="userSpaceOnUse" x1="195.092" y1="702.2361" x2="152.507" y2="713.9536" gradientTransform="matrix(1 0 0 -1 0 776.4225)">
	<stop  offset="0" style="stop-color:#682C90"/>
	<stop  offset="0.496" style="stop-color:#817CB9"/>
	<stop  offset="1" style="stop-color:#FFFFFF"/>
</linearGradient>
<path style="opacity:0.3;fill:url(#SVGID_00000103956055839451681220000003697485882910017189_);enable-background:new    ;" d="
	M132.4,57.1l-1.8-0.8c0.1,0,0.2,0.1,0.3,0.1C131.3,56.6,131.8,56.8,132.4,57.1z"/>
<path class="st9" d="M283,80c0-0.1,0-0.1-0.1-0.2c-0.1-0.1-0.2-0.1-0.3-0.2c0,0,0,0,0,0c-0.5-0.1-1-0.1-1.6-0.2
	c-1.8-0.1-4.3-0.2-7.7,0.1c-1.1,0.1-2.3,0.2-3.7,0.3c-1.3,0.1-2.8,0.3-4.3,0.5c-3.1,0.4-6.6,1.1-10.6,1.9c-1.9,0.5-3.9,0.7-5.8,0.6
	c-2.1-0.2-4.2-0.7-6.2-1.4c-4.2-1.5-8.6-2.2-13-2c-1.6,0.1-3.1,0.4-4.6,1c-1,0.3-1.9,0.7-2.7,1.2c0,0,0,0,0,0
	c-2.5,1.4-4.7,3.3-6.3,5.6c-0.5,0.7-1.2,1.7-1.9,2.9c-1.9,3-4.5,7-7.6,10.2c-0.3,0.3-0.6,0.6-1,0.9c-0.7,0.6-1.3,1.2-2,1.6
	c-1,0.7-2.1,1.4-3.3,1.8c-0.1-0.1-0.1-0.1-0.2-0.1c0,0,0,0,0.1,0c-2.7-2.5-5.4-4.9-7.9-7.2c-5.4-4.9-10.4-9.3-15.3-13.4
	c-3.3-2.6-6.6-5.2-9.6-7.2c-0.7-0.5-1.3-1-2-1.4c-8.7-5.9-17.4-11.4-26.2-15.6c-0.8-0.4-1.5-0.7-2.4-1.1c-0.2-0.1-0.4-0.2-0.7-0.3
	c0.4,0.2,0.8,0.4,1.2,0.7c-0.3-0.1-0.5-0.2-0.8-0.3c-0.2-0.1-0.3-0.2-0.5-0.2c-0.2-0.1-0.4-0.2-0.5-0.3c-0.5-0.3-1-0.4-1.5-0.7
	c-0.3-0.2-0.6-0.3-0.9-0.4c-0.2-0.1-0.4-0.2-0.7-0.3c-0.5-0.3-1.1-0.5-1.6-0.6c-0.1,0-0.2-0.1-0.3-0.1c-0.3-0.1-0.5-0.3-0.8-0.3
	c-1-0.3-2.1-0.9-3.2-1.2c-1-0.3-1.8-0.2-2.4,0.2c-0.6,0.3-1,1-1.2,1.8c-0.2,0.5-0.3,1.9,0.5,4.3c0.1,0.2,0.1,0.3,0.2,0.5
	c0.1,0.4,0.3,0.8,0.5,1.2c0,0.1,0.1,0.1,0.1,0.2c0.2,0.4,0.3,0.7,0.5,1.1c-0.2-0.4-0.4-0.9-0.6-1.3c2.3,5.8,5.6,12.3,9.6,19
	c0.1,0.2,0.2,0.3,0.3,0.5c0.3,0.4,0.5,0.8,0.8,1.2c0.1,0.2,0.2,0.4,0.3,0.6c10.7,17.2,25.7,34.9,39.6,43.7c0.3,0.3,1.5,0.9,2.5,1.5
	c0.1,0,0.2,0.1,0.2,0.1c0,0-0.1,0.1-0.1,0.1c-6.6,9.8-15.1,18.2-25,24.7c-12.7,8.9-23.4,11.6-23.4,11.6s28.3,7.8,59.3-6.8
	c23-10.8,35.2-31.6,38.4-37.1c0.1-0.2,0.2-0.3,0.2-0.4l14.3-24.2c1.1-1.5,2.3-3,3.5-4.4c2.8-2.9,6.3-5.1,10.2-6.3
	c9.7-3.2,24.4-5.2,28-5.6C283.1,80.7,283.1,80.3,283,80z M234.8,91.6c-1.4,0-2.6-1.1-2.6-2.6c0-1.4,1.1-2.6,2.6-2.6
	c1.4,0,2.6,1.1,2.6,2.6C237.4,90.5,236.2,91.6,234.8,91.6z"/>
<path d="M354.8,122.6c-4.5,0-8.9,1.8-12,5c-3.2,3.2-5,7.5-5,12v5.1c0,4.5,1.8,8.9,5,12c3.2,3.2,7.5,5,12,5h10.8v-6.2h-10.8
	c-2.8,0-5.4-1.1-7.4-3c-2-1.9-3.2-4.5-3.4-7.3h22.2c0.7,0,1.5-0.1,2.1-0.4c0.7-0.3,1.3-0.7,1.8-1.2c0.5-0.5,0.9-1.1,1.2-1.8
	c0.3-0.7,0.4-1.4,0.4-2.1c0-2.2-0.4-4.5-1.3-6.5c-0.9-2.1-2.1-4-3.7-5.6c-1.6-1.6-3.5-2.9-5.5-3.7C359.3,123,357,122.6,354.8,122.6z
	 M344,139c0.2-2.8,1.4-5.4,3.4-7.3c2-1.9,4.7-3,7.5-3c2.8,0,5.4,1.1,7.5,3c2,1.9,3.2,4.5,3.4,7.3H344z"/>
<path d="M263.6,116.4h4.5v-6.2h-4.5c-1.7,0-3.4,0.4-5,1c-1.6,0.7-3,1.7-4.2,2.9c-2.4,2.5-3.8,5.8-3.8,9.2v0.8H247v6.2h3.6v31.3h6.2
	v-31.3h8.3v-6.1h-8.3v-0.8C256.9,119.6,260,116.4,263.6,116.4z"/>
<path d="M284,110.2h-6.2v51.5h6.2V110.2z"/>
<path d="M490.7,122.6h-6.2v39h6.2V122.6z"/>
<path d="M321.5,145.8c0,2.6-1,5.1-2.9,6.9c-1.8,1.8-4.3,2.9-6.9,2.9c-2.6,0-5.1-1-6.9-2.9c-1.8-1.8-2.9-4.3-2.9-6.9v-23.2h-6.1v23.2
	c0,4.2,1.7,8.3,4.7,11.3c3,3,7,4.7,11.3,4.7c4.2,0,8.3-1.7,11.3-4.7c3-3,4.7-7,4.7-11.3v-23.2h-6.2V145.8z"/>
<path d="M393.9,122.6c-4.2,0-8.3,1.7-11.2,4.7s-4.7,7-4.7,11.2v23.2h6.2v-23.2c0-2.6,1-5.1,2.9-6.9c1.8-1.8,4.3-2.9,6.9-2.9
	c2.6,0,5.1,1,6.9,2.9c1.8,1.8,2.9,4.3,2.9,6.9v23.2h6.2v-23.2c-0.1-4.2-1.8-8.3-4.8-11.2C402.2,124.3,398.1,122.6,393.9,122.6z"/>
<path d="M427.6,148.5v-19.7h8.3v-6.1h-8.3v-12.4h-6.1v12.4H416v6.2h5.5v19.7c0,3.4,1.4,6.7,3.8,9.1c2.4,2.4,5.7,3.8,9.1,3.8h2.7
	v-6.2h-2.7c-1.8,0-3.5-0.7-4.8-2C428.3,152,427.6,150.3,427.6,148.5z"/>
<path d="M510.7,148.5v-19.7h8.3v-6.1h-8.3v-12.4h-6.2v12.4H499v6.2h5.4v19.7c0,3.4,1.4,6.7,3.8,9.1c2.4,2.4,5.7,3.8,9.1,3.8h2.7
	v-6.2h-2.7c-1.8,0-3.5-0.7-4.7-2C511.4,152,510.7,150.3,510.7,148.5z"/>
<path d="M450.1,110.2v15.8c2.8-2.2,6.2-3.4,9.8-3.3c4.2,0,8.3,1.7,11.2,4.7c3,3,4.7,7,4.7,11.2v7.2c0,4.2-1.7,8.3-4.7,11.3
	c-3,3-7,4.7-11.2,4.7c-4.2,0-8.3-1.7-11.2-4.7c-3-3-4.7-7-4.7-11.3v-35.6H450.1z M450.1,142v3.8c0,2.6,1,5.1,2.9,6.9
	c1.8,1.8,4.3,2.9,6.9,2.9c2.6,0,5.1-1,6.9-2.9c1.8-1.8,2.9-4.3,2.9-6.9v-7.2c0-2.6-1-5.1-2.9-6.9c-1.8-1.8-4.3-2.9-6.9-2.9
	c-2.6,0-5.1,1-6.9,2.9c-1.8,1.8-2.9,4.3-2.9,6.9V142z"/>
</svg>
