<svg width="82" height="77" viewBox="0 0 82 77" fill="none" xmlns="http://www.w3.org/2000/svg">
<path fill-rule="evenodd" clip-rule="evenodd" d="M64.0267 21.9981C70.186 20.7204 73.2984 20.7859 74.7071 20.9825C74.9037 21.0152 74.9365 21.3101 74.6744 21.3756C74.3133 21.417 73.8773 21.4553 73.381 21.4988C71.1304 21.6961 67.6382 22.0024 64.2561 23.2103C63.5681 23.4724 62.8801 23.7345 62.2248 24.0621C62.1886 24.0983 62.0923 24.1446 61.9635 24.2064C61.8594 24.2563 61.7342 24.3165 61.6024 24.3897C60.7178 24.8484 59.7677 26.0278 59.2435 26.9451L53.3464 36.9703C53.3178 37.0188 53.2867 37.0718 53.2531 37.1291C52.0145 39.2403 47.3413 47.2063 38.538 51.3527C26.6455 56.9222 15.8013 53.9409 15.8013 53.9409C15.8013 53.9409 19.8965 52.8925 24.778 49.4853C28.5516 46.9806 31.8009 43.7646 34.3445 40.0171C35.9813 38.5461 36.6878 37.0488 37.2346 35.89C37.5524 35.2164 37.8163 34.6571 38.1776 34.2838C39.5982 32.8632 41.2139 31.8331 42.7418 30.8589C42.8701 30.7771 42.9978 30.6957 43.1247 30.6144C45.4591 29.7226 47.2895 26.8569 48.4478 25.0434C48.7363 24.5918 48.9831 24.2054 49.1856 23.931C49.8147 23.0317 50.6448 22.2913 51.61 21.7687C53.2481 20.9169 56.0329 20.5566 59.4073 21.7032C60.1846 21.9591 60.9859 22.1347 61.7989 22.2274C62.5484 22.2485 63.2973 22.1714 64.0267 21.9981ZM57.3636 24.561C57.3636 25.1038 56.9235 25.5438 56.3807 25.5438C55.8378 25.5438 55.3978 25.1038 55.3978 24.561C55.3978 24.0181 55.8378 23.5781 56.3807 23.5781C56.9235 23.5781 57.3636 24.0181 57.3636 24.561Z" fill="url(#paint0_linear_462_3852)"/>
<path fill-rule="evenodd" clip-rule="evenodd" d="M64.0269 21.998C70.1861 20.7203 73.2985 20.7858 74.7072 20.9824C74.7513 20.9877 74.7918 21.009 74.8213 21.0422C74.8507 21.0754 74.867 21.1182 74.867 21.1626C74.867 21.207 74.8507 21.2498 74.8213 21.283C74.7918 21.3162 74.7513 21.3375 74.7072 21.3428C74.6196 21.3529 74.5261 21.3635 74.4272 21.3747C72.2706 21.6199 67.5123 22.161 63.5027 23.5706C63.2096 23.6878 63.0476 23.733 62.9023 23.7734C62.7229 23.8234 62.569 23.8663 62.225 24.0293C62.1887 24.0655 62.0924 24.1118 61.9636 24.1736C61.8595 24.2235 61.7343 24.2837 61.6025 24.3569C60.7179 24.8156 59.7678 25.995 59.2436 26.9123L53.3465 36.9375C52.8394 37.8209 52.2815 38.6741 51.6756 39.4929C50.2341 41.4258 47.2855 42.5725 43.649 42.4742C41.1516 42.5005 38.6792 41.9747 36.4086 40.9344C35.8516 40.7051 34.9671 40.2792 34.3118 39.9188C33.9842 39.7222 33.4928 39.4274 33.3945 39.3618C32.3712 38.6862 31.3867 37.9533 30.4459 37.1668C29.6596 36.5443 28.9389 35.8891 28.1854 35.1683C24.5509 31.5636 21.3312 27.5636 18.5861 23.243C17.9964 22.3257 17.4395 21.4083 16.948 20.5238C15.7027 18.373 14.6291 16.1273 13.7374 13.8076C13.4098 12.8902 13.4753 12.366 13.5408 12.1695C13.6719 11.5798 14.0978 11.2194 14.8513 11.4487C16.5877 12.104 18.1602 12.7264 19.6673 13.4144C23.1807 15.1367 26.5545 17.1303 29.7579 19.3771C31.0684 20.2289 32.6082 21.4083 34.1808 22.6533C36.9655 24.9466 39.8486 27.5348 43.1248 30.6144C45.4592 29.7226 47.2896 26.8569 48.4479 25.0434C48.7364 24.5917 48.9832 24.2054 49.1857 23.931C49.8149 23.0316 50.6449 22.2913 51.6101 21.7687C53.281 20.8514 55.9347 20.5565 59.4074 21.7032C60.1847 21.959 60.986 22.1347 61.799 22.2274C62.5485 22.2485 63.2975 22.1714 64.0269 21.998ZM57.3628 24.5609C57.3628 25.1037 56.9227 25.5438 56.3799 25.5438C55.8371 25.5438 55.397 25.1037 55.397 24.5609C55.397 24.0181 55.8371 23.578 56.3799 23.578C56.9227 23.578 57.3628 24.0181 57.3628 24.5609Z" fill="url(#paint1_linear_462_3852)"/>
<path opacity="0.8" d="M13.4751 12.5296C13.4751 12.4315 13.5078 12.3334 13.4751 12.2679C13.5081 12.3521 13.5081 12.4455 13.4751 12.5296Z" fill="url(#paint2_linear_462_3852)"/>
<path opacity="0.8" d="M16.227 11.9076C16.1768 11.8811 16.12 11.8698 16.0635 11.8748C16.1616 11.9076 16.2597 11.973 16.3579 12.0057C16.3579 11.973 16.2925 11.9403 16.227 11.9076Z" fill="url(#paint3_linear_462_3852)"/>
<path opacity="0.8" d="M17.2427 12.3334C17.21 12.3334 17.1445 12.3007 17.1118 12.3007C17.1954 12.3424 17.2831 12.3753 17.3735 12.3988C17.3081 12.3661 17.2754 12.3334 17.2427 12.3334Z" fill="url(#paint4_linear_462_3852)"/>
<path d="M36.4735 31.2043C38.6997 31.5393 40.9742 31.3141 43.0914 30.5491C41.1257 28.7144 39.2583 27.0435 37.5219 25.5365C36.6373 24.783 35.7855 24.0295 34.9665 23.3415C34.9337 23.3087 34.8682 23.2759 34.8682 23.2432C34.6389 23.0466 34.4423 22.8828 34.2457 22.719C34.1802 22.6862 34.1474 22.6207 34.1147 22.6207C32.5421 21.3757 31.0023 20.2291 29.7573 19.3445C26.4156 17.0839 23.0739 14.9872 19.6994 13.3818C19.4046 13.218 19.1097 13.1197 18.7821 12.9559C18.6984 12.9142 18.6106 12.8812 18.52 12.8577C31.5592 19.9015 35.72 26.29 36.4735 31.2043Z" fill="url(#paint5_linear_462_3852)"/>
<path opacity="0.8" d="M13.9667 14.4301C13.8684 14.2335 13.8029 14.0042 13.7046 13.7748C13.8029 13.9714 13.8684 14.2007 13.9667 14.4301Z" fill="url(#paint6_linear_462_3852)"/>
<path opacity="0.3" d="M13.4751 12.6284C13.4751 12.5955 13.4751 12.5955 13.508 12.5627C13.508 12.5955 13.508 12.5955 13.4751 12.6284Z" fill="url(#paint7_linear_462_3852)"/>
<path opacity="0.3" d="M14.8838 11.416C15.3097 11.5798 15.7028 11.7109 16.096 11.8747C15.6701 11.7109 15.2769 11.5471 14.8838 11.416Z" fill="url(#paint8_linear_462_3852)"/>
<path opacity="0.3" d="M13.4751 12.6282C13.4928 13.0198 13.5702 13.4065 13.7044 13.7748C13.5702 13.4065 13.4928 13.0198 13.4751 12.6282Z" fill="url(#paint9_linear_462_3852)"/>
<path opacity="0.3" d="M18.3241 12.7921L18.5207 12.8904C18.1603 12.7266 17.7672 12.5628 17.374 12.399C17.5051 12.4645 17.6034 12.4972 17.7344 12.5628C17.9363 12.6249 18.1333 12.7015 18.3241 12.7921Z" fill="url(#paint10_linear_462_3852)"/>
<path d="M22.1895 24.3244C18.684 21.5068 15.3751 17.5754 13.9663 14.463C17.2425 22.7518 25.7606 34.5133 33.3613 39.3621C33.4924 39.4603 33.951 39.7224 34.3114 39.919C35.2943 38.412 37.0962 35.2996 36.4737 31.2043C31.7888 30.5819 26.7434 28.0264 22.1895 24.3244Z" fill="url(#paint11_linear_462_3852)"/>
<path opacity="0.3" d="M17.1118 12.3006L16.4238 12.0057C16.4566 12.0057 16.4894 12.0385 16.5221 12.0385C16.6859 12.104 16.8825 12.2023 17.1118 12.3006Z" fill="url(#paint12_linear_462_3852)"/>
<path opacity="0.8" d="M22.1892 24.3243C26.7431 28.0264 31.7884 30.549 36.4734 31.1715C35.7199 26.29 31.5591 19.8687 18.5199 12.8904C18.4512 12.8643 18.3854 12.8314 18.3233 12.7921C18.1267 12.6938 17.9302 12.6283 17.7664 12.53C17.6353 12.4645 17.537 12.4317 17.406 12.3662C17.3223 12.3244 17.2344 12.2915 17.1439 12.2679C16.9441 12.1719 16.7357 12.0951 16.5214 12.0386C16.4887 12.0386 16.4559 12.0058 16.4231 12.0058C16.3248 11.973 16.2266 11.9075 16.1283 11.8748C15.7351 11.7437 15.342 11.5471 14.9161 11.4161C14.1626 11.1868 13.7367 11.5471 13.5728 12.1041C13.5563 12.1686 13.5453 12.2343 13.5401 12.3007C13.5073 12.3662 13.5401 12.4645 13.5401 12.5628C13.5401 12.5955 13.5401 12.5955 13.5073 12.6283C13.525 13.0199 13.6024 13.4066 13.7367 13.775C13.8096 14.0095 13.8972 14.2393 13.9988 14.4629C15.3748 17.5753 18.7165 21.5068 22.1892 24.3243Z" fill="url(#paint13_linear_462_3852)"/>
<path d="M22.1892 24.3243C26.7431 28.0264 31.7884 30.549 36.4734 31.1715C35.7199 26.29 31.5591 19.8687 18.5199 12.8904C18.4512 12.8643 18.3854 12.8314 18.3233 12.7921C18.1267 12.6938 17.9302 12.6283 17.7664 12.53C17.6353 12.4645 17.537 12.4317 17.406 12.3662C17.3223 12.3244 17.2344 12.2915 17.1439 12.2679C16.9441 12.1719 16.7357 12.0951 16.5214 12.0386C16.4887 12.0386 16.4559 12.0058 16.4231 12.0058C16.3248 11.973 16.2266 11.9075 16.1283 11.8748C15.7351 11.7437 15.342 11.5471 14.9161 11.4161C14.1626 11.1868 13.7367 11.5471 13.5728 12.1041C13.5563 12.1686 13.5453 12.2343 13.5401 12.3007C13.5073 12.3662 13.5401 12.4645 13.5401 12.5628C13.5401 12.5955 13.5401 12.5955 13.5073 12.6283C13.525 13.0199 13.6024 13.4066 13.7367 13.775C13.8096 14.0095 13.8972 14.2393 13.9988 14.4629C15.3748 17.5753 18.7165 21.5068 22.1892 24.3243Z" fill="url(#paint14_linear_462_3852)"/>
<path fill-rule="evenodd" clip-rule="evenodd" d="M64.0265 21.9981C70.1858 20.7204 73.2982 20.7859 74.7069 20.9825C74.9035 21.0152 74.9362 21.3101 74.7724 21.4411C73.4292 21.5722 67.7942 22.3257 64.0593 23.5707C62.5758 24.0364 61.2345 24.8705 60.1606 25.995C59.3997 26.8634 58.6992 27.7829 58.0639 28.747C57.4414 29.6644 55.4757 32.4819 52.2978 33.5303C48.9888 34.6114 45.4506 32.8095 43.1572 30.6472C45.4916 29.7554 47.3221 26.8897 48.4804 25.0762C48.7689 24.6246 49.0157 24.2382 49.2182 23.9638C49.7444 23.2093 50.412 22.564 51.1839 22.0636C52.1487 21.4144 53.2672 21.0302 54.4273 20.9497C56.1206 20.8724 57.8125 21.1284 59.4071 21.7032C60.1844 21.9591 60.9857 22.1347 61.7987 22.2274C62.5482 22.2486 63.2971 22.1715 64.0265 21.9981ZM57.3624 24.5609C57.3624 25.1038 56.9223 25.5438 56.3795 25.5438C55.8367 25.5438 55.3966 25.1038 55.3966 24.5609C55.3966 24.0181 55.8367 23.5781 56.3795 23.5781C56.9223 23.5781 57.3624 24.0181 57.3624 24.5609Z" fill="url(#paint15_linear_462_3852)"/>
<path d="M32.3613 64.9541C31.0276 64.9562 29.749 65.4869 28.8059 66.43C27.8628 67.3731 27.3321 68.6517 27.3301 69.9854V71.4836C27.3321 72.8174 27.8628 74.0959 28.8059 75.039C29.749 75.9822 31.0276 76.5129 32.3613 76.5149H35.559V74.6813H32.3613C31.5442 74.6799 30.7583 74.3668 30.1641 73.8058C29.5698 73.2448 29.2121 72.4783 29.1637 71.6625H35.7155C35.933 71.663 36.1484 71.6205 36.3493 71.5376C36.5503 71.4546 36.7329 71.3327 36.8867 71.1789C37.0405 71.0252 37.1623 70.8426 37.2453 70.6416C37.3283 70.4406 37.3708 70.2252 37.3703 70.0078C37.3741 69.3468 37.2474 68.6916 36.9976 68.0797C36.7478 67.4677 36.3797 66.9111 35.9144 66.4416C35.4491 65.9722 34.8958 65.5992 34.2861 65.3439C33.6764 65.0887 33.0223 64.9562 32.3613 64.9541ZM29.1637 69.8065C29.2107 68.9903 29.5681 68.2229 30.1626 67.6616C30.7571 67.1004 31.5437 66.7877 32.3613 66.7877C33.1789 66.7877 33.9656 67.1004 34.5601 67.6616C35.1546 68.2229 35.512 68.9903 35.559 69.8065H29.1637Z" fill="#191D1E"/>
<path d="M5.43812 63.1206H6.77979V61.287H5.43812C4.93205 61.2886 4.43153 61.3924 3.96658 61.5922C3.50163 61.792 3.08185 62.0837 2.73241 62.4498C2.02559 63.1833 1.62566 64.1592 1.61435 65.1778V65.4014H0.541016V67.235H1.61435V76.4702H3.44797V67.235H5.9077V65.4238H3.44797V65.2002C3.47033 64.0821 4.38714 63.1206 5.43812 63.1206Z" fill="#191D1E"/>
<path d="M11.4752 61.3094H9.6416V76.515H11.4752V61.3094Z" fill="#191D1E"/>
<path d="M72.4772 64.9541H70.6436V76.4702H72.4772V64.9541Z" fill="#30B99E"/>
<path d="M22.5219 71.7967C22.5219 72.5617 22.218 73.2954 21.6771 73.8364C21.1361 74.3774 20.4024 74.6813 19.6374 74.6813C18.8723 74.6813 18.1386 74.3774 17.5976 73.8364C17.0567 73.2954 16.7528 72.5617 16.7528 71.7967V64.9541H14.9639V71.7967C14.9639 73.0421 15.4586 74.2365 16.3392 75.1171C17.2199 75.9978 18.4143 76.4925 19.6597 76.4925C20.9051 76.4925 22.0995 75.9978 22.9802 75.1171C23.8608 74.2365 24.3556 73.0421 24.3556 71.7967V64.9541H22.5219V71.7967Z" fill="#191D1E"/>
<path d="M43.899 64.9541C42.6547 64.9578 41.4624 65.4537 40.5825 66.3336C39.7027 67.2134 39.2068 68.4057 39.2031 69.65V76.4925H41.0367V69.65C41.0367 68.885 41.3407 68.1512 41.8816 67.6103C42.4226 67.0693 43.1563 66.7654 43.9213 66.7654C44.6864 66.7654 45.4201 67.0693 45.9611 67.6103C46.502 68.1512 46.8059 68.885 46.8059 69.65V76.4925H48.6396V69.65C48.6182 68.4035 48.1105 67.2147 47.2248 66.3374C46.3392 65.46 45.1456 64.9637 43.899 64.9541Z" fill="#191D1E"/>
<path d="M53.8505 72.6018V66.7879H56.3102V64.9767H53.8505V61.3094H52.0392V64.9767H50.4292V66.8103H52.0392V72.6242C52.0421 73.6315 52.4436 74.5967 53.1559 75.3089C53.8681 76.0212 54.8333 76.4226 55.8406 76.4256H56.6456V74.592H55.8406C55.3131 74.5908 54.8076 74.3808 54.4346 74.0078C54.0617 73.6348 53.8516 73.1293 53.8505 72.6018Z" fill="#191D1E"/>
<path d="M78.3582 72.6018V66.7879H80.8179V64.9767H78.3582V61.3094H76.5246V64.9767H74.9146V66.8103H76.5246V72.6242C76.5275 73.6315 76.9289 74.5967 77.6412 75.3089C78.3535 76.0212 79.3187 76.4226 80.326 76.4256H81.131V74.592H80.326C79.802 74.5861 79.3015 74.3739 78.9331 74.0013C78.5647 73.6287 78.3581 73.1258 78.3582 72.6018Z" fill="#30B99E"/>
<path d="M60.4909 61.3094V65.9829C61.3124 65.3361 62.33 64.989 63.3755 64.999C64.6198 65.0027 65.8121 65.4986 66.692 66.3784C67.5718 67.2583 68.0677 68.4506 68.0714 69.6949V71.8192C68.0714 73.0646 67.5767 74.259 66.696 75.1396C65.8154 76.0203 64.621 76.515 63.3755 76.515C62.1301 76.515 60.9357 76.0203 60.0551 75.1396C59.1744 74.259 58.6797 73.0646 58.6797 71.8192V61.3094H60.4909ZM60.4909 70.6788V71.7968C60.4909 72.5619 60.7949 73.2956 61.3358 73.8365C61.8768 74.3775 62.6105 74.6814 63.3755 74.6814C64.1406 74.6814 64.8743 74.3775 65.4153 73.8365C65.9562 73.2956 66.2601 72.5619 66.2601 71.7968V69.6725C66.2601 68.9075 65.9562 68.1738 65.4153 67.6328C64.8743 67.0918 64.1406 66.7879 63.3755 66.7879C62.6105 66.7879 61.8768 67.0918 61.3358 67.6328C60.7949 68.1738 60.4909 68.9075 60.4909 69.6725V70.6788Z" fill="#30B99E"/>
<defs>
<linearGradient id="paint0_linear_462_3852" x1="75.9748" y1="34.9337" x2="14.6663" y2="39.8834" gradientUnits="userSpaceOnUse">
<stop offset="0.2986" stop-color="#0097CE"/>
<stop offset="0.3791" stop-color="#0999C5"/>
<stop offset="0.5119" stop-color="#229DAD"/>
<stop offset="0.6469" stop-color="#42A38F"/>
<stop offset="0.7352" stop-color="#5DAD82"/>
<stop offset="0.9239" stop-color="#A1C661"/>
<stop offset="1" stop-color="#BED153"/>
</linearGradient>
<linearGradient id="paint1_linear_462_3852" x1="11.6621" y1="18.9901" x2="70.9832" y2="35.3123" gradientUnits="userSpaceOnUse">
<stop offset="0.08199" stop-color="#3D65AF"/>
<stop offset="0.2305" stop-color="#2372B8"/>
<stop offset="0.5058" stop-color="#00B8BB"/>
</linearGradient>
<linearGradient id="paint2_linear_462_3852" x1="13.4512" y1="12.3922" x2="45.6255" y2="21.245" gradientUnits="userSpaceOnUse">
<stop offset="0.1297"/>
<stop offset="0.3277" stop-color="#00334B"/>
<stop offset="0.5276" stop-color="#006190"/>
<stop offset="0.6723" stop-color="#007FBB"/>
<stop offset="0.7457" stop-color="#008ACC"/>
</linearGradient>
<linearGradient id="paint3_linear_462_3852" x1="13.7673" y1="11.2581" x2="45.9417" y2="20.1109" gradientUnits="userSpaceOnUse">
<stop offset="0.1297"/>
<stop offset="0.3277" stop-color="#00334B"/>
<stop offset="0.5276" stop-color="#006190"/>
<stop offset="0.6723" stop-color="#007FBB"/>
<stop offset="0.7457" stop-color="#008ACC"/>
</linearGradient>
<linearGradient id="paint4_linear_462_3852" x1="13.7343" y1="11.3842" x2="45.9087" y2="20.2369" gradientUnits="userSpaceOnUse">
<stop offset="0.1297"/>
<stop offset="0.3277" stop-color="#00334B"/>
<stop offset="0.5276" stop-color="#006190"/>
<stop offset="0.6723" stop-color="#007FBB"/>
<stop offset="0.7457" stop-color="#008ACC"/>
</linearGradient>
<linearGradient id="paint5_linear_462_3852" x1="16.806" y1="19.087" x2="44.1733" y2="26.6171" gradientUnits="userSpaceOnUse">
<stop offset="0.1297" stop-color="#2483C5"/>
<stop offset="0.1672" stop-color="#2486C7"/>
<stop offset="0.676" stop-color="#29B1DF"/>
<stop offset="0.9352" stop-color="#2BC2E8"/>
</linearGradient>
<linearGradient id="paint6_linear_462_3852" x1="13.0409" y1="13.8838" x2="45.2649" y2="22.7502" gradientUnits="userSpaceOnUse">
<stop offset="0.1297"/>
<stop offset="0.3277" stop-color="#00334B"/>
<stop offset="0.5276" stop-color="#006190"/>
<stop offset="0.6723" stop-color="#007FBB"/>
<stop offset="0.7457" stop-color="#008ACC"/>
</linearGradient>
<linearGradient id="paint7_linear_462_3852" x1="13.4953" y1="12.5966" x2="13.4954" y2="12.5966" gradientUnits="userSpaceOnUse">
<stop stop-color="#682C90"/>
<stop offset="0.496" stop-color="#817CB9"/>
<stop offset="1" stop-color="white"/>
</linearGradient>
<linearGradient id="paint8_linear_462_3852" x1="41.1938" y1="18.7178" x2="24.872" y2="14.2268" gradientUnits="userSpaceOnUse">
<stop stop-color="#682C90"/>
<stop offset="0.496" stop-color="#817CB9"/>
<stop offset="1" stop-color="white"/>
</linearGradient>
<linearGradient id="paint9_linear_462_3852" x1="40.6621" y1="20.6504" x2="24.3403" y2="16.1595" gradientUnits="userSpaceOnUse">
<stop stop-color="#682C90"/>
<stop offset="0.496" stop-color="#817CB9"/>
<stop offset="1" stop-color="white"/>
</linearGradient>
<linearGradient id="paint10_linear_462_3852" x1="41.1114" y1="19.0183" x2="24.7896" y2="14.5273" gradientUnits="userSpaceOnUse">
<stop stop-color="#682C90"/>
<stop offset="0.496" stop-color="#817CB9"/>
<stop offset="1" stop-color="white"/>
</linearGradient>
<linearGradient id="paint11_linear_462_3852" x1="11.4266" y1="23.6932" x2="37.5674" y2="30.8859" gradientUnits="userSpaceOnUse">
<stop offset="0.1297" stop-color="#3B67AD"/>
<stop offset="0.5697" stop-color="#227CAA"/>
<stop offset="0.9352" stop-color="#118AA8"/>
</linearGradient>
<linearGradient id="paint12_linear_462_3852" x1="41.1543" y1="18.862" x2="24.8325" y2="14.3711" gradientUnits="userSpaceOnUse">
<stop stop-color="#682C90"/>
<stop offset="0.496" stop-color="#817CB9"/>
<stop offset="1" stop-color="white"/>
</linearGradient>
<linearGradient id="paint13_linear_462_3852" x1="12.0102" y1="17.6223" x2="44.2342" y2="26.4887" gradientUnits="userSpaceOnUse">
<stop offset="0.1297"/>
<stop offset="0.3277" stop-color="#00334B"/>
<stop offset="0.5276" stop-color="#006190"/>
<stop offset="0.6723" stop-color="#007FBB"/>
<stop offset="0.7457" stop-color="#008ACC"/>
</linearGradient>
<linearGradient id="paint14_linear_462_3852" x1="12.0102" y1="17.6223" x2="38.2286" y2="24.8362" gradientUnits="userSpaceOnUse">
<stop offset="0.1297" stop-color="#3A67B0"/>
<stop offset="0.5622" stop-color="#357FBD"/>
<stop offset="0.9352" stop-color="#3290C6"/>
</linearGradient>
<linearGradient id="paint15_linear_462_3852" x1="45.2575" y1="22.8227" x2="72.3748" y2="30.284" gradientUnits="userSpaceOnUse">
<stop offset="0.1724" stop-color="#4E5CA8"/>
<stop offset="0.9937" stop-color="#1FC3F3"/>
</linearGradient>
</defs>
</svg>
