<?xml version="1.0" encoding="utf-8"?>
<!-- Generator: Adobe Illustrator 27.0.0, SVG Export Plug-In . SVG Version: 6.00 Build 0)  -->
<svg version="1.1" id="Layer_1" xmlns="http://www.w3.org/2000/svg" xmlns:xlink="http://www.w3.org/1999/xlink" x="0px" y="0px"
	 viewBox="0 0 642.9 241.8" style="enable-background:new 0 0 642.9 241.8;" xml:space="preserve">
<style type="text/css">
	.st0{fill-rule:evenodd;clip-rule:evenodd;fill:#FFFFFF;}
	.st1{fill-rule:evenodd;clip-rule:evenodd;fill:url(#SVGID_1_);}
	.st2{fill-rule:evenodd;clip-rule:evenodd;fill:url(#SVGID_00000149371870476818584690000006448257656454548112_);}
	.st3{opacity:0.8;fill:url(#SVGID_00000011011266072121153380000015552350093255269791_);enable-background:new    ;}
	.st4{opacity:0.8;fill:url(#SVGID_00000103236783022810502450000015533197629888168090_);enable-background:new    ;}
	.st5{opacity:0.8;fill:url(#SVGID_00000038384760044672789500000001594583420837451424_);enable-background:new    ;}
	.st6{fill:url(#SVGID_00000040557530844215067230000007654687537933072810_);}
	.st7{opacity:0.8;fill:url(#SVGID_00000039099313953969019960000008746570048355054732_);enable-background:new    ;}
	.st8{opacity:0.3;fill:url(#SVGID_00000018935458336038749430000003615286010394417821_);enable-background:new    ;}
	.st9{opacity:0.3;fill:url(#SVGID_00000107562296480816457910000013951085699790221219_);enable-background:new    ;}
	.st10{opacity:0.3;fill:url(#SVGID_00000105412108407113214140000016716853659151139502_);enable-background:new    ;}
	.st11{opacity:0.3;fill:url(#SVGID_00000139263844206337017790000009388899194555761071_);enable-background:new    ;}
	.st12{fill:url(#SVGID_00000122714021998054651500000011365616856571265197_);}
	.st13{opacity:0.3;fill:url(#SVGID_00000124858670785445946220000007009110806791294357_);enable-background:new    ;}
	.st14{opacity:0.8;fill:url(#SVGID_00000105395364610584648600000010150254549643013802_);enable-background:new    ;}
	.st15{fill:url(#SVGID_00000151524633297836754760000001615220729286888352_);}
	.st16{fill-rule:evenodd;clip-rule:evenodd;fill:url(#SVGID_00000134942303198747179710000015238022876076488865_);}
	.st17{fill:#0D3C61;}
	.st18{fill:#30B99E;}
</style>
<g>
	<circle class="st0" cx="234.8" cy="89.1" r="5"/>
	
		<linearGradient id="SVGID_1_" gradientUnits="userSpaceOnUse" x1="286.0121" y1="953.3502" x2="126.0424" y2="966.2649" gradientTransform="matrix(1 0 0 1 0 -837)">
		<stop  offset="0.2986" style="stop-color:#0097CE"/>
		<stop  offset="0.3791" style="stop-color:#0999C5"/>
		<stop  offset="0.5119" style="stop-color:#229DAD"/>
		<stop  offset="0.6469" style="stop-color:#42A38F"/>
		<stop  offset="0.7352" style="stop-color:#5DAD82"/>
		<stop  offset="0.9239" style="stop-color:#A1C661"/>
		<stop  offset="1" style="stop-color:#BED153"/>
	</linearGradient>
	<path class="st1" d="M254.8,82.4c16.1-3.3,24.2-3.2,27.9-2.6c0.5,0.1,0.6,0.9-0.1,1c-0.9,0.1-2.1,0.2-3.4,0.3
		c-5.9,0.5-15,1.3-23.8,4.5c-1.8,0.7-3.6,1.4-5.3,2.2c-0.1,0.1-0.3,0.2-0.7,0.4c-0.3,0.1-0.6,0.3-0.9,0.5c-2.3,1.2-4.8,4.3-6.2,6.7
		l-15.4,26.2c-0.1,0.1-0.2,0.3-0.2,0.4c-3.2,5.5-15.4,26.3-38.4,37.1c-31,14.5-59.3,6.8-59.3,6.8s10.7-2.7,23.4-11.6
		c9.8-6.5,18.3-14.9,25-24.7c4.3-3.8,6.1-7.7,7.5-10.8c0.8-1.8,1.5-3.2,2.5-4.2c3.7-3.7,7.9-6.4,11.9-8.9c0.3-0.2,0.7-0.4,1-0.6
		c6.1-2.3,10.9-9.8,13.9-14.5c0.8-1.2,1.4-2.2,1.9-2.9c1.6-2.3,3.8-4.3,6.3-5.6c4.3-2.2,11.5-3.2,20.3-0.2c2,0.7,4.1,1.1,6.2,1.4
		C250.9,83,252.9,82.8,254.8,82.4z M237.4,89.1c0,1.4-1.1,2.6-2.6,2.6c-1.4,0-2.6-1.1-2.6-2.6s1.1-2.6,2.6-2.6
		C236.2,86.5,237.4,87.6,237.4,89.1z"/>
	
		<linearGradient id="SVGID_00000178165768931711281270000001696677542095266213_" gradientUnits="userSpaceOnUse" x1="118.1412" y1="911.722" x2="272.9439" y2="954.3159" gradientTransform="matrix(1 0 0 1 0 -837)">
		<stop  offset="8.199000e-02" style="stop-color:#3D65AF"/>
		<stop  offset="0.2305" style="stop-color:#2372B8"/>
		<stop  offset="0.5058" style="stop-color:#00B8BB"/>
	</linearGradient>
	<path style="fill-rule:evenodd;clip-rule:evenodd;fill:url(#SVGID_00000178165768931711281270000001696677542095266213_);" d="
		M254.8,82.4c16.1-3.3,24.2-3.2,27.9-2.6c0.1,0,0.2,0.1,0.3,0.2c0.1,0.1,0.1,0.2,0.1,0.3c0,0.1,0,0.2-0.1,0.3
		c-0.1,0.1-0.2,0.1-0.3,0.2c-0.2,0-0.5,0.1-0.7,0.1c-5.6,0.6-18,2.1-28.5,5.7c-0.8,0.3-1.2,0.4-1.6,0.5c-0.5,0.1-0.9,0.2-1.8,0.7
		c-0.1,0.1-0.3,0.2-0.7,0.4c-0.3,0.1-0.6,0.3-0.9,0.5c-2.3,1.2-4.8,4.3-6.2,6.7l-15.4,26.2c-1.3,2.3-2.8,4.5-4.4,6.7
		c-3.8,5-11.5,8-20.9,7.8c-6.5,0.1-13-1.3-18.9-4c-1.5-0.6-3.8-1.7-5.5-2.6l0,0c-0.9-0.5-2.1-1.3-2.4-1.5c-2.7-1.8-5.2-3.7-7.7-5.7
		c-2.1-1.6-3.9-3.3-5.9-5.2c-9.5-9.4-17.9-19.8-25-31.1c-1.5-2.4-3-4.8-4.3-7.1c-3.2-5.6-6.1-11.5-8.4-17.5
		c-0.9-2.4-0.7-3.8-0.5-4.3c0.3-1.5,1.5-2.5,3.4-1.9c4.5,1.7,8.6,3.3,12.6,5.1c9.2,4.5,18,9.7,26.3,15.6c3.4,2.2,7.4,5.3,11.5,8.5
		c7.3,6,14.8,12.7,23.3,20.8c6.1-2.3,10.9-9.8,13.9-14.5c0.8-1.2,1.4-2.2,1.9-2.9c1.6-2.3,3.8-4.3,6.3-5.6
		c4.4-2.4,11.3-3.2,20.3-0.2c2,0.7,4.1,1.1,6.2,1.4C250.9,83,252.9,82.8,254.8,82.4z M237.4,89.1c0,1.4-1.1,2.6-2.6,2.6
		c-1.4,0-2.6-1.1-2.6-2.6s1.1-2.6,2.6-2.6C236.2,86.5,237.4,87.6,237.4,89.1z"/>
	
		<linearGradient id="SVGID_00000008122404686065957650000006876115044160072065_" gradientUnits="userSpaceOnUse" x1="122.8069" y1="894.3244" x2="206.8829" y2="917.4581" gradientTransform="matrix(1 0 0 1 0 -837)">
		<stop  offset="0.1297" style="stop-color:#000000"/>
		<stop  offset="0.3277" style="stop-color:#00334B"/>
		<stop  offset="0.5276" style="stop-color:#006190"/>
		<stop  offset="0.6723" style="stop-color:#007FBB"/>
		<stop  offset="0.7457" style="stop-color:#008ACC"/>
	</linearGradient>
	<path style="opacity:0.8;fill:url(#SVGID_00000008122404686065957650000006876115044160072065_);enable-background:new    ;" d="
		M122.9,57.7c0-0.3,0.1-0.5,0-0.7C123,57.2,123,57.4,122.9,57.7z"/>
	
		<linearGradient id="SVGID_00000133531132949455464480000015602969814489198495_" gradientUnits="userSpaceOnUse" x1="123.6488" y1="891.2645" x2="207.7248" y2="914.3983" gradientTransform="matrix(1 0 0 1 0 -837)">
		<stop  offset="0.1297" style="stop-color:#000000"/>
		<stop  offset="0.3277" style="stop-color:#00334B"/>
		<stop  offset="0.5276" style="stop-color:#006190"/>
		<stop  offset="0.6723" style="stop-color:#007FBB"/>
		<stop  offset="0.7457" style="stop-color:#008ACC"/>
	</linearGradient>
	<path style="opacity:0.8;fill:url(#SVGID_00000133531132949455464480000015602969814489198495_);enable-background:new    ;" d="
		M130.1,56c-0.1-0.1-0.3-0.1-0.4-0.1c0.3,0.1,0.5,0.3,0.8,0.3C130.4,56.2,130.2,56.1,130.1,56z"/>
	
		<linearGradient id="SVGID_00000131353744545178144720000000263993883788560552_" gradientUnits="userSpaceOnUse" x1="123.5256" y1="891.7097" x2="207.6026" y2="914.8433" gradientTransform="matrix(1 0 0 1 0 -837)">
		<stop  offset="0.1297" style="stop-color:#000000"/>
		<stop  offset="0.3277" style="stop-color:#00334B"/>
		<stop  offset="0.5276" style="stop-color:#006190"/>
		<stop  offset="0.6723" style="stop-color:#007FBB"/>
		<stop  offset="0.7457" style="stop-color:#008ACC"/>
	</linearGradient>
	<path style="opacity:0.8;fill:url(#SVGID_00000131353744545178144720000000263993883788560552_);enable-background:new    ;" d="
		M132.7,57.2c-0.1,0-0.3-0.1-0.3-0.1c0.2,0.1,0.4,0.2,0.7,0.3C132.9,57.2,132.8,57.2,132.7,57.2z"/>
	
		<linearGradient id="SVGID_00000085941481742596553190000010354175085113157278_" gradientUnits="userSpaceOnUse" x1="131.608" y1="911.7256" x2="203.0396" y2="931.3798" gradientTransform="matrix(1 0 0 1 0 -837)">
		<stop  offset="0.1297" style="stop-color:#2483C5"/>
		<stop  offset="0.1672" style="stop-color:#2486C7"/>
		<stop  offset="0.676" style="stop-color:#29B1DF"/>
		<stop  offset="0.9352" style="stop-color:#2BC2E8"/>
	</linearGradient>
	<path style="fill:url(#SVGID_00000085941481742596553190000010354175085113157278_);" d="M182.9,106.4c5.8,0.9,11.7,0.3,17.3-1.7
		c-5.1-4.8-10-9.1-14.5-13.1c-2.3-2-4.5-3.9-6.7-5.7c-0.1-0.1-0.3-0.2-0.3-0.3c-0.6-0.5-1.1-0.9-1.6-1.4c-0.2-0.1-0.3-0.3-0.3-0.3
		c-4.1-3.2-8.1-6.2-11.4-8.5c-8.7-5.9-17.4-11.4-26.2-15.6c-0.8-0.4-1.5-0.7-2.4-1.1c-0.2-0.1-0.4-0.2-0.7-0.3
		C170.1,76.9,180.9,93.6,182.9,106.4z"/>
	
		<linearGradient id="SVGID_00000042738955125699849830000008237314079992493714_" gradientUnits="userSpaceOnUse" x1="121.7481" y1="898.1716" x2="205.8241" y2="921.3052" gradientTransform="matrix(1 0 0 1 0 -837)">
		<stop  offset="0.1297" style="stop-color:#000000"/>
		<stop  offset="0.3277" style="stop-color:#00334B"/>
		<stop  offset="0.5276" style="stop-color:#006190"/>
		<stop  offset="0.6723" style="stop-color:#007FBB"/>
		<stop  offset="0.7457" style="stop-color:#008ACC"/>
	</linearGradient>
	<path style="opacity:0.8;fill:url(#SVGID_00000042738955125699849830000008237314079992493714_);enable-background:new    ;" d="
		M124.2,62.6c-0.3-0.5-0.4-1.1-0.7-1.7C123.7,61.4,123.9,62,124.2,62.6z"/>
	
		<linearGradient id="SVGID_00000155859926103976531250000018334678242466480782_" gradientUnits="userSpaceOnUse" x1="122.9" y1="894.8" x2="123" y2="894.8" gradientTransform="matrix(1 0 0 1 0 -837)">
		<stop  offset="0" style="stop-color:#682C90"/>
		<stop  offset="0.496" style="stop-color:#817CB9"/>
		<stop  offset="1" style="stop-color:#FFFFFF"/>
	</linearGradient>
	<path style="opacity:0.3;fill:url(#SVGID_00000155859926103976531250000018334678242466480782_);enable-background:new    ;" d="
		M122.9,57.9c0-0.1,0-0.1,0.1-0.2C123,57.8,123,57.8,122.9,57.9z"/>
	
		<linearGradient id="SVGID_00000053520339727582594620000003220171159109421224_" gradientUnits="userSpaceOnUse" x1="195.1828" y1="910.8576" x2="152.5968" y2="899.1402" gradientTransform="matrix(1 0 0 1 0 -837)">
		<stop  offset="0" style="stop-color:#682C90"/>
		<stop  offset="0.496" style="stop-color:#817CB9"/>
		<stop  offset="1" style="stop-color:#FFFFFF"/>
	</linearGradient>
	<path style="opacity:0.3;fill:url(#SVGID_00000053520339727582594620000003220171159109421224_);enable-background:new    ;" d="
		M126.5,54.8c1.1,0.4,2.1,0.8,3.2,1.2C128.6,55.5,127.6,55.1,126.5,54.8z"/>
	
		<linearGradient id="SVGID_00000119836399132866577710000005234373267669748363_" gradientUnits="userSpaceOnUse" x1="193.8152" y1="915.8296" x2="151.2292" y2="904.1122" gradientTransform="matrix(1 0 0 1 0 -837)">
		<stop  offset="0" style="stop-color:#682C90"/>
		<stop  offset="0.496" style="stop-color:#817CB9"/>
		<stop  offset="1" style="stop-color:#FFFFFF"/>
	</linearGradient>
	<path style="opacity:0.3;fill:url(#SVGID_00000119836399132866577710000005234373267669748363_);enable-background:new    ;" d="
		M122.9,57.9c0,1,0.2,2,0.6,3C123.1,60,122.9,58.9,122.9,57.9z"/>
	
		<linearGradient id="SVGID_00000118379547150560946320000013883743804003537052_" gradientUnits="userSpaceOnUse" x1="194.9807" y1="911.5911" x2="152.3947" y2="899.8737" gradientTransform="matrix(1 0 0 1 0 -837)">
		<stop  offset="0" style="stop-color:#682C90"/>
		<stop  offset="0.496" style="stop-color:#817CB9"/>
		<stop  offset="1" style="stop-color:#FFFFFF"/>
	</linearGradient>
	<path style="opacity:0.3;fill:url(#SVGID_00000118379547150560946320000013883743804003537052_);enable-background:new    ;" d="
		M135.5,58.3l0.5,0.3c-0.9-0.4-2-0.9-3-1.3c0.3,0.2,0.6,0.3,0.9,0.4C134.5,57.9,135,58.1,135.5,58.3z"/>
	
		<linearGradient id="SVGID_00000055689113468918823520000000820335564581318836_" gradientUnits="userSpaceOnUse" x1="117.4638" y1="923.8189" x2="185.721" y2="942.5997" gradientTransform="matrix(1 0 0 1 0 -837)">
		<stop  offset="0.1297" style="stop-color:#3B67AD"/>
		<stop  offset="0.5697" style="stop-color:#227CAA"/>
		<stop  offset="0.9352" style="stop-color:#118AA8"/>
	</linearGradient>
	<path style="fill:url(#SVGID_00000055689113468918823520000000820335564581318836_);" d="M145.6,88.4c-9.1-7.4-17.8-17.6-21.5-25.7
		c8.5,21.6,30.8,52.3,50.6,65c0.3,0.3,1.5,0.9,2.5,1.5c2.6-3.9,7.3-12.1,5.6-22.7C170.7,104.8,157.5,98.1,145.6,88.4z"/>
	
		<linearGradient id="SVGID_00000181771196524075329580000018137231846322528427_" gradientUnits="userSpaceOnUse" x1="195.09" y1="911.1938" x2="152.505" y2="899.4764" gradientTransform="matrix(1 0 0 1 0 -837)">
		<stop  offset="0" style="stop-color:#682C90"/>
		<stop  offset="0.496" style="stop-color:#817CB9"/>
		<stop  offset="1" style="stop-color:#FFFFFF"/>
	</linearGradient>
	<path style="opacity:0.3;fill:url(#SVGID_00000181771196524075329580000018137231846322528427_);enable-background:new    ;" d="
		M132.4,57.1l-1.8-0.8c0.1,0,0.2,0.1,0.3,0.1C131.3,56.6,131.8,56.8,132.4,57.1z"/>
	
		<linearGradient id="SVGID_00000176045082327766738940000005009288902717696162_" gradientUnits="userSpaceOnUse" x1="119.1285" y1="907.9337" x2="203.2055" y2="931.0673" gradientTransform="matrix(1 0 0 1 0 -837)">
		<stop  offset="0.1297" style="stop-color:#000000"/>
		<stop  offset="0.3277" style="stop-color:#00334B"/>
		<stop  offset="0.5276" style="stop-color:#006190"/>
		<stop  offset="0.6723" style="stop-color:#007FBB"/>
		<stop  offset="0.7457" style="stop-color:#008ACC"/>
	</linearGradient>
	<path style="opacity:0.8;fill:url(#SVGID_00000176045082327766738940000005009288902717696162_);enable-background:new    ;" d="
		M145.6,88.4c11.9,9.7,25,16.2,37.3,17.9c-2-12.7-12.8-29.5-46.8-47.7c-0.2-0.1-0.4-0.2-0.5-0.3c-0.5-0.3-1-0.4-1.5-0.7
		c-0.3-0.2-0.6-0.3-0.9-0.4c-0.2-0.1-0.4-0.2-0.7-0.3c-0.5-0.3-1.1-0.5-1.6-0.6c-0.1,0-0.2-0.1-0.3-0.1c-0.3-0.1-0.5-0.3-0.8-0.3
		c-1-0.3-2.1-0.9-3.2-1.2c-2-0.6-3.1,0.3-3.5,1.8c0,0.2-0.1,0.3-0.1,0.5c-0.1,0.2,0,0.4,0,0.7c0,0.1,0,0.1-0.1,0.2c0,1,0.2,2,0.6,3
		c0.2,0.6,0.4,1.2,0.7,1.8C127.8,70.8,136.6,81.1,145.6,88.4z"/>
	
		<linearGradient id="SVGID_00000142150811976326591420000002678094202483899536_" gradientUnits="userSpaceOnUse" x1="119.1284" y1="907.9337" x2="187.5354" y2="926.7559" gradientTransform="matrix(1 0 0 1 0 -837)">
		<stop  offset="0.1297" style="stop-color:#3A67B0"/>
		<stop  offset="0.5622" style="stop-color:#357FBD"/>
		<stop  offset="0.9352" style="stop-color:#3290C6"/>
	</linearGradient>
	<path style="fill:url(#SVGID_00000142150811976326591420000002678094202483899536_);" d="M145.6,88.4c11.9,9.7,25,16.2,37.3,17.9
		c-2-12.7-12.8-29.5-46.8-47.7c-0.2-0.1-0.4-0.2-0.5-0.3c-0.5-0.3-1-0.4-1.5-0.7c-0.3-0.2-0.6-0.3-0.9-0.4c-0.2-0.1-0.4-0.2-0.7-0.3
		c-0.5-0.3-1.1-0.5-1.6-0.6c-0.1,0-0.2-0.1-0.3-0.1c-0.3-0.1-0.5-0.3-0.8-0.3c-1-0.3-2.1-0.9-3.2-1.2c-2-0.6-3.1,0.3-3.5,1.8
		c0,0.2-0.1,0.3-0.1,0.5c-0.1,0.2,0,0.4,0,0.7c0,0.1,0,0.1-0.1,0.2c0,1,0.2,2,0.6,3c0.2,0.6,0.4,1.2,0.7,1.8
		C127.8,70.8,136.6,81.1,145.6,88.4z"/>
	
		<linearGradient id="SVGID_00000012463759321748108340000007707829462796515751_" gradientUnits="userSpaceOnUse" x1="205.7745" y1="921.6055" x2="276.5265" y2="941.0726" gradientTransform="matrix(1 0 0 1 0 -837)">
		<stop  offset="0.1724" style="stop-color:#4E5CA8"/>
		<stop  offset="0.9937" style="stop-color:#1FC3F3"/>
	</linearGradient>
	<path style="fill-rule:evenodd;clip-rule:evenodd;fill:url(#SVGID_00000012463759321748108340000007707829462796515751_);" d="
		M254.8,82.4c16.1-3.3,24.2-3.2,27.9-2.6c0.5,0.1,0.6,0.9,0.2,1.2c-3.5,0.3-18.2,2.3-28,5.6c-3.9,1.2-7.4,3.4-10.2,6.3
		c-2,2.3-3.8,4.7-5.5,7.2c-1.6,2.4-6.8,9.7-15,12.5c-8.6,2.8-17.9-1.9-23.8-7.5c6.1-2.3,10.9-9.8,13.9-14.5c0.8-1.2,1.4-2.2,1.9-2.9
		c1.4-2,3.1-3.7,5.1-5c2.5-1.7,5.4-2.7,8.5-2.9c4.4-0.2,8.8,0.5,13,2c2,0.7,4.1,1.1,6.2,1.4C250.9,83,252.9,82.8,254.8,82.4z
		 M237.4,89.1c0,1.4-1.1,2.6-2.6,2.6c-1.4,0-2.6-1.1-2.6-2.6s1.1-2.6,2.6-2.6C236.2,86.5,237.4,87.6,237.4,89.1z"/>
	<path class="st17" d="M354.8,122.6c-4.5,0-8.9,1.8-12,5c-3.2,3.2-5,7.5-5,12v5.1c0,4.5,1.8,8.9,5,12c3.2,3.2,7.5,5,12,5h10.8v-6.2
		h-10.8c-2.8,0-5.4-1.1-7.4-3s-3.2-4.5-3.4-7.3h22.2c0.7,0,1.5-0.1,2.1-0.4c0.7-0.3,1.3-0.7,1.8-1.2s0.9-1.1,1.2-1.8
		c0.3-0.7,0.4-1.4,0.4-2.1c0-2.2-0.4-4.5-1.3-6.5c-0.9-2.1-2.1-4-3.7-5.6s-3.5-2.9-5.5-3.7C359.3,123,357,122.6,354.8,122.6z
		 M344,139c0.2-2.8,1.4-5.4,3.4-7.3c2-1.9,4.7-3,7.5-3s5.4,1.1,7.5,3c2,1.9,3.2,4.5,3.4,7.3H344z"/>
	<path class="st17" d="M263.6,116.4h4.5v-6.2h-4.5c-1.7,0-3.4,0.4-5,1c-1.6,0.7-3,1.7-4.2,2.9c-2.4,2.5-3.8,5.8-3.8,9.2v0.8H247v6.2
		h3.6v31.3h6.2v-31.3h8.3v-6.1h-8.3v-0.8C256.9,119.6,260,116.4,263.6,116.4z"/>
	<path class="st17" d="M284,110.2h-6.2v51.5h6.2V110.2z"/>
	<path class="st18" d="M490.7,122.6h-6.2v39h6.2V122.6z"/>
	<path class="st17" d="M321.5,145.8c0,2.6-1,5.1-2.9,6.9c-1.8,1.8-4.3,2.9-6.9,2.9s-5.1-1-6.9-2.9c-1.8-1.8-2.9-4.3-2.9-6.9v-23.2
		h-6.1v23.2c0,4.2,1.7,8.3,4.7,11.3s7,4.7,11.3,4.7c4.2,0,8.3-1.7,11.3-4.7s4.7-7,4.7-11.3v-23.2h-6.2v23.2H321.5z"/>
	<path class="st17" d="M393.9,122.6c-4.2,0-8.3,1.7-11.2,4.7c-2.9,3-4.7,7-4.7,11.2v23.2h6.2v-23.2c0-2.6,1-5.1,2.9-6.9
		c1.8-1.8,4.3-2.9,6.9-2.9s5.1,1,6.9,2.9c1.8,1.8,2.9,4.3,2.9,6.9v23.2h6.2v-23.2c-0.1-4.2-1.8-8.3-4.8-11.2
		C402.2,124.3,398.1,122.6,393.9,122.6z"/>
	<path class="st17" d="M427.6,148.5v-19.7h8.3v-6.1h-8.3v-12.4h-6.1v12.4H416v6.2h5.5v19.7c0,3.4,1.4,6.7,3.8,9.1
		c2.4,2.4,5.7,3.8,9.1,3.8h2.7v-6.2h-2.7c-1.8,0-3.5-0.7-4.8-2C428.3,152,427.6,150.3,427.6,148.5z"/>
	<path class="st18" d="M510.7,148.5v-19.7h8.3v-6.1h-8.3v-12.4h-6.2v12.4H499v6.2h5.4v19.7c0,3.4,1.4,6.7,3.8,9.1
		c2.4,2.4,5.7,3.8,9.1,3.8h2.7v-6.2h-2.7c-1.8,0-3.5-0.7-4.7-2C511.4,152,510.7,150.3,510.7,148.5z"/>
	<path class="st18" d="M450.1,110.2V126c2.8-2.2,6.2-3.4,9.8-3.3c4.2,0,8.3,1.7,11.2,4.7c3,3,4.7,7,4.7,11.2v7.2
		c0,4.2-1.7,8.3-4.7,11.3s-7,4.7-11.2,4.7s-8.3-1.7-11.2-4.7c-3-3-4.7-7-4.7-11.3v-35.6C444,110.2,450.1,110.2,450.1,110.2z
		 M450.1,142v3.8c0,2.6,1,5.1,2.9,6.9c1.8,1.8,4.3,2.9,6.9,2.9s5.1-1,6.9-2.9c1.8-1.8,2.9-4.3,2.9-6.9v-7.2c0-2.6-1-5.1-2.9-6.9
		c-1.8-1.8-4.3-2.9-6.9-2.9s-5.1,1-6.9,2.9c-1.8,1.8-2.9,4.3-2.9,6.9V142z"/>
</g>
</svg>
