<?xml version="1.0" encoding="utf-8"?>
<!-- Generator: Adobe Illustrator 27.0.0, SVG Export Plug-In . SVG Version: 6.00 Build 0)  -->
<svg version="1.1" id="Layer_1" xmlns="http://www.w3.org/2000/svg" xmlns:xlink="http://www.w3.org/1999/xlink" x="0px" y="0px"
	 viewBox="0 0 642.9 241.8" style="enable-background:new 0 0 642.9 241.8;" xml:space="preserve">
<style type="text/css">
	.st0{fill-rule:evenodd;clip-rule:evenodd;fill:#FFFFFF;}
	.st1{fill-rule:evenodd;clip-rule:evenodd;fill:url(#SVGID_1_);}
	.st2{fill-rule:evenodd;clip-rule:evenodd;fill:url(#SVGID_00000134236683356823514660000007101744883113559424_);}
	.st3{opacity:0.8;fill:url(#SVGID_00000182493578781782325260000012803499436197990067_);enable-background:new    ;}
	.st4{opacity:0.8;fill:url(#SVGID_00000156589126327307922620000001052321279976106384_);enable-background:new    ;}
	.st5{opacity:0.8;fill:url(#SVGID_00000098206271432879788220000018349355799040657041_);enable-background:new    ;}
	.st6{fill:url(#SVGID_00000138567905705411535830000004872377482456331159_);}
	.st7{opacity:0.8;fill:url(#SVGID_00000170977739069225636450000007319091894694813847_);enable-background:new    ;}
	.st8{opacity:0.3;fill:url(#SVGID_00000023271382453889288870000012421900274869498506_);enable-background:new    ;}
	.st9{opacity:0.3;fill:url(#SVGID_00000155108105765594347330000006410992457978168480_);enable-background:new    ;}
	.st10{opacity:0.3;fill:url(#SVGID_00000139294943420774639040000014221112743006116234_);enable-background:new    ;}
	.st11{opacity:0.3;fill:url(#SVGID_00000016067806086106201200000012496752483200642189_);enable-background:new    ;}
	.st12{fill:url(#SVGID_00000078748002631356485710000015605662618456358813_);}
	.st13{opacity:0.3;fill:url(#SVGID_00000179634058292972469500000009458835165248905362_);enable-background:new    ;}
	.st14{opacity:0.8;fill:url(#SVGID_00000008116438363640003880000015167151830640252289_);enable-background:new    ;}
	.st15{fill:url(#SVGID_00000023261540884997954980000017073749055389710481_);}
	.st16{fill-rule:evenodd;clip-rule:evenodd;fill:url(#SVGID_00000081610507891881157990000000062584014479091107_);}
	.st17{fill:#FFFFFF;}
	.st18{fill:#30B99E;}
</style>
<g>
	<circle class="st0" cx="234.8" cy="89.1" r="3.7"/>
	
		<linearGradient id="SVGID_1_" gradientUnits="userSpaceOnUse" x1="286.0121" y1="-709.6855" x2="126.0424" y2="-722.6002" gradientTransform="matrix(1 0 0 -1 0 -593.3353)">
		<stop  offset="0.2986" style="stop-color:#0097CE"/>
		<stop  offset="0.3791" style="stop-color:#0999C5"/>
		<stop  offset="0.5119" style="stop-color:#229DAD"/>
		<stop  offset="0.6469" style="stop-color:#42A38F"/>
		<stop  offset="0.7352" style="stop-color:#5DAD82"/>
		<stop  offset="0.9239" style="stop-color:#A1C661"/>
		<stop  offset="1" style="stop-color:#BED153"/>
	</linearGradient>
	<path class="st1" d="M254.8,82.4c16.1-3.3,24.2-3.2,27.9-2.6c0.5,0.1,0.6,0.9-0.1,1c-0.9,0.1-2.1,0.2-3.4,0.3
		c-5.9,0.5-15,1.3-23.8,4.5c-1.8,0.7-3.6,1.4-5.3,2.2c-0.1,0.1-0.3,0.2-0.7,0.4c-0.3,0.1-0.6,0.3-0.9,0.5c-2.3,1.2-4.8,4.3-6.2,6.7
		l-15.4,26.2c-0.1,0.1-0.2,0.3-0.2,0.4c-3.2,5.5-15.4,26.3-38.4,37.1c-31,14.5-59.3,6.8-59.3,6.8s10.7-2.7,23.4-11.6
		c9.8-6.5,18.3-14.9,25-24.7c4.3-3.8,6.1-7.7,7.5-10.8c0.8-1.8,1.5-3.2,2.5-4.2c3.7-3.7,7.9-6.4,11.9-8.9c0.3-0.2,0.7-0.4,1-0.6
		c6.1-2.3,10.9-9.8,13.9-14.5c0.8-1.2,1.4-2.2,1.9-2.9c1.6-2.3,3.8-4.3,6.3-5.6c4.3-2.2,11.5-3.2,20.3-0.2c2,0.7,4.1,1.1,6.2,1.4
		C250.9,83,252.9,82.8,254.8,82.4z M237.4,89.1c0,1.4-1.1,2.6-2.6,2.6c-1.4,0-2.6-1.1-2.6-2.6c0-1.4,1.1-2.6,2.6-2.6
		C236.2,86.5,237.4,87.6,237.4,89.1z"/>
	
		<linearGradient id="SVGID_00000182488875304911266180000010443631218967404425_" gradientUnits="userSpaceOnUse" x1="118.1412" y1="-668.057" x2="272.9438" y2="-710.6513" gradientTransform="matrix(1 0 0 -1 0 -593.3353)">
		<stop  offset="8.199000e-02" style="stop-color:#3D65AF"/>
		<stop  offset="0.2305" style="stop-color:#2372B8"/>
		<stop  offset="0.5058" style="stop-color:#00B8BB"/>
	</linearGradient>
	<path style="fill-rule:evenodd;clip-rule:evenodd;fill:url(#SVGID_00000182488875304911266180000010443631218967404425_);" d="
		M254.8,82.4c16.1-3.3,24.2-3.2,27.9-2.6c0.1,0,0.2,0.1,0.3,0.2c0.1,0.1,0.1,0.2,0.1,0.3c0,0.1,0,0.2-0.1,0.3
		c-0.1,0.1-0.2,0.1-0.3,0.2c-0.2,0-0.5,0.1-0.7,0.1c-5.6,0.6-18,2.1-28.5,5.7c-0.8,0.3-1.2,0.4-1.6,0.5c-0.5,0.1-0.9,0.2-1.8,0.7
		c-0.1,0.1-0.3,0.2-0.7,0.4c-0.3,0.1-0.6,0.3-0.9,0.5c-2.3,1.2-4.8,4.3-6.2,6.7l-15.4,26.2c-1.3,2.3-2.8,4.5-4.4,6.7
		c-3.8,5-11.5,8-20.9,7.8c-6.5,0.1-13-1.3-18.9-4c-1.5-0.6-3.8-1.7-5.5-2.6l0,0c-0.9-0.5-2.1-1.3-2.4-1.5c-2.7-1.8-5.2-3.7-7.7-5.7
		c-2.1-1.6-3.9-3.3-5.9-5.2c-9.5-9.4-17.9-19.8-25-31.1c-1.5-2.4-3-4.8-4.3-7.1c-3.2-5.6-6.1-11.5-8.4-17.5
		c-0.9-2.4-0.7-3.8-0.5-4.3c0.3-1.5,1.5-2.5,3.4-1.9c4.5,1.7,8.6,3.3,12.6,5.1c9.2,4.5,18,9.7,26.3,15.6c3.4,2.2,7.4,5.3,11.5,8.5
		c7.3,6,14.8,12.7,23.3,20.8c6.1-2.3,10.9-9.8,13.9-14.5c0.8-1.2,1.4-2.2,1.9-2.9c1.6-2.3,3.8-4.3,6.3-5.6
		c4.4-2.4,11.3-3.2,20.3-0.2c2,0.7,4.1,1.1,6.2,1.4C250.9,83,252.9,82.8,254.8,82.4z M237.4,89.1c0,1.4-1.1,2.6-2.6,2.6
		c-1.4,0-2.6-1.1-2.6-2.6c0-1.4,1.1-2.6,2.6-2.6C236.2,86.5,237.4,87.6,237.4,89.1z"/>
	
		<linearGradient id="SVGID_00000150825159799913953850000003871734045752409990_" gradientUnits="userSpaceOnUse" x1="122.8069" y1="-650.6597" x2="206.8829" y2="-673.7934" gradientTransform="matrix(1 0 0 -1 0 -593.3353)">
		<stop  offset="0.1297" style="stop-color:#000000"/>
		<stop  offset="0.3277" style="stop-color:#00334B"/>
		<stop  offset="0.5276" style="stop-color:#006190"/>
		<stop  offset="0.6723" style="stop-color:#007FBB"/>
		<stop  offset="0.7457" style="stop-color:#008ACC"/>
	</linearGradient>
	<path style="opacity:0.8;fill:url(#SVGID_00000150825159799913953850000003871734045752409990_);enable-background:new    ;" d="
		M122.9,57.7c0-0.3,0.1-0.5,0-0.7C123,57.2,123,57.4,122.9,57.7z"/>
	
		<linearGradient id="SVGID_00000136385251523552433360000018419147488039752844_" gradientUnits="userSpaceOnUse" x1="123.6488" y1="-647.5999" x2="207.7248" y2="-670.7335" gradientTransform="matrix(1 0 0 -1 0 -593.3353)">
		<stop  offset="0.1297" style="stop-color:#000000"/>
		<stop  offset="0.3277" style="stop-color:#00334B"/>
		<stop  offset="0.5276" style="stop-color:#006190"/>
		<stop  offset="0.6723" style="stop-color:#007FBB"/>
		<stop  offset="0.7457" style="stop-color:#008ACC"/>
	</linearGradient>
	<path style="opacity:0.8;fill:url(#SVGID_00000136385251523552433360000018419147488039752844_);enable-background:new    ;" d="
		M130.1,56c-0.1-0.1-0.3-0.1-0.4-0.1c0.3,0.1,0.5,0.3,0.8,0.3C130.4,56.2,130.2,56.1,130.1,56z"/>
	
		<linearGradient id="SVGID_00000021828642171844602380000012691441216476337543_" gradientUnits="userSpaceOnUse" x1="123.5256" y1="-648.045" x2="207.6026" y2="-671.1785" gradientTransform="matrix(1 0 0 -1 0 -593.3353)">
		<stop  offset="0.1297" style="stop-color:#000000"/>
		<stop  offset="0.3277" style="stop-color:#00334B"/>
		<stop  offset="0.5276" style="stop-color:#006190"/>
		<stop  offset="0.6723" style="stop-color:#007FBB"/>
		<stop  offset="0.7457" style="stop-color:#008ACC"/>
	</linearGradient>
	<path style="opacity:0.8;fill:url(#SVGID_00000021828642171844602380000012691441216476337543_);enable-background:new    ;" d="
		M132.7,57.2c-0.1,0-0.3-0.1-0.3-0.1c0.2,0.1,0.4,0.2,0.7,0.3C132.9,57.2,132.8,57.2,132.7,57.2z"/>
	
		<linearGradient id="SVGID_00000041984072957115312840000003768860337568202686_" gradientUnits="userSpaceOnUse" x1="131.6081" y1="-668.061" x2="203.0396" y2="-687.7151" gradientTransform="matrix(1 0 0 -1 0 -593.3353)">
		<stop  offset="0.1297" style="stop-color:#2483C5"/>
		<stop  offset="0.1672" style="stop-color:#2486C7"/>
		<stop  offset="0.676" style="stop-color:#29B1DF"/>
		<stop  offset="0.9352" style="stop-color:#2BC2E8"/>
	</linearGradient>
	<path style="fill:url(#SVGID_00000041984072957115312840000003768860337568202686_);" d="M182.9,106.4c5.8,0.9,11.7,0.3,17.3-1.7
		c-5.1-4.8-10-9.1-14.5-13.1c-2.3-2-4.5-3.9-6.7-5.7c-0.1-0.1-0.3-0.2-0.3-0.3c-0.6-0.5-1.1-0.9-1.6-1.4c-0.2-0.1-0.3-0.3-0.3-0.3
		c-4.1-3.2-8.1-6.2-11.4-8.5c-8.7-5.9-17.4-11.4-26.2-15.6c-0.8-0.4-1.5-0.7-2.4-1.1c-0.2-0.1-0.4-0.2-0.7-0.3
		C170.1,76.9,180.9,93.6,182.9,106.4z"/>
	
		<linearGradient id="SVGID_00000031922759707923601830000005356927019770817187_" gradientUnits="userSpaceOnUse" x1="121.7481" y1="-654.507" x2="205.8241" y2="-677.6406" gradientTransform="matrix(1 0 0 -1 0 -593.3353)">
		<stop  offset="0.1297" style="stop-color:#000000"/>
		<stop  offset="0.3277" style="stop-color:#00334B"/>
		<stop  offset="0.5276" style="stop-color:#006190"/>
		<stop  offset="0.6723" style="stop-color:#007FBB"/>
		<stop  offset="0.7457" style="stop-color:#008ACC"/>
	</linearGradient>
	<path style="opacity:0.8;fill:url(#SVGID_00000031922759707923601830000005356927019770817187_);enable-background:new    ;" d="
		M124.2,62.6c-0.3-0.5-0.4-1.1-0.7-1.7C123.7,61.4,123.9,62,124.2,62.6z"/>
	
		<linearGradient id="SVGID_00000167361236492256360150000006281097676434370949_" gradientUnits="userSpaceOnUse" x1="122.9" y1="-651.1353" x2="123" y2="-651.1353" gradientTransform="matrix(1 0 0 -1 0 -593.3353)">
		<stop  offset="0" style="stop-color:#682C90"/>
		<stop  offset="0.496" style="stop-color:#817CB9"/>
		<stop  offset="1" style="stop-color:#FFFFFF"/>
	</linearGradient>
	<path style="opacity:0.3;fill:url(#SVGID_00000167361236492256360150000006281097676434370949_);enable-background:new    ;" d="
		M122.9,57.9c0-0.1,0-0.1,0.1-0.2C123,57.8,123,57.8,122.9,57.9z"/>
	
		<linearGradient id="SVGID_00000078047037242734597580000014060597772677208712_" gradientUnits="userSpaceOnUse" x1="195.1828" y1="-667.1929" x2="152.5968" y2="-655.4755" gradientTransform="matrix(1 0 0 -1 0 -593.3353)">
		<stop  offset="0" style="stop-color:#682C90"/>
		<stop  offset="0.496" style="stop-color:#817CB9"/>
		<stop  offset="1" style="stop-color:#FFFFFF"/>
	</linearGradient>
	<path style="opacity:0.3;fill:url(#SVGID_00000078047037242734597580000014060597772677208712_);enable-background:new    ;" d="
		M126.5,54.8c1.1,0.4,2.1,0.8,3.2,1.2C128.6,55.5,127.6,55.1,126.5,54.8z"/>
	
		<linearGradient id="SVGID_00000054973205396778460620000000530009890427193791_" gradientUnits="userSpaceOnUse" x1="193.8152" y1="-672.165" x2="151.2292" y2="-660.4475" gradientTransform="matrix(1 0 0 -1 0 -593.3353)">
		<stop  offset="0" style="stop-color:#682C90"/>
		<stop  offset="0.496" style="stop-color:#817CB9"/>
		<stop  offset="1" style="stop-color:#FFFFFF"/>
	</linearGradient>
	<path style="opacity:0.3;fill:url(#SVGID_00000054973205396778460620000000530009890427193791_);enable-background:new    ;" d="
		M122.9,57.9c0,1,0.2,2,0.6,3C123.1,60,122.9,58.9,122.9,57.9z"/>
	
		<linearGradient id="SVGID_00000013893929160242108760000017877005478920905379_" gradientUnits="userSpaceOnUse" x1="194.9807" y1="-667.9264" x2="152.3947" y2="-656.209" gradientTransform="matrix(1 0 0 -1 0 -593.3353)">
		<stop  offset="0" style="stop-color:#682C90"/>
		<stop  offset="0.496" style="stop-color:#817CB9"/>
		<stop  offset="1" style="stop-color:#FFFFFF"/>
	</linearGradient>
	<path style="opacity:0.3;fill:url(#SVGID_00000013893929160242108760000017877005478920905379_);enable-background:new    ;" d="
		M135.5,58.3l0.5,0.3c-0.9-0.4-2-0.9-3-1.3c0.3,0.2,0.6,0.3,0.9,0.4C134.5,57.9,135,58.1,135.5,58.3z"/>
	
		<linearGradient id="SVGID_00000082352219802079393100000000507102976866724019_" gradientUnits="userSpaceOnUse" x1="117.4637" y1="-680.1541" x2="185.7211" y2="-698.9351" gradientTransform="matrix(1 0 0 -1 0 -593.3353)">
		<stop  offset="0.1297" style="stop-color:#3B67AD"/>
		<stop  offset="0.5697" style="stop-color:#227CAA"/>
		<stop  offset="0.9352" style="stop-color:#118AA8"/>
	</linearGradient>
	<path style="fill:url(#SVGID_00000082352219802079393100000000507102976866724019_);" d="M145.6,88.4c-9.1-7.4-17.8-17.6-21.5-25.7
		c8.5,21.6,30.8,52.3,50.6,65c0.3,0.3,1.5,0.9,2.5,1.5c2.6-3.9,7.3-12.1,5.6-22.7C170.7,104.8,157.5,98.1,145.6,88.4z"/>
	
		<linearGradient id="SVGID_00000183963841367178155210000010269775473663563929_" gradientUnits="userSpaceOnUse" x1="195.09" y1="-667.5293" x2="152.5049" y2="-655.8118" gradientTransform="matrix(1 0 0 -1 0 -593.3353)">
		<stop  offset="0" style="stop-color:#682C90"/>
		<stop  offset="0.496" style="stop-color:#817CB9"/>
		<stop  offset="1" style="stop-color:#FFFFFF"/>
	</linearGradient>
	<path style="opacity:0.3;fill:url(#SVGID_00000183963841367178155210000010269775473663563929_);enable-background:new    ;" d="
		M132.4,57.1l-1.8-0.8c0.1,0,0.2,0.1,0.3,0.1C131.3,56.6,131.8,56.8,132.4,57.1z"/>
	
		<linearGradient id="SVGID_00000158710555159068735200000011269718045153142688_" gradientUnits="userSpaceOnUse" x1="119.1284" y1="-664.269" x2="203.2054" y2="-687.4027" gradientTransform="matrix(1 0 0 -1 0 -593.3353)">
		<stop  offset="0.1297" style="stop-color:#000000"/>
		<stop  offset="0.3277" style="stop-color:#00334B"/>
		<stop  offset="0.5276" style="stop-color:#006190"/>
		<stop  offset="0.6723" style="stop-color:#007FBB"/>
		<stop  offset="0.7457" style="stop-color:#008ACC"/>
	</linearGradient>
	<path style="opacity:0.8;fill:url(#SVGID_00000158710555159068735200000011269718045153142688_);enable-background:new    ;" d="
		M145.6,88.4c11.9,9.7,25,16.2,37.3,17.9c-2-12.7-12.8-29.5-46.8-47.7c-0.2-0.1-0.4-0.2-0.5-0.3c-0.5-0.3-1-0.4-1.5-0.7
		c-0.3-0.2-0.6-0.3-0.9-0.4c-0.2-0.1-0.4-0.2-0.7-0.3c-0.5-0.3-1.1-0.5-1.6-0.6c-0.1,0-0.2-0.1-0.3-0.1c-0.3-0.1-0.5-0.3-0.8-0.3
		c-1-0.3-2.1-0.9-3.2-1.2c-2-0.6-3.1,0.3-3.5,1.8c0,0.2-0.1,0.3-0.1,0.5c-0.1,0.2,0,0.4,0,0.7c0,0.1,0,0.1-0.1,0.2c0,1,0.2,2,0.6,3
		c0.2,0.6,0.4,1.2,0.7,1.8C127.8,70.8,136.6,81.1,145.6,88.4z"/>
	
		<linearGradient id="SVGID_00000019657459222264291440000003743404577944989611_" gradientUnits="userSpaceOnUse" x1="119.1284" y1="-664.269" x2="187.5353" y2="-683.0911" gradientTransform="matrix(1 0 0 -1 0 -593.3353)">
		<stop  offset="0.1297" style="stop-color:#3A67B0"/>
		<stop  offset="0.5622" style="stop-color:#357FBD"/>
		<stop  offset="0.9352" style="stop-color:#3290C6"/>
	</linearGradient>
	<path style="fill:url(#SVGID_00000019657459222264291440000003743404577944989611_);" d="M145.6,88.4c11.9,9.7,25,16.2,37.3,17.9
		c-2-12.7-12.8-29.5-46.8-47.7c-0.2-0.1-0.4-0.2-0.5-0.3c-0.5-0.3-1-0.4-1.5-0.7c-0.3-0.2-0.6-0.3-0.9-0.4c-0.2-0.1-0.4-0.2-0.7-0.3
		c-0.5-0.3-1.1-0.5-1.6-0.6c-0.1,0-0.2-0.1-0.3-0.1c-0.3-0.1-0.5-0.3-0.8-0.3c-1-0.3-2.1-0.9-3.2-1.2c-2-0.6-3.1,0.3-3.5,1.8
		c0,0.2-0.1,0.3-0.1,0.5c-0.1,0.2,0,0.4,0,0.7c0,0.1,0,0.1-0.1,0.2c0,1,0.2,2,0.6,3c0.2,0.6,0.4,1.2,0.7,1.8
		C127.8,70.8,136.6,81.1,145.6,88.4z"/>
	
		<linearGradient id="SVGID_00000035532926027864353190000001598601471477135010_" gradientUnits="userSpaceOnUse" x1="205.7745" y1="-677.9407" x2="276.5265" y2="-697.4081" gradientTransform="matrix(1 0 0 -1 0 -593.3353)">
		<stop  offset="0.1724" style="stop-color:#4E5CA8"/>
		<stop  offset="0.9937" style="stop-color:#1FC3F3"/>
	</linearGradient>
	<path style="fill-rule:evenodd;clip-rule:evenodd;fill:url(#SVGID_00000035532926027864353190000001598601471477135010_);" d="
		M254.8,82.4c16.1-3.3,24.2-3.2,27.9-2.6c0.5,0.1,0.6,0.9,0.2,1.2c-3.5,0.3-18.2,2.3-28,5.6c-3.9,1.2-7.4,3.4-10.2,6.3
		c-2,2.3-3.8,4.7-5.5,7.2c-1.6,2.4-6.8,9.7-15,12.5c-8.6,2.8-17.9-1.9-23.8-7.5c6.1-2.3,10.9-9.8,13.9-14.5c0.8-1.2,1.4-2.2,1.9-2.9
		c1.4-2,3.1-3.7,5.1-5c2.5-1.7,5.4-2.7,8.5-2.9c4.4-0.2,8.8,0.5,13,2c2,0.7,4.1,1.1,6.2,1.4C250.9,83,252.9,82.8,254.8,82.4z
		 M237.4,89.1c0,1.4-1.1,2.6-2.6,2.6c-1.4,0-2.6-1.1-2.6-2.6c0-1.4,1.1-2.6,2.6-2.6C236.2,86.5,237.4,87.6,237.4,89.1z"/>
	<path class="st17" d="M354.8,122.6c-4.5,0-8.9,1.8-12,5c-3.2,3.2-5,7.5-5,12v5.1c0,4.5,1.8,8.9,5,12c3.2,3.2,7.5,5,12,5h10.8v-6.2
		h-10.8c-2.8,0-5.4-1.1-7.4-3s-3.2-4.5-3.4-7.3h22.2c0.7,0,1.5-0.1,2.1-0.4c0.7-0.3,1.3-0.7,1.8-1.2s0.9-1.1,1.2-1.8
		c0.3-0.7,0.4-1.4,0.4-2.1c0-2.2-0.4-4.5-1.3-6.5c-0.9-2.1-2.1-4-3.7-5.6s-3.5-2.9-5.5-3.7C359.3,123,357,122.6,354.8,122.6z
		 M344,139c0.2-2.8,1.4-5.4,3.4-7.3c2-1.9,4.7-3,7.5-3s5.4,1.1,7.5,3c2,1.9,3.2,4.5,3.4,7.3H344z"/>
	<path class="st17" d="M263.6,116.4h4.5v-6.2h-4.5c-1.7,0-3.4,0.4-5,1c-1.6,0.7-3,1.7-4.2,2.9c-2.4,2.5-3.8,5.8-3.8,9.2v0.8H247v6.2
		h3.6v31.3h6.2v-31.3h8.3v-6.1h-8.3v-0.8C256.9,119.6,260,116.4,263.6,116.4z"/>
	<path class="st17" d="M284,110.2h-6.2v51.5h6.2V110.2z"/>
	<path class="st18" d="M490.7,122.6h-6.2v39h6.2V122.6z"/>
	<path class="st17" d="M321.5,145.8c0,2.6-1,5.1-2.9,6.9c-1.8,1.8-4.3,2.9-6.9,2.9s-5.1-1-6.9-2.9c-1.8-1.8-2.9-4.3-2.9-6.9v-23.2
		h-6.1v23.2c0,4.2,1.7,8.3,4.7,11.3s7,4.7,11.3,4.7c4.2,0,8.3-1.7,11.3-4.7s4.7-7,4.7-11.3v-23.2h-6.2v23.2H321.5z"/>
	<path class="st17" d="M393.9,122.6c-4.2,0-8.3,1.7-11.2,4.7c-3,3-4.7,7-4.7,11.2v23.2h6.2v-23.2c0-2.6,1-5.1,2.9-6.9
		c1.8-1.8,4.3-2.9,6.9-2.9s5.1,1,6.9,2.9c1.8,1.8,2.9,4.3,2.9,6.9v23.2h6.2v-23.2c-0.1-4.2-1.8-8.3-4.8-11.2
		C402.2,124.3,398.1,122.6,393.9,122.6z"/>
	<path class="st17" d="M427.6,148.5v-19.7h8.3v-6.1h-8.3v-12.4h-6.1v12.4H416v6.2h5.5v19.7c0,3.4,1.4,6.7,3.8,9.1
		c2.4,2.4,5.7,3.8,9.1,3.8h2.7v-6.2h-2.7c-1.8,0-3.5-0.7-4.8-2C428.3,152,427.6,150.3,427.6,148.5z"/>
	<path class="st18" d="M510.7,148.5v-19.7h8.3v-6.1h-8.3v-12.4h-6.2v12.4H499v6.2h5.4v19.7c0,3.4,1.4,6.7,3.8,9.1
		c2.4,2.4,5.7,3.8,9.1,3.8h2.7v-6.2h-2.7c-1.8,0-3.5-0.7-4.7-2C511.4,152,510.7,150.3,510.7,148.5z"/>
	<path class="st18" d="M450.1,110.2V126c2.8-2.2,6.2-3.4,9.8-3.3c4.2,0,8.3,1.7,11.2,4.7c3,3,4.7,7,4.7,11.2v7.2
		c0,4.2-1.7,8.3-4.7,11.3s-7,4.7-11.2,4.7s-8.3-1.7-11.2-4.7c-3-3-4.7-7-4.7-11.3v-35.6C444,110.2,450.1,110.2,450.1,110.2z
		 M450.1,142v3.8c0,2.6,1,5.1,2.9,6.9c1.8,1.8,4.3,2.9,6.9,2.9s5.1-1,6.9-2.9c1.8-1.8,2.9-4.3,2.9-6.9v-7.2c0-2.6-1-5.1-2.9-6.9
		c-1.8-1.8-4.3-2.9-6.9-2.9s-5.1,1-6.9,2.9c-1.8,1.8-2.9,4.3-2.9,6.9V142z"/>
</g>
</svg>
