<svg width="72" height="83" viewBox="0 0 72 83" fill="none" xmlns="http://www.w3.org/2000/svg">
<path d="M27.3971 33.4515C30.0819 35.726 31.8691 37.3646 32.2435 39.212C32.6426 29.7552 37.4327 25.1426 42.9803 23.0016C39.1127 22.0658 36.1846 21.81 34.1499 22.4932C33.9079 22.5896 33.6682 22.6871 33.4149 22.7768C32.6167 23.0599 31.8035 23.3038 30.9851 23.5225C30.3254 23.6988 29.6626 23.8613 28.998 23.9933C26.3617 24.517 23.7394 24.68 21.223 24.493C20.6141 24.4478 20.013 24.3776 19.418 24.2915C19.69 24.8519 19.9903 25.381 20.3051 25.893C22.2745 29.0962 24.9891 31.4115 27.3971 33.4515Z" fill="url(#paint0_linear_462_3886)"/>
<path d="M32.2501 39.2122C31.8755 37.3645 30.0885 35.7262 27.4037 33.4516C24.9957 31.4117 22.2813 29.0964 20.3115 25.8933C19.9968 25.3813 19.6964 24.8523 19.4244 24.2918C16.8508 23.9198 14.4154 23.1722 12.2266 22.0516L11.0815 21.4656L11.1502 22.7549C11.3652 26.7841 15.8246 34.099 22.5978 36.8584C27.612 38.473 31.0348 39.7816 31.6123 40.9839C31.6997 41.165 31.8465 41.501 31.6739 41.9581C31.4522 42.53 32.0378 41.6049 32.2161 40.79C32.2109 40.2461 32.2283 39.7267 32.2501 39.2122Z" fill="url(#paint1_linear_462_3886)"/>
<path d="M29.0043 23.9933C29.6689 23.8613 30.3318 23.6988 30.9914 23.5225C31.8098 23.304 32.623 23.0599 33.4212 22.7768C33.6745 22.687 33.9144 22.5895 34.1562 22.4932C29.5743 22.083 24.3502 20.5735 18.8613 14.5715L17.629 13.2238L17.5753 15.0527C17.4647 18.792 18.2115 21.7934 19.4241 24.2915C20.0193 24.3776 20.6204 24.4478 21.2292 24.493C23.7457 24.68 26.368 24.517 29.0043 23.9933Z" fill="url(#paint2_linear_462_3886)"/>
<path d="M47.9721 32.7269L48.1045 32.7296C48.8966 25.0099 44.1997 23.2583 42.9871 23.0013C37.4397 25.1423 32.6496 29.7549 32.2504 39.2118C32.193 41.9331 30.3594 46.6669 20.7207 57.1332C22.4505 56.777 23.0537 56.4508 23.0537 56.4508C29.8573 54.4612 44.8715 46.276 47.8584 33.6717C47.9354 33.347 48.0245 33.0493 48.1095 32.7424L48.1124 32.7334L47.9737 32.7269H47.9721Z" fill="url(#paint3_linear_462_3886)"/>
<path d="M60.124 20.8642C59.9894 20.592 56.7311 14.2039 49.793 14.7461C49.2577 14.788 48.7254 14.8608 48.2114 14.9629C45.1712 15.5669 42.9437 17.1262 40.5867 18.777C38.6891 20.1053 36.7255 21.4707 34.1562 22.4933C36.1907 21.81 39.1189 22.0659 42.9866 23.0017C51.0451 19.8915 60.6746 21.9755 60.6746 21.9755L60.124 20.8642Z" fill="url(#paint4_linear_462_3886)"/>
<path d="M47.9728 32.7271L48.1052 32.7299L47.9712 32.7271H47.9728Z" fill="#0199FF"/>
<path d="M47.9728 32.7271L48.1052 32.7299L47.9712 32.7271H47.9728Z" fill="url(#paint5_linear_462_3886)"/>
<path d="M42.9839 22.9997C43.0333 23.0102 43.0904 23.0242 43.1508 23.0399C43.2612 23.0682 43.368 23.1003 43.4714 23.1363C45.1226 23.6909 48.8102 25.8174 48.1013 32.728L47.9704 32.7253L48.03 32.728L48.1092 32.7318C50.314 24.7875 55.157 22.6542 57.9198 22.1053C58.8334 21.9238 59.4293 21.9385 59.4293 21.9385L60.6716 21.9737C60.6718 21.9735 51.0423 19.8896 42.9839 22.9997Z" fill="#0199FF"/>
<path d="M71.5353 71.6066L71.5345 71.605C71.5345 69.0191 69.4407 66.9153 66.8664 66.9153H63.3493V68.5812H66.8664C68.4973 68.5812 69.8219 69.8929 69.8678 71.5204C69.4042 71.2608 68.8787 71.1 68.3114 71.0998V71.0997H65.4204V71.0998C63.6434 71.1 62.1973 72.5527 62.1973 74.338V75.3337C62.1973 77.1188 63.6434 78.5715 65.4204 78.5718H68.3114C70.0422 78.5717 71.4479 77.1912 71.521 75.4705L71.5353 71.6066ZM68.3113 76.9059H65.4202C64.5574 76.9058 63.8556 76.2006 63.8556 75.3338V74.3381C63.8556 73.4712 64.5574 72.7661 65.4202 72.7659V72.7657H68.3113V72.7659C69.1741 72.766 69.8763 73.4712 69.8763 74.3381H69.8767V75.3338H69.8763C69.8763 76.2007 69.1743 76.9058 68.3113 76.9059Z" fill="#191D1E"/>
<path d="M60.1676 63.3189H58.5146V64.9792H60.1676V63.3189Z" fill="#191D1E"/>
<path d="M5.62815 64.9605V64.9602H8.30868V63.2975H5.62815V63.2978C2.60129 63.2978 0.138934 65.7707 0.138934 68.8111V68.8115V73.0404H0.138672V73.0408C0.138672 76.0811 2.60102 78.5541 5.62788 78.5541V78.5542H8.30842V76.8915H5.62788V76.8914C3.51384 76.8914 1.79399 75.1637 1.79399 73.0408L1.79425 73.0405V73.0404V68.8115V68.8111C1.79425 66.688 3.51424 64.9605 5.62815 64.9605Z" fill="#191D1E"/>
<path d="M43.4105 66.9158C40.8448 66.9158 38.7568 69.0125 38.7568 71.5897V73.8591V82.2752H40.4098V77.426C41.2205 78.1151 42.2668 78.5329 43.4097 78.5329C45.9753 78.5329 48.0632 76.4362 48.0632 73.859V71.5895C48.0632 69.0125 45.9761 66.9158 43.4105 66.9158ZM46.4102 73.8591C46.4102 75.521 45.0641 76.8728 43.4097 76.8728C41.7551 76.8728 40.4098 75.521 40.4098 73.8591V71.5897C40.4098 69.9278 41.7558 68.576 43.4105 68.576C45.0649 68.576 46.4102 69.9278 46.4102 71.5897V73.8591Z" fill="#191D1E"/>
<path d="M60.1676 66.9158H58.5146V78.5289H60.1676V66.9158Z" fill="#191D1E"/>
<path d="M24.1216 63.299H22.4688V78.5528H24.1216V63.299Z" fill="#191D1E"/>
<path d="M53.4892 73.9074V68.5649H56.1879V66.9048H53.4892V63.3189H51.8364V66.9048H50.1641V68.565H51.8364V73.9075C51.8364 76.4846 53.9235 78.5815 56.4891 78.5815H56.4895V76.9212H56.4891C54.8345 76.921 53.4892 75.5693 53.4892 73.9074Z" fill="#191D1E"/>
<path d="M19.7503 71.5971L19.7495 71.5955C19.7495 69.0096 17.6557 66.9058 15.0813 66.9058H11.5643V68.5717H15.0813C16.7123 68.5717 18.0369 69.8834 18.0827 71.5109C17.6191 71.2513 17.0935 71.0905 16.5263 71.0904V71.0902H13.6352V71.0904C11.8582 71.0905 10.4121 72.5432 10.4121 74.3285V75.3242C10.4121 77.1093 11.8582 78.5621 13.6352 78.5623H16.5263C18.2571 78.5622 19.6627 77.1817 19.7359 75.461L19.7503 71.5971ZM16.5263 76.8963H13.6352C12.7724 76.8962 12.0706 76.191 12.0706 75.3242V74.3285C12.0706 73.4616 12.7724 72.7564 13.6352 72.7563V72.7561H16.5263V72.7563C17.3891 72.7564 18.0913 73.4616 18.0913 74.3285H18.0917V75.3242H18.0913C18.0913 76.1911 17.3892 76.8962 16.5263 76.8963Z" fill="#191D1E"/>
<path d="M36.1399 66.9352H34.487V73.8589H34.4871V73.859C34.4871 75.5209 33.1418 76.8727 31.4872 76.8727C29.8327 76.8727 28.4866 75.5209 28.4866 73.859L28.4864 73.8589V66.9352H26.8335V73.8589L26.8336 73.859C26.8336 76.4361 28.9215 78.5329 31.4871 78.5329C32.6299 78.5329 33.6763 78.115 34.487 77.4261V77.6014C34.487 79.2633 33.1416 80.6151 31.4871 80.6151H27.982V82.2753H31.4871C34.0527 82.2753 36.1398 80.1785 36.1398 77.6014L36.1399 66.9352Z" fill="#191D1E"/>
<defs>
<linearGradient id="paint0_linear_462_3886" x1="21.1209" y1="30.5744" x2="40.7507" y2="30.698" gradientUnits="userSpaceOnUse">
<stop stop-color="#15C1FF"/>
<stop offset="1" stop-color="#0049E9"/>
</linearGradient>
<linearGradient id="paint1_linear_462_3886" x1="10.4219" y1="22.2623" x2="30.5508" y2="38.9167" gradientUnits="userSpaceOnUse">
<stop stop-color="#B3A9FF"/>
<stop offset="1" stop-color="#3300BF"/>
</linearGradient>
<linearGradient id="paint2_linear_462_3886" x1="17.9114" y1="19.6825" x2="33.0168" y2="16.7085" gradientUnits="userSpaceOnUse">
<stop stop-color="#2BF497"/>
<stop offset="1" stop-color="#08B4E5"/>
</linearGradient>
<linearGradient id="paint3_linear_462_3886" x1="24.6455" y1="51.6191" x2="50.1563" y2="24.3068" gradientUnits="userSpaceOnUse">
<stop stop-color="#FF55EC"/>
<stop offset="1" stop-color="#0049E9"/>
</linearGradient>
<linearGradient id="paint4_linear_462_3886" x1="38.3628" y1="21.664" x2="60.1874" y2="17.3672" gradientUnits="userSpaceOnUse">
<stop stop-color="#3FFFFC"/>
<stop offset="1" stop-color="#014FFF"/>
</linearGradient>
<linearGradient id="paint5_linear_462_3886" x1="33.5282" y1="15.2553" x2="50.8737" y2="35.9782" gradientUnits="userSpaceOnUse">
<stop stop-color="#94FFF7"/>
<stop offset="0.6882" stop-color="#0085BF"/>
<stop offset="1" stop-color="#0056BF"/>
</linearGradient>
</defs>
</svg>
