<svg width="198" height="227" viewBox="0 0 198 227" fill="none" xmlns="http://www.w3.org/2000/svg">
<path d="M75.5771 91.2655C83.0102 97.5628 87.9582 102.099 88.9947 107.214C90.0996 81.0321 103.361 68.2619 118.72 62.3343C108.013 59.7435 99.9057 59.0352 94.2726 60.9269C93.6027 61.1938 92.939 61.4637 92.2377 61.712C90.0278 62.4957 87.7766 63.171 85.5106 63.7765C83.6844 64.2646 81.8492 64.7145 80.0092 65.0798C72.7106 66.5297 65.4505 66.981 58.4838 66.4634C56.7978 66.3382 55.1338 66.1439 53.4863 65.9055C54.2394 67.4572 55.071 68.9219 55.9425 70.3393C61.3949 79.2078 68.9103 85.6178 75.5771 91.2655Z" fill="url(#paint0_linear_462_3808)"/>
<path d="M89.0133 107.214C87.9763 102.099 83.0288 97.5631 75.5957 91.2659C68.9289 85.6181 61.414 79.2082 55.9606 70.3402C55.0891 68.9228 54.2576 67.4581 53.5045 65.9064C46.3794 64.8763 39.6366 62.8065 33.577 59.7042L30.4067 58.0819L30.5969 61.6513C31.1922 72.8064 43.5381 93.0582 62.2903 100.698C76.1724 105.168 85.6485 108.791 87.2475 112.119C87.4895 112.621 87.896 113.551 87.4182 114.817C86.8044 116.4 88.4256 113.839 88.9191 111.583C88.9049 110.077 88.9529 108.639 89.0133 107.214Z" fill="url(#paint1_linear_462_3808)"/>
<path d="M80.0269 65.0799C81.8669 64.7145 83.7021 64.2646 85.5283 63.7766C87.7943 63.1715 90.0456 62.4957 92.2554 61.712C92.9567 61.4632 93.6209 61.1934 94.2904 60.9269C81.6049 59.7912 67.1418 55.612 51.9455 38.995L48.5337 35.2637L48.3849 40.3274C48.0787 50.6797 50.1464 58.9894 53.5036 65.9056C55.1515 66.1439 56.8155 66.3383 58.501 66.4634C65.4682 66.9811 72.7283 66.5298 80.0269 65.0799Z" fill="url(#paint2_linear_462_3808)"/>
<path d="M132.54 89.2594L132.907 89.2671C135.1 67.8944 122.096 63.0451 118.739 62.3335C103.38 68.2611 90.1188 81.0314 89.0134 107.213C88.8546 114.747 83.7782 127.853 57.0928 156.83C61.882 155.844 63.5517 154.941 63.5517 154.941C82.388 149.432 123.956 126.771 132.225 91.8751C132.438 90.9763 132.685 90.152 132.921 89.3024L132.929 89.2776L132.544 89.2594H132.54Z" fill="url(#paint3_linear_462_3808)"/>
<path d="M166.184 56.4168C165.812 55.6632 156.791 37.9774 137.582 39.4784C136.1 39.5944 134.627 39.7959 133.204 40.0787C124.787 41.7506 118.62 46.0679 112.094 50.6382C106.84 54.3155 101.404 58.096 94.291 60.927C99.9236 59.0354 108.031 59.7436 118.739 62.3344C141.049 53.7238 167.709 59.4933 167.709 59.4933L166.184 56.4168Z" fill="url(#paint4_linear_462_3808)"/>
<path d="M132.543 89.26L132.908 89.2677L132.539 89.26H132.543Z" fill="#0199FF"/>
<path d="M132.543 89.26L132.908 89.2677L132.539 89.26H132.543Z" fill="url(#paint5_linear_462_3808)"/>
<path d="M118.732 62.3291C118.869 62.3582 119.027 62.3969 119.194 62.4404C119.5 62.5187 119.796 62.6075 120.082 62.7073C124.653 64.2427 134.862 70.1302 132.9 89.2626L132.538 89.255L132.703 89.2626L132.922 89.2731C139.026 67.2786 152.434 61.3725 160.083 59.8529C162.612 59.3505 164.262 59.3911 164.262 59.3911L167.702 59.4885C167.702 59.488 141.042 53.7185 118.732 62.3291Z" fill="#0199FF"/>
<path d="M197.776 196.901L197.774 196.896C197.774 189.737 191.977 183.912 184.85 183.912H175.112V188.525H184.85C189.365 188.525 193.032 192.156 193.159 196.662C191.876 195.943 190.421 195.498 188.85 195.498V195.497H180.846V195.498C175.927 195.498 171.923 199.52 171.923 204.463V207.219C171.923 212.162 175.927 216.184 180.846 216.184H188.85C193.642 216.184 197.534 212.362 197.736 207.598L197.776 196.901ZM188.85 211.572H180.846C178.457 211.572 176.514 209.619 176.514 207.22V204.463C176.514 202.063 178.457 200.111 180.846 200.11V200.11H188.85V200.11C191.239 200.111 193.183 202.063 193.183 204.463H193.184V207.22H193.183C193.183 209.62 191.239 211.572 188.85 211.572Z" fill="#191D1E"/>
<path d="M166.304 173.956H161.728V178.552H166.304V173.956Z" fill="#191D1E"/>
<path d="M15.3074 178.5V178.5H22.7286V173.896H15.3074V173.897C6.92729 173.897 0.110101 180.744 0.110101 189.161V189.162V200.87H0.109375V200.871C0.109375 209.289 6.92655 216.135 15.3066 216.135V216.136H22.7279V211.532H15.3066V211.532C9.45375 211.532 4.69224 206.749 4.69224 200.871L4.69296 200.871V200.87V189.162V189.161C4.69296 183.283 9.45485 178.5 15.3074 178.5Z" fill="#191D1E"/>
<path d="M119.911 183.914C112.808 183.914 107.027 189.719 107.027 196.854V203.137V226.437H111.604V213.012C113.848 214.92 116.745 216.076 119.909 216.076C127.012 216.076 132.793 210.272 132.793 203.137V196.853C132.793 189.719 127.014 183.914 119.911 183.914ZM128.216 203.137C128.216 207.738 124.489 211.481 119.909 211.481C115.328 211.481 111.604 207.738 111.604 203.137V196.854C111.604 192.253 115.33 188.51 119.911 188.51C124.492 188.51 128.216 192.253 128.216 196.854V203.137Z" fill="#191D1E"/>
<path d="M166.304 183.914H161.728V216.065H166.304V183.914Z" fill="#191D1E"/>
<path d="M66.5081 173.9H61.9321V216.132H66.5081V173.9Z" fill="#191D1E"/>
<path d="M147.814 203.271V188.479H155.286V183.883H147.814V173.956H143.239V183.883H138.608V188.48H143.239V203.271C143.239 210.406 149.017 216.211 156.12 216.211H156.121V211.614H156.12C151.539 211.614 147.814 207.872 147.814 203.271Z" fill="#191D1E"/>
<path d="M54.4071 196.874L54.4049 196.87C54.4049 189.711 48.608 183.886 41.4808 183.886H31.7436V188.498H41.4808C45.9963 188.498 49.6635 192.13 49.7902 196.636C48.5066 195.917 47.0517 195.472 45.4812 195.471V195.471H37.4771V195.471C32.5574 195.472 28.5537 199.494 28.5537 204.437V207.193C28.5537 212.135 32.5574 216.157 37.4771 216.158H45.4812C50.2731 216.158 54.1647 212.336 54.3672 207.572L54.4071 196.874ZM45.4812 211.546H37.4771C35.0883 211.545 33.1454 209.593 33.1454 207.193V204.437C33.1454 202.036 35.0883 200.084 37.4771 200.084V200.083H45.4812V200.084C47.87 200.084 49.814 202.036 49.814 204.437H49.8151V207.193H49.814C49.814 209.593 47.8703 211.545 45.4812 211.546Z" fill="#191D1E"/>
<path d="M99.7811 183.968H95.2049V203.136H95.2052V203.137C95.2052 207.738 91.4805 211.48 86.8998 211.48C82.3192 211.48 78.5923 207.738 78.5923 203.137L78.5919 203.136V183.968H74.0156V203.136L74.016 203.137C74.016 210.272 79.7964 216.077 86.8995 216.077C90.0633 216.077 92.9603 214.92 95.2049 213.012V213.498C95.2049 218.099 91.4801 221.841 86.8995 221.841H77.1952V226.438H86.8995C94.0026 226.438 99.7808 220.632 99.7808 213.498L99.7811 183.968Z" fill="#191D1E"/>
<defs>
<linearGradient id="paint0_linear_462_3808" x1="58.201" y1="83.3001" x2="112.547" y2="83.6423" gradientUnits="userSpaceOnUse">
<stop stop-color="#15C1FF"/>
<stop offset="1" stop-color="#0049E9"/>
</linearGradient>
<linearGradient id="paint1_linear_462_3808" x1="28.5804" y1="60.2875" x2="84.3086" y2="106.396" gradientUnits="userSpaceOnUse">
<stop stop-color="#B3A9FF"/>
<stop offset="1" stop-color="#3300BF"/>
</linearGradient>
<linearGradient id="paint2_linear_462_3808" x1="49.3156" y1="53.1451" x2="91.1359" y2="44.9116" gradientUnits="userSpaceOnUse">
<stop stop-color="#2BF497"/>
<stop offset="1" stop-color="#08B4E5"/>
</linearGradient>
<linearGradient id="paint3_linear_462_3808" x1="67.9589" y1="141.564" x2="138.587" y2="65.9478" gradientUnits="userSpaceOnUse">
<stop stop-color="#FF55EC"/>
<stop offset="1" stop-color="#0049E9"/>
</linearGradient>
<linearGradient id="paint4_linear_462_3808" x1="105.937" y1="58.631" x2="166.36" y2="46.735" gradientUnits="userSpaceOnUse">
<stop stop-color="#3FFFFC"/>
<stop offset="1" stop-color="#014FFF"/>
</linearGradient>
<linearGradient id="paint5_linear_462_3808" x1="92.8389" y1="41.2344" x2="140.517" y2="98.1966" gradientUnits="userSpaceOnUse">
<stop stop-color="#94FFF7"/>
<stop offset="0.6882" stop-color="#0085BF"/>
<stop offset="1" stop-color="#0056BF"/>
</linearGradient>
</defs>
</svg>
