<?xml version="1.0" encoding="utf-8"?>
<!-- Generator: Adobe Illustrator 27.0.0, SVG Export Plug-In . SVG Version: 6.00 Build 0)  -->
<svg version="1.1" id="Layer_1" xmlns="http://www.w3.org/2000/svg" xmlns:xlink="http://www.w3.org/1999/xlink" x="0px" y="0px"
	 viewBox="0 0 602.4 243" style="enable-background:new 0 0 602.4 243;" xml:space="preserve">
<style type="text/css">
	.st0{fill:#0D3C61;}
	.st1{fill-rule:evenodd;clip-rule:evenodd;fill:url(#SVGID_1_);}
	.st2{fill:url(#SVGID_00000124843476980327558320000017458860454786073500_);}
	.st3{fill:url(#SVGID_00000024724028933014624780000005516502773664476594_);}
	.st4{fill:url(#SVGID_00000119119396472494546130000001082061220549551255_);}
	.st5{fill:url(#SVGID_00000176022454421281192210000009763601307078235037_);}
	.st6{fill:url(#SVGID_00000134219855155835922740000014701610667717426871_);}
	.st7{fill:url(#SVGID_00000065042426272810558770000002391278621047745162_);}
	.st8{fill-rule:evenodd;clip-rule:evenodd;fill:url(#SVGID_00000178898793371478887390000007522073551893904528_);}
	.st9{fill-rule:evenodd;clip-rule:evenodd;fill:url(#SVGID_00000108294718744011941520000015449512294836215173_);}
	.st10{fill-rule:evenodd;clip-rule:evenodd;fill:url(#SVGID_00000005264551713376848400000014246480995232052627_);}
	.st11{opacity:0.8;fill:url(#SVGID_00000004532019271340512490000003038567998568210847_);enable-background:new    ;}
	.st12{opacity:0.8;fill:url(#SVGID_00000157287259025109078200000018186490122100237742_);enable-background:new    ;}
	.st13{opacity:0.8;fill:url(#SVGID_00000112613255977862814140000017511447553080955794_);enable-background:new    ;}
	.st14{fill:url(#SVGID_00000053503252514673869370000012997116407185501834_);}
	.st15{opacity:0.8;fill:url(#SVGID_00000113313961604994872160000006069752840936307627_);enable-background:new    ;}
	.st16{opacity:0.3;fill:url(#SVGID_00000107557475279895844930000017758479564420338843_);enable-background:new    ;}
	.st17{opacity:0.3;fill:url(#SVGID_00000070086219472365294490000001402408482481657231_);enable-background:new    ;}
	.st18{opacity:0.3;fill:url(#SVGID_00000035527513727124379390000011356592639622580881_);enable-background:new    ;}
	.st19{opacity:0.3;fill:url(#SVGID_00000013184389596493119320000010875725445461341829_);enable-background:new    ;}
	.st20{fill:url(#SVGID_00000127041905586769429520000010721539198473034113_);}
	.st21{opacity:0.3;fill:url(#SVGID_00000176728221664171634430000012783896354081242793_);enable-background:new    ;}
	.st22{opacity:0.8;fill:url(#SVGID_00000122695535726384347360000014658971315136979880_);enable-background:new    ;}
	.st23{fill:url(#SVGID_00000042017006155767260440000002532693734062907817_);}
	.st24{fill-rule:evenodd;clip-rule:evenodd;fill:url(#SVGID_00000092450181846673606240000012065848663095488399_);}
	.st25{fill:#30B99E;}
	.st26{clip-path:url(#SVGID_00000047058392843606955650000014759722038013416594_);}
	.st27{fill:url(#SVGID_00000145771505283114382630000001821620097388816803_);}
	.st28{fill:url(#SVGID_00000029046295303469565730000017530250413444005523_);}
	.st29{fill:url(#SVGID_00000093147697671949624150000000529064790707505323_);}
	.st30{fill:url(#SVGID_00000180333981250863255850000006526044626477428377_);}
	.st31{fill:url(#SVGID_00000026123759631311211600000009418641967883884172_);}
	.st32{fill:#0199FF;}
	.st33{fill:url(#SVGID_00000097473891972797798130000016515993092081213836_);}
</style>
<path class="st0" d="M360,122.9c-9.4,0-17,7.6-17,17v5.1c0,9.4,7.6,17,17,17h10.9v-6.2H360c-5.8,0-10.6-4.5-10.9-10.3h22.2
	c3.1,0,5.6-2.5,5.6-5.6C377.1,130.6,369.4,122.9,360,122.9z M349.2,139.3c0.3-5.7,5.1-10.3,10.9-10.3s10.6,4.5,10.9,10.3H349.2z"/>
<path class="st0" d="M259.4,114.4c-2.4,2.5-3.7,5.8-3.7,9.2v0.8h-3.6v6.2h3.6v31.4h6.2v-31.4h8.3v-6.2h-8.3v-0.8c0-3.8,3.1-7,6.7-7
	h4.5v-6.2h-4.5C265.1,110.4,261.9,111.9,259.4,114.4z"/>
<path class="st0" d="M282.9,110.4h6.2V162h-6.2V110.4z"/>
<path class="st0" d="M326.6,146.1c0,5.4-4.4,9.7-9.7,9.7s-9.7-4.4-9.7-9.7v-23.2H301v23.2c0,8.8,7.1,15.9,15.9,15.9
	c8.8,0,15.9-7.1,15.9-15.9v-23.2h-6.2V146.1z"/>
<path class="st0" d="M399.2,122.9c-8.8,0-15.9,7.1-15.9,15.9v23.2h6.2v-23.2c0-5.4,4.4-9.7,9.7-9.7s9.7,4.4,9.7,9.7v23.2h6.2v-23.2
	C415.1,130,408,122.9,399.2,122.9z"/>
<path class="st0" d="M433,148.8v-19.8h8.4v-6.2H433v-12.4h-6.2v12.4h-5.5v6.1h5.5v19.8c0,7.1,5.8,12.9,12.9,12.9h2.7v-6.1h-2.8
	C436,155.6,433,152.6,433,148.8z"/>
<path class="st0" d="M473.4,110.4v15.8c-2.7-2.1-6.1-3.3-9.7-3.3c-8.8,0-15.9,7.1-15.9,15.9v7.3c0,8.8,7.1,15.9,15.9,15.9
	s15.9-7.1,15.9-15.9v-35.7L473.4,110.4z M473.4,142.3v3.8c0,5.4-4.4,9.7-9.7,9.7s-9.7-4.4-9.7-9.7v-7.3c0-5.4,4.4-9.7,9.7-9.7
	s9.7,4.4,9.7,9.7V142.3z"/>
<linearGradient id="SVGID_1_" gradientUnits="userSpaceOnUse" x1="123.338" y1="137.1898" x2="272.9725" y2="137.1898" gradientTransform="matrix(1 0 0 -1 0 244)">
	<stop  offset="0" style="stop-color:#2A59A2"/>
	<stop  offset="1" style="stop-color:#2A59A2"/>
</linearGradient>
<path class="st1" d="M269.5,97.7h2.7c1.9,0-0.1-2.2-1.9-3.4c-0.2-0.1-0.4-0.2-0.6-0.4c-1.4-0.8-2.7-1.7-3.8-2.7
	c-0.9-0.9-2-2.9-2.7-4.4c-0.3-0.5-0.5-1-0.6-1.2c-1.7-2.9-4.3-5.2-9.6-5.9c-7.2-0.9-13.9,1.3-20.7,3.7c-8.9,3-18.2,6.2-29.5,2.6
	c-7.4-2.3-17.5-10.1-28-18.2c-18.8-14.4-39.1-30.1-48.7-18.6c-5.3,6.3-2.5,20.8,8.5,38.2c2.9,4.7,6.3,9.1,9.7,13.4
	c9,11.5,17.4,22.5,15,36.4c-4.2,24.4-35.9,26.5-35.9,26.5s35.4,11.1,64.2-0.6c22.2-9,32-22.9,41.5-36.3c5.3-7.5,10.6-14.9,17.8-21.2
	C255.4,98.2,264.7,97.6,269.5,97.7z M254.9,88.9c0,1.7-1.4,3.1-3.1,3.1c-1.7,0-3.1-1.4-3.1-3.1s1.4-3.1,3.1-3.1
	C253.5,85.7,254.9,87.1,254.9,88.9z"/>
<linearGradient id="SVGID_00000046304087990428167960000018047730800183622828_" gradientUnits="userSpaceOnUse" x1="117.303" y1="162.9425" x2="275.556" y2="162.9425" gradientTransform="matrix(1 0 0 -1 0 244)">
	<stop  offset="0" style="stop-color:#91D3F2"/>
	<stop  offset="0.266" style="stop-color:#6FB2DE"/>
	<stop  offset="0.521" style="stop-color:#5598CE"/>
	<stop  offset="0.673" style="stop-color:#4B8FC8"/>
</linearGradient>
<path style="fill:url(#SVGID_00000046304087990428167960000018047730800183622828_);" d="M177.4,69.9c-5-3.8-10.1-7.8-15.1-11.4
	c-1.1-0.8-2.2-1.6-3.4-2.4c-13.5-9.3-26-15.1-32.9-6.8c-5.3,6.3-2.5,20.8,8.5,38.3l0.4,0.5c5.7,8.9,22.3,29.8,61.6,28.9
	c2.6-2.8,6.5-8,11.6-13.7C199.8,89.7,187.4,78.1,177.4,69.9z"/>
<linearGradient id="SVGID_00000106857178205777149220000005394895733062737852_" gradientUnits="userSpaceOnUse" x1="123.338" y1="102.1107" x2="274.05" y2="102.1107" gradientTransform="matrix(1 0 0 -1 0 244)">
	<stop  offset="0" style="stop-color:#2C9EC7"/>
	<stop  offset="0.404" style="stop-color:#2C63A5"/>
	<stop  offset="1" style="stop-color:#395DA1"/>
</linearGradient>
<path style="fill:url(#SVGID_00000106857178205777149220000005394895733062737852_);" d="M217,132.9c0.2-6-0.9-11.8-2.9-17.5
	c-5.2,0.8-11,1.3-17.6,1.5c-4.8,5.1-15.8,18.9-34,31.3c-24.2,16.5-39.1,15.5-39.1,15.5s35.4,11,64.2-0.6c10.3-4.2,18-9.4,24.1-15.2
	C212.8,146.9,216.8,141.8,217,132.9z"/>
<linearGradient id="SVGID_00000119093559885997153070000006567062633852954758_" gradientUnits="userSpaceOnUse" x1="123.353" y1="133.9665" x2="274.065" y2="133.9665" gradientTransform="matrix(1 0 0 -1 0 244)">
	<stop  offset="0" style="stop-color:#4FAAC4"/>
	<stop  offset="2.000000e-03" style="stop-color:#2F75B1"/>
	<stop  offset="1" style="stop-color:#356EAC"/>
</linearGradient>
<path style="fill:url(#SVGID_00000119093559885997153070000006567062633852954758_);" d="M208,103.2c-5.1,5.7-9,10.9-11.6,13.7
	c6.6-0.1,12.4-0.6,17.6-1.5c-0.6-1.7-1.3-3.4-2.1-5C210.8,108,209.5,105.6,208,103.2z"/>
<linearGradient id="SVGID_00000143587028572984363460000001870493841394293124_" gradientUnits="userSpaceOnUse" x1="177.363" y1="157.4698" x2="274.916" y2="157.4698" gradientTransform="matrix(1 0 0 -1 0 244)">
	<stop  offset="0" style="stop-color:#4FAAC4"/>
	<stop  offset="2.000000e-03" style="stop-color:#2F81B6"/>
	<stop  offset="1" style="stop-color:#3B5EA9"/>
</linearGradient>
<path style="fill:url(#SVGID_00000143587028572984363460000001870493841394293124_);" d="M237.5,81.7c-10.6,3.2-21.2,8.7-34.9,4.4
	c-6.7-2.1-15.7-8.8-25.3-16.2c10,8.3,22.5,19.9,30.7,33.3C215.6,94.8,225.6,85.4,237.5,81.7z"/>
<linearGradient id="SVGID_00000067915907868177914700000002221299950728645273_" gradientUnits="userSpaceOnUse" x1="177.376" y1="119.841" x2="274.928" y2="119.841" gradientTransform="matrix(1 0 0 -1 0 244)">
	<stop  offset="0" style="stop-color:#4FAAC4"/>
	<stop  offset="2.000000e-03" style="stop-color:#1E3773"/>
	<stop  offset="1" style="stop-color:#203370"/>
</linearGradient>
<path style="fill:url(#SVGID_00000067915907868177914700000002221299950728645273_);" d="M214,115.4c2.1,5.7,3.1,11.5,2.9,17.5
	c-0.2,8.9-4.3,14-5.3,15c14.5-13.6,21-30,35.2-42.3c2.7-2.3,5.4-4,8-5.1C245.6,104.4,235.5,112.2,214,115.4z"/>
<linearGradient id="SVGID_00000132766542162103095270000005961358471608531075_" gradientUnits="userSpaceOnUse" x1="107.084" y1="118.1825" x2="218.097" y2="118.1825" gradientTransform="matrix(1 0 0 -1 0 244)">
	<stop  offset="0.112" style="stop-color:#38B1DA"/>
	<stop  offset="1" style="stop-color:#326FB5"/>
</linearGradient>
<path style="fill:url(#SVGID_00000132766542162103095270000005961358471608531075_);" d="M162.4,148.2c18.2-12.4,29.2-26.2,34-31.3
	c-39.3,0.9-55.9-20-61.6-28.9c10.8,16.9,27.6,30.3,24.4,49.1c-4.2,24.3-35.9,26.5-35.9,26.5S138.2,164.7,162.4,148.2z"/>
<linearGradient id="SVGID_00000047027274945325264970000005808548078612231850_" gradientUnits="userSpaceOnUse" x1="240.5495" y1="111.637" x2="240.5495" y2="165.5393" gradientTransform="matrix(1 0 0 -1 0 244)">
	<stop  offset="0" style="stop-color:#4FAAC4"/>
	<stop  offset="2.000000e-03" style="stop-color:#2C5A9A"/>
	<stop  offset="1" style="stop-color:#374580"/>
</linearGradient>
<path style="fill-rule:evenodd;clip-rule:evenodd;fill:url(#SVGID_00000047027274945325264970000005808548078612231850_);" d="
	M270.3,94.3c1.9,1.2,3.9,3.4,1.9,3.4h-2.7c-3.3,0-8.8,0.2-14.6,2.8c-2.3,1-4.7,2.2-7.3,3.5c-7.7,4-17.4,9-33.5,11.4
	c-0.6-1.7-1.3-3.4-2.1-5c-1.1-2.4-2.5-4.8-3.9-7.2c7.6-8.4,17.6-17.8,29.5-21.6c5-1.5,10-2.6,15.3-1.9c5.3,0.6,7.9,2.9,9.6,5.9
	c0.2,0.3,0.4,0.7,0.6,1.2c0.7,1.4,1.7,3.5,2.7,4.4c1,1,2.3,1.8,3.6,2.6C269.7,94,270,94.1,270.3,94.3z M254.9,88.9
	c0,1.7-1.4,3.1-3.1,3.1c-1.7,0-3.1-1.4-3.1-3.1c0-1.7,1.4-3.1,3.1-3.1C253.5,85.7,254.9,87.1,254.9,88.9z"/>
</svg>
