<svg width="68" height="79" viewBox="0 0 68 79" fill="none" xmlns="http://www.w3.org/2000/svg">
<path d="M32.112 66.7479C29.3444 66.7479 27.0815 68.9933 27.0815 71.7783V73.2753C27.0815 76.0429 29.327 78.3057 32.112 78.3057H35.3147V76.478H32.112C30.4061 76.478 28.9962 75.1378 28.9092 73.4494H35.4714C36.3939 73.4494 37.125 72.7009 37.125 71.7958C37.1424 69.0108 34.8796 66.7479 32.112 66.7479ZM28.9092 71.6043C28.9962 69.9159 30.4061 68.5756 32.112 68.5756C33.8178 68.5756 35.2277 69.9159 35.3147 71.6043H28.9092Z" fill="#191D1E"/>
<path d="M2.41717 64.2415C1.70351 64.9726 1.32057 65.9473 1.32057 66.9569V67.2006H0.258789V69.0282H1.32057V78.3058H3.14823V69.0456H5.60252V67.218H3.14823V66.9743C3.14823 65.8603 4.05336 64.9204 5.13255 64.9204H6.47283V63.0927H5.13255C4.10558 63.0753 3.14823 63.493 2.41717 64.2415Z" fill="#191D1E"/>
<path d="M9.34473 63.0578H11.1724V78.2883H9.34473V63.0578Z" fill="#191D1E"/>
<path d="M22.2602 73.606C22.2602 75.19 20.9721 76.478 19.3882 76.478C17.8042 76.478 16.5161 75.19 16.5161 73.606V66.7479H14.6885V73.606C14.6885 76.1995 16.7946 78.3057 19.3882 78.3057C21.9817 78.3057 24.0879 76.1995 24.0879 73.606V66.7479H22.2602V73.606Z" fill="#191D1E"/>
<path d="M43.6699 66.7479C41.0764 66.7479 38.9702 68.8541 38.9702 71.4476V78.3057H40.7979V71.4476C40.7979 69.8637 42.0859 68.5756 43.6699 68.5756C45.2539 68.5756 46.542 69.8637 46.542 71.4476V78.3057H48.3696V71.4476C48.3696 68.8541 46.2635 66.7479 43.6699 66.7479Z" fill="#191D1E"/>
<path d="M53.7179 74.7557V68.9246H56.1896V67.0969H53.7179V63.4242H51.8903V67.0969H50.2715V68.9072H51.8903V74.7383C51.8903 76.8445 53.5961 78.5503 55.7022 78.5503H56.5029V76.74H55.6848C54.6057 76.74 53.7179 75.8523 53.7179 74.7557Z" fill="#191D1E"/>
<path d="M65.5844 63.0578V67.7227C64.7837 67.1135 63.7916 66.748 62.7124 66.748C60.1189 66.748 58.0127 68.8541 58.0127 71.4477V73.606C58.0127 76.1996 60.1189 78.3057 62.7124 78.3057C65.3059 78.3057 67.4121 76.1996 67.4121 73.606V63.0752L65.5844 63.0578ZM65.5844 72.4746V73.606C65.5844 75.19 64.2964 76.4781 62.7124 76.4781C61.1284 76.4781 59.8404 75.19 59.8404 73.606V71.4477C59.8404 69.8637 61.1284 68.5756 62.7124 68.5756C64.2964 68.5756 65.5844 69.8637 65.5844 71.4477V72.4746Z" fill="#191D1E"/>
<path fill-rule="evenodd" clip-rule="evenodd" d="M64.2564 29.564H65.2736C65.997 29.564 65.251 28.705 64.5277 28.2529C64.4522 28.2065 64.3759 28.16 64.2993 28.1133C63.7799 27.7968 63.246 27.4715 62.8323 27.0775C62.4688 26.7305 62.0811 25.9487 61.8106 25.4031C61.711 25.2022 61.6272 25.0334 61.5664 24.93C60.9109 23.8223 59.9162 22.9407 57.8818 22.6695C55.1123 22.3159 52.569 23.1826 49.9479 24.0758C46.5357 25.2386 42.9915 26.4463 38.6448 25.0656C35.8143 24.1709 31.9566 21.2071 27.9098 18.0981C20.7097 12.5665 12.9113 6.57512 9.23549 10.96C7.20103 13.3561 8.28608 18.917 12.4906 25.6081C13.6149 27.3959 14.9212 29.0802 16.2021 30.7317C19.6342 35.157 22.884 39.3472 21.9622 44.6643C20.3346 54.0002 8.21826 54.8366 8.21826 54.8366C8.21826 54.8366 21.804 59.0863 32.8353 54.6105C41.3301 51.1749 45.1024 45.8521 48.7546 40.699C50.7975 37.8164 52.8028 34.9869 55.576 32.5705C58.8312 29.7449 62.4028 29.5414 64.2564 29.564ZM58.651 26.1731C58.651 26.8347 58.1146 27.3711 57.4529 27.3711C56.7912 27.3711 56.2548 26.8347 56.2548 26.1731C56.2548 25.5114 56.7912 24.975 57.4529 24.975C58.1146 24.975 58.651 25.5114 58.651 26.1731Z" fill="url(#paint0_linear_462_3829)"/>
<path d="M28.9249 18.8943C27.0261 17.425 25.0594 15.9105 23.138 14.5089C22.7085 14.1925 22.279 13.8986 21.8495 13.5821C16.6729 10.0331 11.8806 7.79521 9.23584 10.9599C7.20138 13.3787 8.28642 18.9395 12.491 25.6307L12.6266 25.8341C14.8193 29.2475 21.1714 37.2497 36.249 36.9106C37.2436 35.8482 38.7356 33.8363 40.7022 31.6662C37.5375 26.5123 32.7678 22.0364 28.9249 18.8943Z" fill="url(#paint1_linear_462_3829)"/>
<path d="M44.1152 43.0365C44.1831 40.7534 43.7536 38.5155 42.985 36.3454C40.9957 36.6392 38.7804 36.8427 36.2486 36.9105C34.395 38.8771 30.1905 44.1667 23.2055 48.9138C13.9148 55.2433 8.21826 54.8364 8.21826 54.8364C8.21826 54.8364 21.804 59.0635 32.8353 54.6103C36.7912 53.0054 39.7298 50.9935 42.0808 48.7782C42.4877 48.4165 44.0248 46.4499 44.1152 43.0365Z" fill="url(#paint2_linear_462_3829)"/>
<path d="M40.6793 31.6661C38.7352 33.8362 37.2207 35.8481 36.2261 36.9105C38.7579 36.8653 40.9958 36.6619 42.9624 36.3454C42.7364 35.6899 42.4651 35.0569 42.1712 34.424C41.7417 33.4972 41.2444 32.5703 40.6793 31.6661Z" fill="url(#paint3_linear_462_3829)"/>
<path d="M51.9825 23.4153C47.9136 24.6585 43.8447 26.7382 38.6229 25.088C36.0459 24.2743 32.5873 21.7199 28.9253 18.8942C32.7682 22.0589 37.5379 26.5348 40.68 31.6661C43.5734 28.4562 47.4163 24.862 51.9825 23.4153Z" fill="url(#paint4_linear_462_3829)"/>
<path d="M42.9857 36.3454C43.7769 38.5155 44.1838 40.7534 44.116 43.0365C44.0256 46.4499 42.4658 48.3939 42.0815 48.7782C47.6424 43.579 50.129 37.2948 55.5542 32.5703C56.5714 31.6887 57.6113 31.0558 58.6059 30.6263C55.0795 32.1182 51.214 35.1021 42.9857 36.3454Z" fill="url(#paint5_linear_462_3829)"/>
<path d="M23.2055 48.9139C30.1905 44.1668 34.395 38.8772 36.2486 36.9106C21.1936 37.2497 14.819 29.2474 12.6263 25.8341C16.763 32.3217 23.2055 37.4531 21.9622 44.6641C20.3572 53.9775 8.21826 54.8364 8.21826 54.8364C8.21826 54.8364 13.9148 55.2433 23.2055 48.9139Z" fill="url(#paint6_linear_462_3829)"/>
<path fill-rule="evenodd" clip-rule="evenodd" d="M64.5289 28.2531C65.2749 28.7052 66.0209 29.5642 65.2749 29.5642H64.2351C62.9692 29.5642 60.8669 29.6546 58.629 30.6266C57.741 30.9999 56.8333 31.4666 55.8423 31.976C52.8726 33.5027 49.1558 35.4135 42.9862 36.3457C42.7602 35.6902 42.4889 35.0572 42.1951 34.4243C41.7656 33.4975 41.2456 32.5706 40.7031 31.6664C43.5966 28.4339 47.4395 24.8397 52.0057 23.393C53.9271 22.8052 55.8486 22.3983 57.883 22.6696C59.9175 22.9182 60.9121 23.7998 61.5677 24.9301C61.6285 25.0335 61.7122 25.2024 61.8118 25.4032C62.0824 25.9489 62.4701 26.7306 62.8336 27.0776C63.224 27.4681 63.7216 27.7668 64.213 28.0618C64.319 28.1254 64.4247 28.1889 64.5289 28.2531ZM58.6513 26.1733C58.6513 26.835 58.115 27.3714 57.4533 27.3714C56.7916 27.3714 56.2552 26.835 56.2552 26.1733C56.2552 25.5117 56.7916 24.9753 57.4533 24.9753C58.115 24.9753 58.6513 25.5117 58.6513 26.1733Z" fill="url(#paint7_linear_462_3829)"/>
<defs>
<linearGradient id="paint0_linear_462_3829" x1="8.22595" y1="33.0468" x2="65.5666" y2="33.0468" gradientUnits="userSpaceOnUse">
<stop stop-color="#2A59A2"/>
<stop offset="1" stop-color="#2A59A2"/>
</linearGradient>
<linearGradient id="paint1_linear_462_3829" x1="5.90542" y1="23.1832" x2="66.5591" y2="23.1832" gradientUnits="userSpaceOnUse">
<stop stop-color="#91D3F2"/>
<stop offset="0.266" stop-color="#6FB2DE"/>
<stop offset="0.521" stop-color="#5598CE"/>
<stop offset="0.673" stop-color="#4B8FC8"/>
</linearGradient>
<linearGradient id="paint2_linear_462_3829" x1="8.22595" y1="46.4969" x2="65.9893" y2="46.4969" gradientUnits="userSpaceOnUse">
<stop stop-color="#2C9EC7"/>
<stop offset="0.404" stop-color="#2C63A5"/>
<stop offset="1" stop-color="#395DA1"/>
</linearGradient>
<linearGradient id="paint3_linear_462_3829" x1="8.22418" y1="34.2899" x2="65.9876" y2="34.2899" gradientUnits="userSpaceOnUse">
<stop stop-color="#4FAAC4"/>
<stop offset="0.002" stop-color="#2F75B1"/>
<stop offset="1" stop-color="#356EAC"/>
</linearGradient>
<linearGradient id="paint4_linear_462_3829" x1="28.9343" y1="25.2797" x2="66.3235" y2="25.2797" gradientUnits="userSpaceOnUse">
<stop stop-color="#4FAAC4"/>
<stop offset="0.002" stop-color="#2F81B6"/>
<stop offset="1" stop-color="#3B5EA9"/>
</linearGradient>
<linearGradient id="paint5_linear_462_3829" x1="28.9301" y1="39.7009" x2="66.3192" y2="39.7009" gradientUnits="userSpaceOnUse">
<stop stop-color="#4FAAC4"/>
<stop offset="0.002" stop-color="#1E3773"/>
<stop offset="1" stop-color="#203370"/>
</linearGradient>
<linearGradient id="paint6_linear_462_3829" x1="1.98874" y1="40.3282" x2="44.5368" y2="40.3282" gradientUnits="userSpaceOnUse">
<stop offset="0.112" stop-color="#38B1DA"/>
<stop offset="1" stop-color="#326FB5"/>
</linearGradient>
<linearGradient id="paint7_linear_462_3829" x1="53.1299" y1="42.8467" x2="53.1299" y2="22.1876" gradientUnits="userSpaceOnUse">
<stop stop-color="#4FAAC4"/>
<stop offset="0.002" stop-color="#2C5A9A"/>
<stop offset="1" stop-color="#374580"/>
</linearGradient>
</defs>
</svg>
