<?xml version="1.0" encoding="UTF-8"?><svg id="Layer_1" xmlns="http://www.w3.org/2000/svg" xmlns:xlink="http://www.w3.org/1999/xlink" viewBox="0 0 602.44 243"><defs><style>.cls-1{fill:url(#linear-gradient);}.cls-1,.cls-2{fill-rule:evenodd;}.cls-3{fill:#fff;}.cls-4{fill:#0d3c61;}.cls-5{fill:url(#linear-gradient-3);}.cls-6{fill:url(#linear-gradient-4);}.cls-7{fill:url(#linear-gradient-2);}.cls-8{fill:url(#linear-gradient-6);}.cls-9{fill:url(#linear-gradient-7);}.cls-10{fill:url(#linear-gradient-5);}.cls-2{fill:url(#linear-gradient-8);}</style><linearGradient id="linear-gradient" x1="123.34" y1="137.02" x2="272.97" y2="137.02" gradientTransform="translate(0 244) scale(1 -1)" gradientUnits="userSpaceOnUse"><stop offset="0" stop-color="#2a59a2"/><stop offset="1" stop-color="#2a59a2"/></linearGradient><linearGradient id="linear-gradient-2" x1="117.3" y1="162.77" x2="275.56" y2="162.77" gradientTransform="translate(0 244) scale(1 -1)" gradientUnits="userSpaceOnUse"><stop offset="0" stop-color="#91d3f2"/><stop offset=".27" stop-color="#6fb2de"/><stop offset=".52" stop-color="#5598ce"/><stop offset=".67" stop-color="#4b8fc8"/></linearGradient><linearGradient id="linear-gradient-3" x1="123.34" y1="101.94" x2="274.05" y2="101.94" gradientTransform="translate(0 244) scale(1 -1)" gradientUnits="userSpaceOnUse"><stop offset="0" stop-color="#2c9ec7"/><stop offset=".4" stop-color="#2c63a5"/><stop offset="1" stop-color="#395da1"/></linearGradient><linearGradient id="linear-gradient-4" x1="123.35" y1="133.8" x2="274.07" y2="133.8" gradientTransform="translate(0 244) scale(1 -1)" gradientUnits="userSpaceOnUse"><stop offset="0" stop-color="#4faac4"/><stop offset="0" stop-color="#2f75b1"/><stop offset="1" stop-color="#356eac"/></linearGradient><linearGradient id="linear-gradient-5" x1="177.36" y1="157.3" x2="274.92" y2="157.3" gradientTransform="translate(0 244) scale(1 -1)" gradientUnits="userSpaceOnUse"><stop offset="0" stop-color="#4faac4"/><stop offset="0" stop-color="#2f81b6"/><stop offset="1" stop-color="#3b5ea9"/></linearGradient><linearGradient id="linear-gradient-6" x1="177.38" y1="119.67" x2="274.93" y2="119.67" gradientTransform="translate(0 244) scale(1 -1)" gradientUnits="userSpaceOnUse"><stop offset="0" stop-color="#4faac4"/><stop offset="0" stop-color="#1e3773"/><stop offset="1" stop-color="#203370"/></linearGradient><linearGradient id="linear-gradient-7" x1="107.08" y1="118.01" x2="218.1" y2="118.01" gradientTransform="translate(0 244) scale(1 -1)" gradientUnits="userSpaceOnUse"><stop offset=".11" stop-color="#38b1da"/><stop offset="1" stop-color="#326fb5"/></linearGradient><linearGradient id="linear-gradient-8" x1="240.55" y1="111.47" x2="240.55" y2="165.37" gradientTransform="translate(0 244) scale(1 -1)" gradientUnits="userSpaceOnUse"><stop offset="0" stop-color="#4faac4"/><stop offset="0" stop-color="#2c5a9a"/><stop offset="1" stop-color="#374580"/></linearGradient></defs><rect class="cls-4" x=".47" y=".67" width="601.97" height="241.83" rx="11.64" ry="11.64"/><path class="cls-3" d="M360.02,123.06c-9.38,0-17.05,7.61-17.05,17.05v5.07c0,9.38,7.61,17.04,17.05,17.04h10.85v-6.19h-10.85c-5.78,0-10.56-4.54-10.85-10.26h22.24c3.13,0,5.6-2.54,5.6-5.6,.06-9.44-7.61-17.1-16.99-17.1Zm-10.85,16.46c.29-5.72,5.07-10.26,10.85-10.26s10.56,4.54,10.85,10.26h-21.7Z"/><path class="cls-3" d="M259.4,114.57c-2.42,2.48-3.72,5.78-3.72,9.2v.83h-3.6v6.19h3.6v31.44h6.19v-31.38h8.32v-6.19h-8.32v-.83c0-3.77,3.07-6.96,6.72-6.96h4.54v-6.19h-4.54c-3.48-.06-6.72,1.36-9.2,3.89Z"/><path class="cls-3" d="M282.88,110.56h6.19v51.61h-6.19v-51.61Z"/><path class="cls-3" d="M326.64,146.3c0,5.37-4.37,9.73-9.73,9.73s-9.73-4.36-9.73-9.73v-23.24h-6.19v23.24c0,8.79,7.14,15.92,15.92,15.92s15.93-7.14,15.93-15.92v-23.24h-6.19v23.24Z"/><path class="cls-3" d="M399.18,123.06c-8.79,0-15.92,7.14-15.92,15.92v23.24h6.19v-23.24c0-5.37,4.36-9.73,9.73-9.73s9.73,4.36,9.73,9.73v23.24h6.19v-23.24c0-8.79-7.14-15.92-15.92-15.92Z"/><path class="cls-3" d="M433.04,149.01v-19.76h8.38v-6.19h-8.38v-12.44h-6.19v12.44h-5.49v6.13h5.49v19.76c0,7.14,5.78,12.92,12.92,12.92h2.71v-6.13h-2.77c-3.66,0-6.67-3.01-6.67-6.72Z"/><path class="cls-3" d="M473.44,110.56v15.81c-2.71-2.07-6.08-3.3-9.73-3.3-8.79,0-15.92,7.14-15.92,15.92v7.31c0,8.79,7.14,15.92,15.92,15.92s15.92-7.14,15.92-15.92v-35.68l-6.19-.06Zm0,31.91v3.83c0,5.37-4.36,9.73-9.73,9.73s-9.73-4.36-9.73-9.73v-7.31c0-5.37,4.36-9.73,9.73-9.73s9.73,4.36,9.73,9.73v3.48Z"/><path class="cls-1" d="M269.55,97.87h2.65c1.89,0-.06-2.24-1.95-3.42-.2-.12-.4-.24-.6-.36-1.36-.83-2.75-1.67-3.83-2.7-.95-.91-1.96-2.94-2.67-4.37-.26-.52-.48-.96-.64-1.23-1.71-2.89-4.3-5.19-9.61-5.9-7.23-.92-13.86,1.34-20.7,3.67-8.9,3.03-18.15,6.18-29.49,2.58-7.39-2.33-17.45-10.07-28.01-18.18-18.79-14.43-39.13-30.06-48.72-18.62-5.31,6.25-2.48,20.76,8.49,38.22,2.93,4.66,6.34,9.06,9.68,13.37,8.95,11.55,17.43,22.48,15.03,36.35-4.25,24.36-35.86,26.54-35.86,26.54,0,0,35.45,11.09,64.23-.59,22.16-8.96,32.01-22.85,41.54-36.3,5.33-7.52,10.56-14.9,17.8-21.21,8.49-7.37,17.81-7.9,22.65-7.84Zm-14.63-8.85c0,1.73-1.4,3.13-3.13,3.13s-3.13-1.4-3.13-3.13,1.4-3.13,3.13-3.13,3.13,1.4,3.13,3.13Z"/><path class="cls-7" d="M177.36,70.04c-4.96-3.83-10.09-7.79-15.1-11.44-1.12-.83-2.24-1.59-3.36-2.42-13.51-9.26-26.01-15.1-32.91-6.84-5.31,6.31-2.48,20.82,8.49,38.28l.35,.53c5.72,8.91,22.29,29.79,61.63,28.9,2.59-2.77,6.49-8.02,11.62-13.68-8.26-13.45-20.7-25.13-30.73-33.32Z"/><path class="cls-5" d="M217,133.03c.18-5.96-.94-11.8-2.95-17.46-5.19,.77-10.97,1.3-17.57,1.47-4.84,5.13-15.81,18.93-34.03,31.32-24.24,16.51-39.1,15.45-39.1,15.45,0,0,35.45,11.03,64.23-.59,10.32-4.19,17.99-9.44,24.12-15.22,1.06-.94,5.07-6.07,5.31-14.98Z"/><path class="cls-6" d="M208.03,103.36c-5.07,5.66-9.02,10.91-11.62,13.68,6.6-.12,12.44-.65,17.57-1.47-.59-1.71-1.3-3.36-2.06-5.01-1.12-2.42-2.42-4.84-3.89-7.19Z"/><path class="cls-10" d="M237.52,81.83c-10.62,3.24-21.23,8.67-34.86,4.36-6.72-2.12-15.75-8.79-25.3-16.16,10.03,8.26,22.47,19.94,30.67,33.32,7.55-8.38,17.58-17.75,29.49-21.53Z"/><path class="cls-8" d="M214.05,115.57c2.06,5.66,3.13,11.5,2.95,17.46-.24,8.91-4.31,13.98-5.31,14.98,14.51-13.57,21-29.96,35.15-42.29,2.65-2.3,5.37-3.95,7.96-5.07-9.2,3.89-19.29,11.68-40.75,14.92Z"/><path class="cls-9" d="M162.44,148.36c18.23-12.39,29.2-26.19,34.03-31.32-39.28,.89-55.91-19.99-61.63-28.9,10.79,16.93,27.6,30.32,24.36,49.13-4.19,24.3-35.86,26.54-35.86,26.54,0,0,14.86,1.06,39.1-15.45Z"/><path class="cls-2" d="M270.26,94.45c1.95,1.18,3.89,3.42,1.95,3.42h-2.71c-3.3,0-8.79,.24-14.63,2.77-2.32,.97-4.68,2.19-7.27,3.52-7.75,3.98-17.45,8.97-33.54,11.4-.59-1.71-1.3-3.36-2.06-5.01-1.12-2.42-2.48-4.84-3.89-7.19,7.55-8.43,17.58-17.81,29.49-21.59,5.01-1.53,10.03-2.6,15.34-1.89,5.31,.65,7.9,2.95,9.61,5.9,.16,.27,.38,.71,.64,1.23,.71,1.42,1.72,3.46,2.67,4.37,1.02,1.02,2.32,1.8,3.6,2.57,.28,.17,.55,.33,.83,.5Zm-15.33-5.43c0,1.73-1.4,3.13-3.13,3.13s-3.13-1.4-3.13-3.13,1.4-3.13,3.13-3.13,3.13,1.4,3.13,3.13Z"/></svg>