<?xml version="1.0" encoding="utf-8"?>
<!-- Generator: Adobe Illustrator 27.0.0, SVG Export Plug-In . SVG Version: 6.00 Build 0)  -->
<svg version="1.1" id="Layer_1" xmlns="http://www.w3.org/2000/svg" xmlns:xlink="http://www.w3.org/1999/xlink" x="0px" y="0px"
	 viewBox="0 0 602.4 243" style="enable-background:new 0 0 602.4 243;" xml:space="preserve">
<style type="text/css">
	.st0{fill-rule:evenodd;clip-rule:evenodd;}
	.st1{fill:#FFFFFF;}
	.st2{fill-rule:evenodd;clip-rule:evenodd;fill:#FFFFFF;}
</style>
<g>
	<path class="st1" d="M360,122.9c-9.4,0-17,7.6-17,17v5.1c0,9.4,7.6,17,17,17h10.9v-6.2H360c-5.8,0-10.6-4.5-10.9-10.3h22.2
		c3.1,0,5.6-2.5,5.6-5.6C377.1,130.6,369.4,122.9,360,122.9z M349.2,139.3c0.3-5.7,5.1-10.3,10.9-10.3s10.6,4.5,10.9,10.3H349.2z"/>
	<path class="st1" d="M259.4,114.4c-2.4,2.5-3.7,5.8-3.7,9.2v0.8h-3.6v6.2h3.6v31.4h6.2v-31.4h8.3v-6.2h-8.3v-0.8c0-3.8,3.1-7,6.7-7
		h4.5v-6.2h-4.5C265.1,110.4,261.9,111.9,259.4,114.4z"/>
	<path class="st1" d="M282.9,110.4h6.2V162h-6.2V110.4z"/>
	<path class="st1" d="M326.6,146.1c0,5.4-4.4,9.7-9.7,9.7s-9.7-4.4-9.7-9.7v-23.2H301v23.2c0,8.8,7.1,15.9,15.9,15.9
		c8.8,0,15.9-7.1,15.9-15.9v-23.2h-6.2V146.1z"/>
	<path class="st1" d="M399.2,122.9c-8.8,0-15.9,7.1-15.9,15.9v23.2h6.2v-23.2c0-5.4,4.4-9.7,9.7-9.7s9.7,4.4,9.7,9.7v23.2h6.2v-23.2
		C415.1,130,408,122.9,399.2,122.9z"/>
	<path class="st1" d="M433,148.8v-19.8h8.4v-6.2H433v-12.4h-6.2v12.4h-5.5v6.1h5.5v19.8c0,7.1,5.8,12.9,12.9,12.9h2.7v-6.1h-2.8
		C436,155.6,433,152.6,433,148.8z"/>
	<path class="st1" d="M473.4,110.4v15.8c-2.7-2.1-6.1-3.3-9.7-3.3c-8.8,0-15.9,7.1-15.9,15.9v7.3c0,8.8,7.1,15.9,15.9,15.9
		s15.9-7.1,15.9-15.9v-35.7L473.4,110.4z M473.4,142.3v3.8c0,5.4-4.4,9.7-9.7,9.7s-9.7-4.4-9.7-9.7v-7.3c0-5.4,4.4-9.7,9.7-9.7
		s9.7,4.4,9.7,9.7V142.3z"/>
	<path class="st2" d="M270.3,94.3c-0.2-0.1-0.4-0.2-0.6-0.4c-1.4-0.8-2.7-1.7-3.8-2.7c-0.9-0.9-2-2.9-2.7-4.4
		c-0.3-0.5-0.5-1-0.6-1.2c0,0,0-0.1-0.1-0.1c-1.7-2.9-4.3-5.2-9.6-5.8c-0.5-0.1-1.1-0.1-1.6-0.1c-0.3,0-0.6,0-0.9,0
		c-0.2,0-0.3,0-0.5,0c-4.2-0.1-8.3,0.8-12.3,2.1c-0.1,0-0.3,0.1-0.4,0.1c-1.6,0.5-3.3,1.1-5,1.6c-8.9,3-18.2,6.2-29.5,2.6
		c-7.4-2.3-17.5-10.1-28-18.2c-4.3-3.3-8.6-6.6-12.9-9.7c-1-0.7-1.9-1.4-2.9-2.1c-5.3-3.6-10.4-6.7-15.2-8.7c0,0,0,0,0,0
		c-1-0.4-2-0.8-3-1.1c-0.1,0-0.1,0-0.2-0.1c-0.4-0.1-0.9-0.2-1.3-0.4c0,0-0.1,0-0.1,0c-0.5-0.1-0.9-0.2-1.4-0.3c0,0,0,0,0,0
		c-0.4-0.1-0.9-0.1-1.3-0.2c-0.1,0-0.1,0-0.2,0c-0.9-0.1-1.7-0.1-2.5-0.1c0,0-0.1,0-0.1,0c-0.4,0-0.8,0.1-1.1,0.1c0,0-0.1,0-0.1,0
		c-0.8,0.1-1.5,0.4-2.3,0.7c0,0-0.1,0-0.1,0.1c-0.3,0.1-0.7,0.3-1,0.5c0,0,0,0,0,0c-0.3,0.2-0.7,0.4-1,0.7c0,0-0.1,0.1-0.1,0.1
		c-0.3,0.2-0.5,0.4-0.8,0.7c-0.1,0.1-0.1,0.1-0.2,0.2c-0.3,0.3-0.6,0.6-0.9,0.9c-1.7,2-2.5,4.7-2.6,8.1c-0.2,7.5,3.5,18.1,11.1,30.1
		l0.4,0.5c10.1,15.9,25.5,28.6,24.7,45.6c0,0,0,0.1,0,0.1c0,0.5-0.1,1-0.1,1.5c0,0.1,0,0.2,0,0.3c-0.1,0.5-0.1,1.1-0.2,1.6
		c0,0.2-0.1,0.3-0.1,0.5c-1.1,5.8-3.8,10.4-7.3,13.9c-10.7,10.9-28.5,12.1-28.5,12.1s35.4,11.1,64.2-0.6c22.2-9,32-22.9,41.5-36.3
		c5.3-7.5,10.6-14.9,17.8-21.2c2.8-2.4,5.7-4.1,8.4-5.3c0.5-0.2,1-0.4,1.5-0.6c0.1,0,0.3-0.1,0.4-0.1c4.9-1.7,9.4-1.9,12.2-1.9h0.1
		h2.7h0c0,0,0,0,0,0C274.1,97.7,272.2,95.5,270.3,94.3z M251.8,92c-1.7,0-3.1-1.4-3.1-3.1c0-0.2,0-0.4,0.1-0.6
		c0.3-1.4,1.6-2.5,3.1-2.5c1.5,0,2.8,1.1,3.1,2.5c0,0.2,0.1,0.4,0.1,0.6C254.9,90.6,253.5,92,251.8,92z"/>
</g>
</svg>
