<?xml version="1.0" encoding="utf-8"?>
<!-- Generator: Adobe Illustrator 27.0.0, SVG Export Plug-In . SVG Version: 6.00 Build 0)  -->
<svg version="1.1" id="Layer_1" xmlns="http://www.w3.org/2000/svg" xmlns:xlink="http://www.w3.org/1999/xlink" x="0px" y="0px"
	 viewBox="0 0 608.7 241.8" style="enable-background:new 0 0 608.7 241.8;" xml:space="preserve">
<style type="text/css">
	.st0{clip-path:url(#SVGID_00000047780805913277424650000013962205202663208596_);}
	.st1{clip-path:url(#SVGID_00000106140321706134228330000000011478704887930240_);}
	.st2{fill:#FFFFFF;}
	.st3{clip-path:url(#SVGID_00000121981780454551516350000012182743141679240354_);fill:#FFFFFF;}
</style>
<path d="M148.7,178.9c2.7-3.1,5.4-6.1,8.1-9.2c6.2-7.3,12.2-14.7,16.9-23.1c1.2-2.2,2.1-4.5,3.1-6.7c0.7-1.6,0.3-3.2-1.1-4.2
	c-1.7-1.2-3.4-2.4-5.3-3.2c-4.6-1.9-9.2-3.7-13.9-5.2c-6.5-2.1-12.2-5.5-17.2-10.1c-6.8-6.3-12.1-13.6-14.9-22.5
	c-0.8-2.6-1.1-5.4-1.1-8.4c6.8,3.7,13.8,6.2,21.7,7.3c-4.3-9.2-5.4-18.6-4.3-28.6c0.3,0.4,0.5,0.8,0.8,1.1
	c5.3,6.1,11.2,11.5,18.2,15.6c6.8,3.9,14.1,6.2,21.9,7.1c1.5,0.2,2.6-0.2,3.9-0.8c5.5-2.4,10.4-5.8,15.3-9.2
	c4.5-3.2,9.1-6.3,14.4-8.2c15-5.3,28.2,0.3,35.9,14.1c0.4,0.8,0.8,1.6,1.2,2.5c-0.3,0.1-0.6,0.1-0.9,0.1
	c-11.8-0.3-20.1,5.5-26.2,15.1c-3.2,4.9-4.9,10.4-6.4,16.1c-2.4,9.5-7.1,17.8-13.4,25.2c-10.7,12.6-24,21.8-38.9,28.9
	c-5.7,2.7-11.6,4.8-17.6,6.4C148.9,178.9,148.8,178.9,148.7,178.9z"/>
<g>
	<defs>
		<rect id="SVGID_1_" x="122.9" y="64.5" width="362.9" height="115.2"/>
	</defs>
	<clipPath id="SVGID_00000018935632262478669340000001631624222719412401_">
		<use xlink:href="#SVGID_1_"  style="overflow:visible;"/>
	</clipPath>
	<g style="clip-path:url(#SVGID_00000018935632262478669340000001631624222719412401_);">
		<g>
			<path d="M219.2,115.7l0.4,0L219.2,115.7L219.2,115.7z"/>
		</g>
		<g>
			<g>
				<defs>
					<path id="SVGID_00000112605385773294127320000004170671822854736030_" d="M219.2,115.7l0.4,0L219.2,115.7L219.2,115.7z"/>
				</defs>
				<use xlink:href="#SVGID_00000112605385773294127320000004170671822854736030_"  style="overflow:visible;"/>
				<clipPath id="SVGID_00000121957588611921249570000001655611109835201465_">
					<use xlink:href="#SVGID_00000112605385773294127320000004170671822854736030_"  style="overflow:visible;"/>
				</clipPath>
				<polygon style="clip-path:url(#SVGID_00000121957588611921249570000001655611109835201465_);" points="219.4,115.7 219.4,115.7 
					219.2,115.7 219.2,115.7 				"/>
				<polygon style="clip-path:url(#SVGID_00000121957588611921249570000001655611109835201465_);" points="219.4,115.7 219.4,115.7 
					219.6,115.7 219.6,115.7 				"/>
			</g>
		</g>
		<g>
			<path d="M485.7,138.4L485.7,138.4c0-8.8-7.1-15.9-15.8-15.9H458v5.6h11.9c5.5,0,10,4.4,10.2,10c-1.6-0.9-3.4-1.4-5.3-1.4l0,0H465
				l0,0c-6,0-10.9,4.9-10.9,11v3.4c0,6,4.9,11,10.9,11h9.8c5.9,0,10.6-4.7,10.9-10.5L485.7,138.4z M474.8,156.3H465
				c-2.9,0-5.3-2.4-5.3-5.3v-3.4c0-2.9,2.4-5.3,5.3-5.3l0,0h9.8l0,0c2.9,0,5.3,2.4,5.3,5.3l0,0v3.4l0,0
				C480.1,153.9,477.7,156.3,474.8,156.3z"/>
		</g>
		<g>
			<path d="M447.2,110.3h-5.6v5.6h5.6V110.3z"/>
		</g>
		<g>
			<path d="M262.4,115.8L262.4,115.8l9.1,0v-5.6h-9.1v0c-10.3,0-18.6,8.4-18.6,18.7v0v14.3l0,0v0c0,10.3,8.3,18.7,18.6,18.7l0,0h9.1
				v-5.6h-9.1l0,0c-7.2,0-13-5.9-13-13v0l0,0v-14.3v0C249.4,121.7,255.2,115.8,262.4,115.8z"/>
		</g>
		<g>
			<path d="M390.4,122.5c-8.7,0-15.8,7.1-15.8,15.8v7.7v28.5h5.6v-16.4c2.8,2.3,6.3,3.8,10.2,3.8c8.7,0,15.8-7.1,15.8-15.8v-7.7
				C406.2,129.6,399.1,122.5,390.4,122.5z M400.6,146c0,5.6-4.6,10.2-10.2,10.2c-5.6,0-10.2-4.6-10.2-10.2v-7.7
				c0-5.6,4.6-10.2,10.2-10.2s10.2,4.6,10.2,10.2V146z"/>
		</g>
		<g>
			<path d="M447.2,122.5h-5.6v39.3h5.6V122.5z"/>
		</g>
		<g>
			<path d="M325.1,110.2h-5.6v51.7h5.6V110.2z"/>
		</g>
		<g>
			<path d="M424.6,146.2v-18.1h9.1v-5.6h-9.1v-12.2H419v12.2h-5.7v5.6h5.7v18.1c0,8.7,7.1,15.8,15.8,15.8l0,0v-5.6l0,0
				C429.1,156.4,424.6,151.8,424.6,146.2z"/>
		</g>
		<g>
			<path d="M310.2,138.3L310.2,138.3c0-8.8-7.1-15.9-15.8-15.9h-11.9v5.6h11.9c5.5,0,10,4.4,10.2,10c-1.6-0.9-3.3-1.4-5.3-1.4v0
				h-9.8v0c-6,0-10.9,4.9-10.9,11v3.4c0,6,4.9,11,10.9,11h9.8c5.9,0,10.6-4.7,10.9-10.5L310.2,138.3z M299.3,156.3h-9.8
				c-2.9,0-5.3-2.4-5.3-5.3v-3.4c0-2.9,2.4-5.3,5.3-5.3l0,0h9.8l0,0c2.9,0,5.3,2.4,5.3,5.3l0,0v3.4l0,0
				C304.6,153.9,302.2,156.3,299.3,156.3z"/>
		</g>
		<g>
			<path d="M365.8,122.5h-5.6V146l0,0l0,0c0,5.6-4.6,10.2-10.2,10.2c-5.6,0-10.2-4.6-10.2-10.2l0,0v-23.5h-5.6V146l0,0
				c0,8.7,7.1,15.8,15.8,15.8c3.9,0,7.4-1.4,10.2-3.8v0.6c0,5.6-4.6,10.2-10.2,10.2h-11.9v5.6H350c8.7,0,15.8-7.1,15.8-15.8V122.5z"
				/>
		</g>
	</g>
</g>
</svg>
