<?xml version="1.0" encoding="utf-8"?>
<!-- Generator: Adobe Illustrator 27.0.0, SVG Export Plug-In . SVG Version: 6.00 Build 0)  -->
<svg version="1.1" id="Layer_1" xmlns="http://www.w3.org/2000/svg" xmlns:xlink="http://www.w3.org/1999/xlink" x="0px" y="0px"
	 viewBox="0 0 800 800" style="enable-background:new 0 0 800 800;" xml:space="preserve">
<style type="text/css">
	.st0{fill:url(#SVGID_1_);}
	.st1{fill:url(#SVGID_00000121986324794098976850000011924955362124802234_);}
	.st2{fill:url(#SVGID_00000072258808376696203290000002304150541663754668_);}
	.st3{fill:url(#SVGID_00000093885964258914943180000005706216485076252074_);}
	.st4{fill:url(#SVGID_00000033327766057799562100000004125402948474768555_);}
	.st5{fill:#0199FF;}
</style>
<g>
	
		<linearGradient id="SVGID_1_" gradientUnits="userSpaceOnUse" x1="228.5191" y1="447.4748" x2="456.5292" y2="446.0369" gradientTransform="matrix(1 0 0 -1 0 802)">
		<stop  offset="0" style="stop-color:#15C1FF"/>
		<stop  offset="1" style="stop-color:#0049E9"/>
	</linearGradient>
	<path class="st0" d="M301.4,387.9c31.2,26.4,51.9,45.4,56.3,66.9C362.3,345,418,291.4,482.4,266.6c-44.9-10.9-78.9-13.8-102.6-5.9
		c-2.8,1.1-5.6,2.3-8.5,3.3c-9.3,3.3-18.7,6.1-28.2,8.7c-7.7,2-15.4,3.9-23.1,5.5c-30.6,6.1-61.1,8-90.3,5.8
		c-7.1-0.5-14.1-1.3-21-2.3c3.2,6.5,6.6,12.7,10.3,18.6C241.9,337.4,273.4,364.2,301.4,387.9z"/>
	
		<linearGradient id="SVGID_00000083802593775984134030000016810992038690287260_" gradientUnits="userSpaceOnUse" x1="103.9234" y1="543.597" x2="337.6762" y2="350.1595" gradientTransform="matrix(1 0 0 -1 0 802)">
		<stop  offset="0" style="stop-color:#B3A9FF"/>
		<stop  offset="1" style="stop-color:#3300BF"/>
	</linearGradient>
	<path style="fill:url(#SVGID_00000083802593775984134030000016810992038690287260_);" d="M357.8,454.8
		c-4.4-21.5-25.1-40.5-56.3-66.9c-28-23.7-59.5-50.6-82.4-87.8c-3.7-5.9-7.2-12.1-10.3-18.6c-29.9-4.3-58.1-13-83.6-26l-13.3-6.8
		l0.8,15c2.5,46.8,54.3,131.8,132.9,163.8c58.3,18.8,98,34,104.7,47.9c1,2.1,2.8,6,0.7,11.3c-2.5,6.6,4.2-4.1,6.3-13.6
		C357.3,466.9,357.5,460.8,357.8,454.8z"/>
	
		<linearGradient id="SVGID_00000018222371884506435220000002505340685808906402_" gradientUnits="userSpaceOnUse" x1="191.2253" y1="574.0925" x2="366.6677" y2="608.6347" gradientTransform="matrix(1 0 0 -1 0 802)">
		<stop  offset="0" style="stop-color:#2BF497"/>
		<stop  offset="1" style="stop-color:#08B4E5"/>
	</linearGradient>
	<path style="fill:url(#SVGID_00000018222371884506435220000002505340685808906402_);" d="M320.1,278.1c7.7-1.5,15.4-3.4,23.1-5.5
		c9.5-2.5,19-5.4,28.2-8.7c2.9-1,5.7-2.2,8.5-3.3c-53.2-4.8-113.9-22.3-177.6-92L188,153l-0.6,21.2c-1.3,43.4,7.4,78.3,21.5,107.3
		c6.9,1,13.9,1.8,21,2.3C259,286.1,289.5,284.2,320.1,278.1z"/>
	
		<linearGradient id="SVGID_00000066515897806094562700000005501125781594338735_" gradientUnits="userSpaceOnUse" x1="268.6458" y1="203.8181" x2="564.9437" y2="521.043" gradientTransform="matrix(1 0 0 -1 0 802)">
		<stop  offset="0" style="stop-color:#FF55EC"/>
		<stop  offset="1" style="stop-color:#0049E9"/>
	</linearGradient>
	<path style="fill:url(#SVGID_00000066515897806094562700000005501125781594338735_);" d="M540.4,379.5l1.5,0
		c9.2-89.7-45.3-110-59.4-113c-64.4,24.9-120.1,78.4-124.7,188.3c-0.7,31.6-22,86.6-133.9,208.2c20.1-4.1,27.1-7.9,27.1-7.9
		c79-23.1,253.4-118.2,288.1-264.6c0.9-3.8,2-7.2,2.9-10.8v-0.1L540.4,379.5L540.4,379.5z"/>
	
		<linearGradient id="SVGID_00000167388256134952374440000012883625233454748810_" gradientUnits="userSpaceOnUse" x1="428.7317" y1="551.2951" x2="682.2048" y2="601.2014" gradientTransform="matrix(1 0 0 -1 0 802)">
		<stop  offset="0" style="stop-color:#3FFFFC"/>
		<stop  offset="1" style="stop-color:#014FFF"/>
	</linearGradient>
	<path style="fill:url(#SVGID_00000167388256134952374440000012883625233454748810_);" d="M681.5,241.7c-1.6-3.2-39.4-77.4-120-71.1
		c-6.2,0.5-12.4,1.3-18.4,2.5c-35.3,7-61.2,25.1-88.5,44.3c-22,15.4-44.9,31.3-74.7,43.2c23.6-7.9,57.6-5,102.6,5.9
		c93.6-36.1,205.4-11.9,205.4-11.9L681.5,241.7z"/>
	<path class="st5" d="M482.4,266.5c0.6,0.1,1.2,0.3,2,0.5c1.3,0.3,2.5,0.7,3.7,1.1c19.1,6.4,62,31.1,53.8,111.4l-1.5,0l0.7,0l0.9,0
		c25.6-92.3,81.9-117,113.9-123.4c10.6-2.1,17.5-1.9,17.5-1.9l14.4,0.4C687.9,254.6,576.1,230.4,482.4,266.5z"/>
</g>
</svg>
