<?xml version="1.0" encoding="utf-8"?>
<!-- Generator: Adobe Illustrator 27.0.0, SVG Export Plug-In . SVG Version: 6.00 Build 0)  -->
<svg version="1.1" id="Layer_1" xmlns="http://www.w3.org/2000/svg" xmlns:xlink="http://www.w3.org/1999/xlink" x="0px" y="0px"
	 viewBox="0 0 608.7 241.8" style="enable-background:new 0 0 608.7 241.8;" xml:space="preserve">
<style type="text/css">
	.st0{fill:#0D3C61;}
	.st1{fill-rule:evenodd;clip-rule:evenodd;fill:url(#SVGID_1_);}
	.st2{fill:url(#SVGID_00000180349748158962339910000014543088578271999146_);}
	.st3{fill:url(#SVGID_00000068647472602472005960000016786625077703502742_);}
	.st4{fill:url(#SVGID_00000169560235880355307940000009631361116893625756_);}
	.st5{fill:url(#SVGID_00000173870916426396925880000008764427132425235342_);}
	.st6{fill:url(#SVGID_00000146479866907055390060000007124829284441826442_);}
	.st7{fill:url(#SVGID_00000053521496391202029820000003256578849842887602_);}
	.st8{fill-rule:evenodd;clip-rule:evenodd;fill:url(#SVGID_00000029010361156195273920000017302279098832702629_);}
	.st9{fill-rule:evenodd;clip-rule:evenodd;fill:url(#SVGID_00000124869013562652468990000012969950929828540858_);}
	.st10{fill-rule:evenodd;clip-rule:evenodd;fill:url(#SVGID_00000132810244051240461340000017094804857146058897_);}
	.st11{opacity:0.8;fill:url(#SVGID_00000096779578557129400460000003221000591405268409_);enable-background:new    ;}
	.st12{opacity:0.8;fill:url(#SVGID_00000027598992053204288900000001769767004891284626_);enable-background:new    ;}
	.st13{opacity:0.8;fill:url(#SVGID_00000053536285648512468720000001326208190029518767_);enable-background:new    ;}
	.st14{fill:url(#SVGID_00000158734743361030360380000018103761095803201439_);}
	.st15{opacity:0.8;fill:url(#SVGID_00000182506379256132741280000004327859162366811028_);enable-background:new    ;}
	.st16{opacity:0.3;fill:url(#SVGID_00000025401771260761802230000014832840722071327627_);enable-background:new    ;}
	.st17{opacity:0.3;fill:url(#SVGID_00000052064472543000401180000001957816575188754819_);enable-background:new    ;}
	.st18{opacity:0.3;fill:url(#SVGID_00000015349818654695144910000016654426687189451669_);enable-background:new    ;}
	.st19{opacity:0.3;fill:url(#SVGID_00000072240953641147901080000012216668265365807005_);enable-background:new    ;}
	.st20{fill:url(#SVGID_00000182486191436437785360000008674572815281112237_);}
	.st21{opacity:0.3;fill:url(#SVGID_00000041989952195662516600000003149174053766092213_);enable-background:new    ;}
	.st22{opacity:0.8;fill:url(#SVGID_00000060744704379262796020000014010573776002110890_);enable-background:new    ;}
	.st23{fill:url(#SVGID_00000168838708492641654820000004469895162525464727_);}
	.st24{fill-rule:evenodd;clip-rule:evenodd;fill:url(#SVGID_00000009554827290726264350000016345180834729290398_);}
	.st25{fill:#30B99E;}
	.st26{clip-path:url(#SVGID_00000137106375296920573100000005408645642425484963_);}
	.st27{fill:url(#SVGID_00000042719843660244113880000012560813195792424857_);}
	.st28{fill:url(#SVGID_00000000180708953194443340000009436256454490352014_);}
	.st29{fill:url(#SVGID_00000029751428901720153990000013678690494517159612_);}
	.st30{fill:url(#SVGID_00000092441820288559668460000008061544257708119982_);}
	.st31{fill:url(#SVGID_00000044876523503695059210000000137655814390989702_);}
	.st32{fill:#0199FF;}
	.st33{fill:url(#SVGID_00000004541286540474787820000014217582595978614440_);}
</style>
<g>
	<defs>
		<rect id="SVGID_00000151514479296911513420000007631609917515191693_" x="122.9" y="64.5" width="362.9" height="115.2"/>
	</defs>
	<clipPath id="SVGID_00000051372228147262031830000013196972462622559399_">
		<use xlink:href="#SVGID_00000151514479296911513420000007631609917515191693_"  style="overflow:visible;"/>
	</clipPath>
	<g style="clip-path:url(#SVGID_00000051372228147262031830000013196972462622559399_);">
		
			<linearGradient id="SVGID_1_" gradientUnits="userSpaceOnUse" x1="149.15" y1="132.9095" x2="200.37" y2="132.5865" gradientTransform="matrix(1 0 0 -1 0 243)">
			<stop  offset="0" style="stop-color:#15C1FF"/>
			<stop  offset="1" style="stop-color:#0049E9"/>
		</linearGradient>
		<path style="fill:url(#SVGID_1_);" d="M165.5,117.6c7,5.9,11.7,10.2,12.6,15c1-24.7,13.5-36.7,28-42.3c-10.1-2.4-17.7-3.1-23-1.3
			c-0.6,0.3-1.2,0.5-1.9,0.7c-2.1,0.7-4.2,1.4-6.3,1.9c-1.7,0.5-3.4,0.9-5.2,1.2c-6.9,1.4-13.7,1.8-20.3,1.3
			c-1.6-0.1-3.2-0.3-4.7-0.5c0.7,1.5,1.5,2.8,2.3,4.2C152.2,106.2,159.2,112.3,165.5,117.6z"/>
		
			<linearGradient id="SVGID_00000176006646495283021990000013166765574503687585_" gradientUnits="userSpaceOnUse" x1="121.161" y1="154.5023" x2="173.671" y2="111.0487" gradientTransform="matrix(1 0 0 -1 0 243)">
			<stop  offset="0" style="stop-color:#B3A9FF"/>
			<stop  offset="1" style="stop-color:#3300BF"/>
		</linearGradient>
		<path style="fill:url(#SVGID_00000176006646495283021990000013166765574503687585_);" d="M178.2,132.6c-1-4.8-5.6-9.1-12.7-15
			c-6.3-5.3-13.4-11.4-18.5-19.7c-0.8-1.3-1.6-2.7-2.3-4.2c-6.7-1-13.1-2.9-18.8-5.8l-3-1.5l0.2,3.4c0.6,10.5,12.2,29.6,29.9,36.8
			c13.1,4.2,22,7.6,23.5,10.8c0.2,0.5,0.6,1.4,0.2,2.5c-0.6,1.5,0.9-0.9,1.4-3C178.1,135.3,178.1,134,178.2,132.6z"/>
		
			<linearGradient id="SVGID_00000182526909516694220760000004852401715412096952_" gradientUnits="userSpaceOnUse" x1="140.7724" y1="161.3527" x2="180.1836" y2="169.1123" gradientTransform="matrix(1 0 0 -1 0 243)">
			<stop  offset="0" style="stop-color:#2BF497"/>
			<stop  offset="1" style="stop-color:#08B4E5"/>
		</linearGradient>
		<path style="fill:url(#SVGID_00000182526909516694220760000004852401715412096952_);" d="M169.7,92.9c1.7-0.3,3.5-0.8,5.2-1.2
			c2.1-0.6,4.3-1.2,6.3-1.9c0.7-0.2,1.3-0.5,1.9-0.7c-12-1.1-25.6-5-39.9-20.7l-3.2-3.5l-0.1,4.8c-0.3,9.8,1.7,17.6,4.8,24.1
			c1.6,0.2,3.1,0.4,4.7,0.5C156,94.7,162.8,94.3,169.7,92.9z"/>
		
			<linearGradient id="SVGID_00000120518861063278322210000012750006626263496619_" gradientUnits="userSpaceOnUse" x1="158.164" y1="78.1747" x2="224.7241" y2="149.4358" gradientTransform="matrix(1 0 0 -1 0 243)">
			<stop  offset="0" style="stop-color:#FF55EC"/>
			<stop  offset="1" style="stop-color:#0049E9"/>
		</linearGradient>
		<path style="fill:url(#SVGID_00000120518861063278322210000012750006626263496619_);" d="M219.2,115.7l0.3,0
			c2.1-20.1-10.2-24.7-13.4-25.4c-14.5,5.6-27,17.6-28,42.3c-0.2,7.1-4.9,19.5-30.1,46.8c4.5-0.9,6.1-1.8,6.1-1.8
			c17.8-5.2,56.9-26.5,64.7-59.4c0.2-0.8,0.4-1.6,0.7-2.4v0L219.2,115.7L219.2,115.7z"/>
		
			<linearGradient id="SVGID_00000092422123619752839220000005546873494909233831_" gradientUnits="userSpaceOnUse" x1="194.1256" y1="156.2316" x2="251.0655" y2="167.4425" gradientTransform="matrix(1 0 0 -1 0 243)">
			<stop  offset="0" style="stop-color:#3FFFFC"/>
			<stop  offset="1" style="stop-color:#014FFF"/>
		</linearGradient>
		<path style="fill:url(#SVGID_00000092422123619752839220000005546873494909233831_);" d="M250.9,84.8c-0.3-0.7-8.8-17.4-27-16
			c-1.4,0.1-2.8,0.3-4.1,0.6c-7.9,1.6-13.7,5.6-19.9,10c-5,3.5-10.1,7-16.8,9.7c5.3-1.8,12.9-1.1,23,1.3c21-8.1,46.2-2.7,46.2-2.7
			L250.9,84.8z"/>
		<path class="st32" d="M219.2,115.7l0.4,0L219.2,115.7L219.2,115.7z"/>
		
			<linearGradient id="SVGID_00000101100227817525449020000008660255063767967159_" gradientUnits="userSpaceOnUse" x1="181.5648" y1="172.4761" x2="226.5648" y2="118.7113" gradientTransform="matrix(1 0 0 -1 0 243)">
			<stop  offset="0" style="stop-color:#94FFF7"/>
			<stop  offset="0.6882" style="stop-color:#0085BF"/>
			<stop  offset="1" style="stop-color:#0056BF"/>
		</linearGradient>
		<path style="fill:url(#SVGID_00000101100227817525449020000008660255063767967159_);" d="M219.2,115.7l0.4,0L219.2,115.7
			L219.2,115.7z"/>
		<path class="st32" d="M206.2,90.3c0.1,0,0.3,0.1,0.4,0.1c0.3,0.1,0.6,0.2,0.8,0.3c4.3,1.4,13.9,7,12.1,25l-0.3,0l0.2,0l0.2,0
			C225.3,95,238,89.4,245.2,88c2.4-0.5,3.9-0.4,3.9-0.4l3.2,0.1C252.3,87.7,227.2,82.2,206.2,90.3z"/>
		<path class="st0" d="M485.7,138.4L485.7,138.4c0-8.8-7.1-15.9-15.8-15.9H458v5.6h11.9c5.5,0,10,4.4,10.2,10
			c-1.6-0.9-3.4-1.4-5.3-1.4l0,0H465l0,0c-6,0-10.9,4.9-10.9,11v3.4c0,6,4.9,11,10.9,11h9.8c5.9,0,10.6-4.7,10.9-10.5L485.7,138.4z
			 M474.8,156.3H465c-2.9,0-5.3-2.4-5.3-5.3v-3.4c0-2.9,2.4-5.3,5.3-5.3l0,0h9.8l0,0c2.9,0,5.3,2.4,5.3,5.3l0,0v3.4l0,0
			C480.1,153.9,477.7,156.3,474.8,156.3z"/>
		<path class="st0" d="M447.2,110.3h-5.6v5.6h5.6V110.3z"/>
		<path class="st0" d="M262.4,115.8L262.4,115.8l9.1,0v-5.6h-9.1v0c-10.3,0-18.6,8.4-18.6,18.7v0v14.3l0,0v0
			c0,10.3,8.3,18.7,18.6,18.7l0,0h9.1v-5.6h-9.1l0,0c-7.2,0-13-5.9-13-13v0l0,0v-14.3v0C249.4,121.7,255.2,115.8,262.4,115.8z"/>
		<path class="st0" d="M390.4,122.5c-8.7,0-15.8,7.1-15.8,15.8v7.7v28.5h5.6v-16.4c2.8,2.3,6.3,3.8,10.2,3.8
			c8.7,0,15.8-7.1,15.8-15.8v-7.7C406.2,129.6,399.1,122.5,390.4,122.5z M400.6,146c0,5.6-4.6,10.2-10.2,10.2
			c-5.6,0-10.2-4.6-10.2-10.2v-7.7c0-5.6,4.6-10.2,10.2-10.2s10.2,4.6,10.2,10.2V146z"/>
		<path class="st0" d="M447.2,122.5h-5.6v39.3h5.6V122.5z"/>
		<path class="st0" d="M325.1,110.2h-5.6v51.7h5.6V110.2z"/>
		<path class="st0" d="M424.6,146.2v-18.1h9.1v-5.6h-9.1v-12.2H419v12.2h-5.7v5.6h5.7v18.1c0,8.7,7.1,15.8,15.8,15.8l0,0v-5.6l0,0
			C429.1,156.4,424.6,151.8,424.6,146.2z"/>
		<path class="st0" d="M310.2,138.3L310.2,138.3c0-8.8-7.1-15.9-15.8-15.9h-11.9v5.6h11.9c5.5,0,10,4.4,10.2,10
			c-1.6-0.9-3.3-1.4-5.3-1.4v0h-9.8v0c-6,0-10.9,4.9-10.9,11v3.4c0,6,4.9,11,10.9,11h9.8c5.9,0,10.6-4.7,10.9-10.5L310.2,138.3z
			 M299.3,156.3h-9.8c-2.9,0-5.3-2.4-5.3-5.3v-3.4c0-2.9,2.4-5.3,5.3-5.3l0,0h9.8l0,0c2.9,0,5.3,2.4,5.3,5.3l0,0v3.4l0,0
			C304.6,153.9,302.2,156.3,299.3,156.3z"/>
		<path class="st0" d="M365.8,122.5h-5.6V146l0,0l0,0c0,5.6-4.6,10.2-10.2,10.2c-5.6,0-10.2-4.6-10.2-10.2l0,0v-23.5h-5.6V146l0,0
			c0,8.7,7.1,15.8,15.8,15.8c3.9,0,7.4-1.4,10.2-3.8v0.6c0,5.6-4.6,10.2-10.2,10.2h-11.9v5.6H350c8.7,0,15.8-7.1,15.8-15.8V122.5z"
			/>
	</g>
</g>
</svg>
