<?xml version="1.0" encoding="utf-8"?>
<!-- Generator: Adobe Illustrator 27.0.0, SVG Export Plug-In . SVG Version: 6.00 Build 0)  -->
<svg version="1.1" id="Layer_1" xmlns="http://www.w3.org/2000/svg" xmlns:xlink="http://www.w3.org/1999/xlink" x="0px" y="0px"
	 viewBox="0 0 608.7 241.8" style="enable-background:new 0 0 608.7 241.8;" xml:space="preserve">
<style type="text/css">
	.st0{fill:#FFFFFF;}
	.st1{fill-rule:evenodd;clip-rule:evenodd;fill:url(#SVGID_1_);}
	.st2{fill:url(#SVGID_00000090985663247713299070000004007563325120393398_);}
	.st3{fill:url(#SVGID_00000023273339576746629710000000979508884544727482_);}
	.st4{fill:url(#SVGID_00000127046074366060505150000007460018589232901781_);}
	.st5{fill:url(#SVGID_00000050654355126398186310000015400606228947942825_);}
	.st6{fill:url(#SVGID_00000064314621655122391420000015853247315716812679_);}
	.st7{fill:url(#SVGID_00000084528921092586320630000002366936633361207708_);}
	.st8{fill-rule:evenodd;clip-rule:evenodd;fill:url(#SVGID_00000168814302212473189300000013255857877006264453_);}
	.st9{fill-rule:evenodd;clip-rule:evenodd;fill:url(#SVGID_00000072990467334207510840000008139415705395542971_);}
	.st10{fill-rule:evenodd;clip-rule:evenodd;fill:url(#SVGID_00000101062151775863377970000006423239460882466432_);}
	.st11{opacity:0.8;fill:url(#SVGID_00000068656395594411915340000015715153141413612984_);enable-background:new    ;}
	.st12{opacity:0.8;fill:url(#SVGID_00000108291480386523631250000017072241747113510819_);enable-background:new    ;}
	.st13{opacity:0.8;fill:url(#SVGID_00000005231169318906833450000004953075110526810797_);enable-background:new    ;}
	.st14{fill:url(#SVGID_00000045591465694142726410000017649215211365591465_);}
	.st15{opacity:0.8;fill:url(#SVGID_00000079464440299439743210000014049036200421391771_);enable-background:new    ;}
	.st16{opacity:0.3;fill:url(#SVGID_00000148638007757314796250000010600109820537299328_);enable-background:new    ;}
	.st17{opacity:0.3;fill:url(#SVGID_00000026876438109801335200000011915652949652356512_);enable-background:new    ;}
	.st18{opacity:0.3;fill:url(#SVGID_00000150785083587225321390000008273724742367478971_);enable-background:new    ;}
	.st19{opacity:0.3;fill:url(#SVGID_00000016049262430637827020000000004839507533813380_);enable-background:new    ;}
	.st20{fill:url(#SVGID_00000010280084229077931950000009063992380241510547_);}
	.st21{opacity:0.3;fill:url(#SVGID_00000039828990664014441660000009041238023720788383_);enable-background:new    ;}
	.st22{opacity:0.8;fill:url(#SVGID_00000129180090083050040170000014372749723621103752_);enable-background:new    ;}
	.st23{fill:url(#SVGID_00000065062847984510506540000015735191205487570831_);}
	.st24{fill-rule:evenodd;clip-rule:evenodd;fill:url(#SVGID_00000161627624523723011850000013708729399852876439_);}
	.st25{fill:#30B99E;}
	.st26{clip-path:url(#SVGID_00000099631397309164628050000006018551635222882700_);}
	.st27{fill:url(#SVGID_00000043434086982830316220000009215408736538646969_);}
	.st28{fill:url(#SVGID_00000133530543110386200180000009903229709435522728_);}
	.st29{fill:url(#SVGID_00000120519020744932646530000017843669393828437641_);}
	.st30{fill:url(#SVGID_00000000924983037836670360000012960050851449729408_);}
	.st31{fill:url(#SVGID_00000083791681673885623460000007376179088017802920_);}
	.st32{fill:#0199FF;}
	.st33{fill:url(#SVGID_00000176737053972857643610000011300722582359518357_);}
</style>
<g>
	<defs>
		<rect id="SVGID_00000074404016212092937790000005476567346901317308_" x="122.9" y="64.5" width="362.9" height="115.2"/>
	</defs>
	<clipPath id="SVGID_00000073716869580982890010000003209520717009068211_">
		<use xlink:href="#SVGID_00000074404016212092937790000005476567346901317308_"  style="overflow:visible;"/>
	</clipPath>
	<g style="clip-path:url(#SVGID_00000073716869580982890010000003209520717009068211_);">
		
			<linearGradient id="SVGID_1_" gradientUnits="userSpaceOnUse" x1="149.15" y1="132.5738" x2="200.37" y2="132.2518" gradientTransform="matrix(1 0 0 -1 0 242.6647)">
			<stop  offset="0" style="stop-color:#15C1FF"/>
			<stop  offset="1" style="stop-color:#0049E9"/>
		</linearGradient>
		<path style="fill:url(#SVGID_1_);" d="M165.5,117.6c7,5.9,11.7,10.2,12.6,15c1-24.7,13.5-36.7,28-42.3c-10.1-2.4-17.7-3.1-23-1.3
			c-0.6,0.3-1.2,0.5-1.9,0.7c-2.1,0.7-4.2,1.4-6.3,1.9c-1.7,0.5-3.4,0.9-5.2,1.2c-6.9,1.4-13.7,1.8-20.3,1.3
			c-1.6-0.1-3.2-0.3-4.7-0.5c0.7,1.5,1.5,2.8,2.3,4.2C152.2,106.2,159.2,112.3,165.5,117.6z"/>
		
			<linearGradient id="SVGID_00000005257650968042170180000012645126050186329485_" gradientUnits="userSpaceOnUse" x1="121.1609" y1="154.1668" x2="173.6709" y2="110.7138" gradientTransform="matrix(1 0 0 -1 0 242.6647)">
			<stop  offset="0" style="stop-color:#B3A9FF"/>
			<stop  offset="1" style="stop-color:#3300BF"/>
		</linearGradient>
		<path style="fill:url(#SVGID_00000005257650968042170180000012645126050186329485_);" d="M178.2,132.6c-1-4.8-5.6-9.1-12.7-15
			c-6.3-5.3-13.4-11.4-18.5-19.7c-0.8-1.3-1.6-2.7-2.3-4.2c-6.7-1-13.1-2.9-18.8-5.8l-3-1.5l0.2,3.4c0.6,10.5,12.2,29.6,29.9,36.8
			c13.1,4.2,22,7.6,23.5,10.8c0.2,0.5,0.6,1.3,0.2,2.5c-0.6,1.5,0.9-0.9,1.4-3C178.1,135.3,178.1,134,178.2,132.6z"/>
		
			<linearGradient id="SVGID_00000100364867390375510020000012338717831479786652_" gradientUnits="userSpaceOnUse" x1="140.7724" y1="161.0173" x2="180.1835" y2="168.777" gradientTransform="matrix(1 0 0 -1 0 242.6647)">
			<stop  offset="0" style="stop-color:#2BF497"/>
			<stop  offset="1" style="stop-color:#08B4E5"/>
		</linearGradient>
		<path style="fill:url(#SVGID_00000100364867390375510020000012338717831479786652_);" d="M169.7,92.9c1.7-0.3,3.5-0.8,5.2-1.2
			c2.1-0.6,4.3-1.2,6.3-1.9c0.7-0.2,1.3-0.5,1.9-0.7c-12-1.1-25.6-5-39.9-20.7l-3.2-3.5l-0.1,4.8c-0.3,9.8,1.7,17.6,4.8,24.1
			c1.6,0.2,3.1,0.4,4.7,0.5C156,94.7,162.8,94.3,169.7,92.9z"/>
		
			<linearGradient id="SVGID_00000001623778822761753490000013921744743632718262_" gradientUnits="userSpaceOnUse" x1="158.164" y1="77.8391" x2="224.724" y2="149.1004" gradientTransform="matrix(1 0 0 -1 0 242.6647)">
			<stop  offset="0" style="stop-color:#FF55EC"/>
			<stop  offset="1" style="stop-color:#0049E9"/>
		</linearGradient>
		<path style="fill:url(#SVGID_00000001623778822761753490000013921744743632718262_);" d="M219.2,115.7l0.3,0
			c2.1-20.1-10.2-24.7-13.4-25.4c-14.5,5.6-27,17.6-28,42.3c-0.2,7.1-4.9,19.5-30.1,46.8c4.5-0.9,6.1-1.8,6.1-1.8
			c17.8-5.2,56.9-26.5,64.7-59.4c0.2-0.8,0.4-1.6,0.7-2.4v0L219.2,115.7L219.2,115.7z"/>
		
			<linearGradient id="SVGID_00000103225481631058095840000010519144299104280455_" gradientUnits="userSpaceOnUse" x1="194.1256" y1="155.8962" x2="251.0655" y2="167.1072" gradientTransform="matrix(1 0 0 -1 0 242.6647)">
			<stop  offset="0" style="stop-color:#3FFFFC"/>
			<stop  offset="1" style="stop-color:#014FFF"/>
		</linearGradient>
		<path style="fill:url(#SVGID_00000103225481631058095840000010519144299104280455_);" d="M250.9,84.8c-0.3-0.7-8.8-17.4-27-16
			c-1.4,0.1-2.8,0.3-4.1,0.6c-7.9,1.6-13.7,5.6-19.9,10c-5,3.5-10.1,7-16.8,9.7c5.3-1.8,12.9-1.1,23,1.3c21-8.1,46.2-2.7,46.2-2.7
			L250.9,84.8z"/>
		<path class="st32" d="M219.2,115.7l0.4,0L219.2,115.7L219.2,115.7z"/>
		
			<linearGradient id="SVGID_00000150095102730678470570000008651163913937592205_" gradientUnits="userSpaceOnUse" x1="181.5643" y1="172.1404" x2="226.5643" y2="118.3763" gradientTransform="matrix(1 0 0 -1 0 242.6647)">
			<stop  offset="0" style="stop-color:#94FFF7"/>
			<stop  offset="0.6882" style="stop-color:#0085BF"/>
			<stop  offset="1" style="stop-color:#0056BF"/>
		</linearGradient>
		<path style="fill:url(#SVGID_00000150095102730678470570000008651163913937592205_);" d="M219.2,115.7l0.4,0L219.2,115.7
			L219.2,115.7z"/>
		<path class="st32" d="M206.2,90.3c0.1,0,0.3,0.1,0.4,0.1c0.3,0.1,0.6,0.2,0.8,0.3c4.3,1.4,13.9,7,12.1,25l-0.3,0l0.2,0l0.2,0
			C225.3,95,238,89.4,245.2,88c2.4-0.5,3.9-0.4,3.9-0.4l3.2,0.1C252.3,87.7,227.2,82.2,206.2,90.3z"/>
		<path class="st0" d="M485.7,138.4L485.7,138.4c0-8.8-7.1-15.9-15.8-15.9H458v5.6h11.9c5.5,0,10,4.4,10.2,10
			c-1.6-0.9-3.4-1.4-5.3-1.4v0H465v0c-6,0-10.9,4.9-10.9,11v3.4c0,6,4.9,11,10.9,11h9.8c5.9,0,10.6-4.7,10.9-10.5L485.7,138.4z
			 M474.8,156.3H465c-2.9,0-5.3-2.4-5.3-5.3v-3.4c0-2.9,2.4-5.3,5.3-5.3l0,0h9.8l0,0c2.9,0,5.3,2.4,5.3,5.3l0,0v3.4l0,0
			C480.1,153.9,477.7,156.3,474.8,156.3z"/>
		<path class="st0" d="M447.2,110.3h-5.6v5.6h5.6V110.3z"/>
		<path class="st0" d="M262.4,115.8L262.4,115.8l9.1,0v-5.6h-9.1v0c-10.3,0-18.6,8.4-18.6,18.7v0v14.3l0,0v0
			c0,10.3,8.3,18.7,18.6,18.7v0h9.1v-5.6h-9.1v0c-7.2,0-13-5.9-13-13v0v0v-14.3v0C249.4,121.7,255.2,115.8,262.4,115.8z"/>
		<path class="st0" d="M390.4,122.5c-8.7,0-15.8,7.1-15.8,15.8v7.7v28.5h5.6v-16.4c2.8,2.3,6.3,3.8,10.2,3.8
			c8.7,0,15.8-7.1,15.8-15.8v-7.7C406.2,129.6,399.1,122.5,390.4,122.5z M400.6,146c0,5.6-4.6,10.2-10.2,10.2
			c-5.6,0-10.2-4.6-10.2-10.2v-7.7c0-5.6,4.6-10.2,10.2-10.2s10.2,4.6,10.2,10.2V146z"/>
		<path class="st0" d="M447.2,122.5h-5.6v39.3h5.6V122.5z"/>
		<path class="st0" d="M325.1,110.2h-5.6v51.7h5.6V110.2z"/>
		<path class="st0" d="M424.6,146.2v-18.1h9.1v-5.6h-9.1v-12.2H419v12.2h-5.7v5.6h5.7v18.1c0,8.7,7.1,15.8,15.8,15.8l0,0v-5.6l0,0
			C429.1,156.4,424.6,151.8,424.6,146.2z"/>
		<path class="st0" d="M310.2,138.3L310.2,138.3c0-8.8-7.1-15.9-15.8-15.9h-11.9v5.6h11.9c5.5,0,10,4.4,10.2,10
			c-1.6-0.9-3.3-1.4-5.3-1.4l0,0h-9.8l0,0c-6,0-10.9,4.9-10.9,11v3.4c0,6,4.9,11,10.9,11h9.8c5.9,0,10.6-4.7,10.9-10.5L310.2,138.3z
			 M299.3,156.3h-9.8c-2.9,0-5.3-2.4-5.3-5.3v-3.4c0-2.9,2.4-5.3,5.3-5.3l0,0h9.8l0,0c2.9,0,5.3,2.4,5.3,5.3l0,0v3.4l0,0
			C304.6,153.9,302.2,156.3,299.3,156.3z"/>
		<path class="st0" d="M365.8,122.5h-5.6V146l0,0l0,0c0,5.6-4.6,10.2-10.2,10.2c-5.6,0-10.2-4.6-10.2-10.2l0,0v-23.5h-5.6V146l0,0
			c0,8.7,7.1,15.8,15.8,15.8c3.9,0,7.4-1.4,10.2-3.8v0.6c0,5.6-4.6,10.2-10.2,10.2h-11.9v5.6H350c8.7,0,15.8-7.1,15.8-15.8V122.5z"
			/>
	</g>
</g>
</svg>
